<svg width="90" height="90" viewBox="0 0 90 90" fill="none" xmlns="http://www.w3.org/2000/svg">
<g id="ic:baseline-speed">
<path id="Vector" d="M76.4249 32.1375L71.8124 39.075C74.0368 43.5115 75.1258 48.4306 74.9818 53.3914C74.8379 58.3523 73.4654 63.1999 70.9874 67.5H19.0124C15.7918 61.9129 14.4573 55.4367 15.2067 49.0315C15.9561 42.6263 18.7496 36.6331 23.173 31.9403C27.5963 27.2476 33.4142 24.1051 39.7639 22.9788C46.1137 21.8525 52.6574 22.8023 58.4249 25.6875L65.3624 21.075C58.2992 16.5458 49.9211 14.5162 41.5682 15.311C33.2154 16.1057 25.3703 19.6788 19.288 25.4588C13.2057 31.2387 9.23752 38.8915 8.01823 47.193C6.79894 55.4946 8.39898 63.9652 12.5624 71.25C13.2168 72.3835 14.1565 73.326 15.288 73.9839C16.4196 74.6418 17.7036 74.9921 19.0124 75H70.9499C72.2715 75.0052 73.571 74.6612 74.7168 74.0026C75.8626 73.3441 76.8141 72.3945 77.4749 71.25C80.9301 65.2647 82.664 58.441 82.4854 51.5323C82.3067 44.6236 80.2223 37.8987 76.4624 32.1L76.4249 32.1375ZM39.7124 57.7875C40.409 58.4848 41.2361 59.038 42.1466 59.4154C43.0571 59.7928 44.0331 59.9871 45.0187 59.9871C46.0043 59.9871 46.9802 59.7928 47.8907 59.4154C48.8012 59.038 49.6284 58.4848 50.3249 57.7875L71.5499 25.95L39.7124 47.175C39.0151 47.8715 38.4619 48.6987 38.0845 49.6092C37.707 50.5196 37.5128 51.4956 37.5128 52.4812C37.5128 53.4668 37.707 54.4428 38.0845 55.3533C38.4619 56.2638 39.0151 57.0909 39.7124 57.7875Z" fill="#2B2B2B"/>
</g>
</svg>
