<svg width="90" height="90" viewBox="0 0 90 90" fill="none" xmlns="http://www.w3.org/2000/svg">
<g id="material-symbols:currency-ruble">
<path id="Vector" d="M26.25 78.75V67.5H18.75V60H26.25V52.5H18.75V45H26.25V11.25H50.625C56.375 11.25 61.25 13.25 65.25 17.25C69.25 21.25 71.25 26.125 71.25 31.875C71.25 37.625 69.25 42.5 65.25 46.5C61.25 50.5 56.375 52.5 50.625 52.5H33.75V60H48.75V67.5H33.75V78.75H26.25ZM33.75 45H50.625C54.25 45 57.3438 43.7188 59.9062 41.1563C62.4688 38.5938 63.75 35.5 63.75 31.875C63.75 28.25 62.4688 25.1562 59.9062 22.5938C57.3438 20.0312 54.25 18.75 50.625 18.75H33.75V45Z" fill="#2B2B2B"/>
</g>
</svg>
