<svg width="180" height="41" viewBox="0 0 180 41" fill="none" xmlns="http://www.w3.org/2000/svg">
  <mask id="mask0_169_2377" style="mask-type:alpha" maskUnits="userSpaceOnUse" x="0" y="0" width="180" height="41">
    <path d="M3.93364 29.5531C6.23503 33.0638 9.39252 35.9442 13.1147 37.9283C16.837 39.9124 21.004 40.9365 25.2314 40.9059C22.7937 37.5248 19.6076 34.7401 15.9165 32.7646C12.2264 30.792 8.12489 29.6928 3.93364 29.5531ZM0 17.5175C0.167614 19.9885 0.677677 22.425 1.51585 24.7584C5.74509 24.7584 12.2708 26.2591 17.8113 29.2605C23.3517 32.2619 28.2025 36.764 30.5899 40.2531C33.0191 39.6567 35.3548 38.7353 37.5326 37.5144V8.10815C37.5219 6.64311 37.1125 5.20801 36.3474 3.95393C35.5823 2.69984 34.4898 1.67316 33.185 0.981959C31.8802 0.290757 30.4112 -0.0393962 28.9328 0.0262529C27.4545 0.091902 26.0213 0.550925 24.7842 1.355L0 17.5175ZM30.3171 6.26229C30.5943 6.3959 30.8215 6.61325 30.9659 6.88297C31.1103 7.15269 31.1644 7.46084 31.1205 7.76299V31.7742C28.323 28.3757 24.8508 25.5818 20.9188 23.5653C17.0773 21.4204 12.8254 20.0939 8.43573 19.671L28.6496 6.40486C28.876 6.20883 29.1592 6.08874 29.4588 6.06179C29.7583 6.03483 30.0587 6.10239 30.3171 6.25479V6.26229Z" fill="white"/>
    <path d="M162.325 5.95021H174.376V1.17798H162.325V5.95021ZM179.999 10.3247V34.8312H174.376V15.4722L165.129 34.8312H156.693V10.3247H162.325V29.6763L171.571 10.3247H179.999ZM136.04 9.90455C140.057 9.90455 143.066 11.6979 144.475 14.6843V10.3247H150.425V34.8312H144.475V30.4491C143.066 33.4506 139.973 35.2289 136.04 35.2289C129.976 35.2289 125.148 29.8189 125.148 22.578C125.148 15.1795 130.014 9.92706 136.04 9.92706V9.90455ZM137.806 15.2395C133.713 15.2395 131.083 18.3835 131.083 22.563C131.083 26.975 133.94 29.8789 137.806 29.8789C141.868 29.8789 144.475 26.7349 144.475 22.563C144.475 18.391 141.906 15.2546 137.806 15.2546V15.2395ZM115.583 15.7123V34.8087H109.641V15.7573H102.001V10.3247H123.223V15.7573L115.583 15.7123ZM94.3993 26.8325L99.3789 29.5337C97.5371 33.353 93.4974 35.3639 88.533 35.3639C81.3933 35.3639 76.2394 30.074 76.2394 22.608C76.2394 15.4872 81.0598 9.85203 88.533 9.85203C95.7711 9.85203 100.387 15.1495 100.387 22.608C100.401 23.2719 100.373 23.936 100.304 24.5964H82.1133C82.7121 27.898 84.8798 30.2015 88.7831 30.2015C89.9486 30.2408 91.1004 29.943 92.0978 29.3447C93.0952 28.7464 93.8949 27.8734 94.3993 26.8325ZM88.5178 15.0069C86.9846 14.9122 85.4722 15.3971 84.2862 16.3637C83.1002 17.3303 82.329 18.7066 82.1285 20.2144H94.5054C94.081 16.9954 92.0346 15.0069 88.5405 15.0069H88.5178ZM67.167 10.3548H57.7384L50.1592 34.8612H55.98L62.286 13.9339L68.5844 34.8612H74.7766L67.167 10.3548Z" fill="white"/>
  </mask>
  <g mask="url(#mask0_169_2377)">
    <rect x="-4.53516" y="-21.4285" width="211.966" height="89.0569" fill="#FE5000"/>
  </g>
</svg>
