<svg width="728" height="677" viewBox="0 0 728 677" fill="none" xmlns="http://www.w3.org/2000/svg">
<g clip-path="url(#clip0_291_487)">
<g style="mix-blend-mode:color-dodge">
<g opacity="0.85">
<path d="M559.59 550.431C559.59 547.925 557.561 545.891 555.056 545.891C552.551 545.891 550.522 547.923 550.522 550.431C550.522 552.939 552.551 554.971 555.056 554.971C557.561 554.971 559.59 552.939 559.59 550.431Z" fill="#FAFAFA"/>
<path d="M546 550.431C546 545.432 550.063 541.364 555.056 541.364C560.049 541.364 564.111 545.432 564.111 550.431C564.111 555.431 560.049 559.498 555.056 559.498C550.063 559.498 546 555.431 546 550.431ZM547.241 550.431C547.241 554.747 550.748 558.259 555.058 558.259C559.369 558.259 562.876 554.747 562.876 550.431C562.876 546.115 559.369 542.603 555.058 542.603C550.748 542.603 547.241 546.115 547.241 550.431Z" fill="#FAFAFA"/>
<path d="M108.565 94.904C108.565 92.398 106.536 90.3642 104.031 90.3642C101.526 90.3642 99.4976 92.3955 99.4976 94.904C99.4976 97.4124 101.526 99.4437 104.031 99.4437C106.536 99.4437 108.565 97.4124 108.565 94.904Z" fill="#FAFAFA"/>
<path d="M94.9785 94.904C94.9785 89.9043 99.0407 85.8368 104.034 85.8368C109.027 85.8368 113.089 89.9043 113.089 94.904C113.089 99.9036 109.027 103.971 104.034 103.971C99.0407 103.971 94.9785 99.9036 94.9785 94.904ZM96.2163 94.904C96.2163 99.2199 99.7235 102.729 104.031 102.729C108.339 102.729 111.846 99.2174 111.846 94.904C111.846 90.5905 108.339 87.0762 104.031 87.0762C99.7235 87.0762 96.2163 90.588 96.2163 94.904Z" fill="#FAFAFA"/>
<path d="M46.5461 615.719C46.5461 613.213 44.5174 611.179 42.0123 611.179C39.5072 611.179 37.4785 613.21 37.4785 615.719C37.4785 618.227 39.5072 620.258 42.0123 620.258C44.5174 620.258 46.5461 618.227 46.5461 615.719Z" fill="#FAFAFA"/>
<path d="M32.9595 615.716C32.9595 610.717 37.0217 606.649 42.0147 606.649C47.0078 606.649 51.07 610.717 51.07 615.716C51.07 620.716 47.0078 624.783 42.0147 624.783C37.0217 624.783 32.9595 620.716 32.9595 615.716ZM34.1973 615.716C34.1973 620.032 37.7045 623.544 42.0123 623.544C46.3201 623.544 49.8273 620.032 49.8273 615.716C49.8273 611.4 46.3201 607.891 42.0123 607.891C37.7045 607.891 34.1973 611.403 34.1973 615.716Z" fill="#FAFAFA"/>
<path d="M511.285 137.899C511.285 135.393 509.256 133.359 506.751 133.359C504.246 133.359 502.217 135.39 502.217 137.899C502.217 140.407 504.246 142.438 506.751 142.438C509.256 142.438 511.285 140.407 511.285 137.899Z" fill="#FAFAFA"/>
<path d="M497.696 137.899C497.696 132.899 501.758 128.831 506.751 128.831C511.744 128.831 515.806 132.899 515.806 137.899C515.806 142.898 511.744 146.966 506.751 146.966C501.758 146.966 497.696 142.898 497.696 137.899ZM498.936 137.899C498.936 142.215 502.443 145.726 506.754 145.726C511.064 145.726 514.571 142.215 514.571 137.899C514.571 133.583 511.064 130.071 506.754 130.071C502.443 130.071 498.936 133.583 498.936 137.899Z" fill="#FAFAFA"/>
<path d="M669.429 415.373C669.429 412.867 667.401 410.833 664.896 410.833C662.39 410.833 660.362 412.865 660.362 415.373C660.362 417.881 662.39 419.913 664.896 419.913C667.401 419.913 669.429 417.881 669.429 415.373Z" fill="#FAFAFA"/>
<path d="M157.051 170.446C157.051 167.94 155.023 165.907 152.518 165.907C150.013 165.907 147.984 167.938 147.984 170.446C147.984 172.955 150.013 174.986 152.518 174.986C155.023 174.986 157.051 172.955 157.051 170.446Z" fill="#FAFAFA"/>
<path d="M166.116 575.326C166.116 572.82 164.088 570.786 161.583 570.786C159.077 570.786 157.049 572.817 157.049 575.326C157.049 577.834 159.077 579.866 161.583 579.866C164.088 579.866 166.116 577.834 166.116 575.326Z" fill="#FAFAFA"/>
<path d="M407.983 469.112C407.983 466.606 405.954 464.572 403.449 464.572C400.944 464.572 398.916 466.604 398.916 469.112C398.916 471.62 400.944 473.652 403.449 473.652C405.954 473.652 407.983 471.62 407.983 469.112Z" fill="#FAFAFA"/>
<path d="M331.415 97.1738C331.415 95.9196 330.401 94.904 329.148 94.904C327.896 94.904 326.881 95.9196 326.881 97.1738C326.881 98.428 327.896 99.4437 329.148 99.4437C330.401 99.4437 331.415 98.428 331.415 97.1738Z" fill="#FAFAFA"/>
<path d="M548.886 370.145C548.886 368.891 547.872 367.875 546.619 367.875C545.367 367.875 544.353 368.891 544.353 370.145C544.353 371.4 545.367 372.415 546.619 372.415C547.872 372.415 548.886 371.4 548.886 370.145Z" fill="#FAFAFA"/>
<path d="M4.53377 15.4316C4.53377 14.1774 3.51945 13.1618 2.26689 13.1618C1.01433 13.1618 0 14.1774 0 15.4316C0 16.6858 1.01433 17.7015 2.26689 17.7015C3.51945 17.7015 4.53377 16.6858 4.53377 15.4316Z" fill="#FAFAFA"/>
<path d="M26.8492 236.241C26.8492 234.986 25.8349 233.971 24.5823 233.971C23.3298 233.971 22.3154 234.986 22.3154 236.241C22.3154 237.495 23.3298 238.51 24.5823 238.51C25.8349 238.51 26.8492 237.495 26.8492 236.241Z" fill="#FAFAFA"/>
<path d="M120.708 419.91C120.708 418.656 119.693 417.64 118.441 417.64C117.188 417.64 116.174 418.656 116.174 419.91C116.174 421.164 117.188 422.18 118.441 422.18C119.693 422.18 120.708 421.164 120.708 419.91Z" fill="#FAFAFA"/>
<path d="M273.765 664.013C273.765 662.759 272.751 661.743 271.498 661.743C270.246 661.743 269.231 662.759 269.231 664.013C269.231 665.267 270.246 666.283 271.498 666.283C272.751 666.283 273.765 665.267 273.765 664.013Z" fill="#FAFAFA"/>
<path d="M658.097 29.9706C658.097 28.7164 657.083 27.7007 655.83 27.7007C654.578 27.7007 653.563 28.7164 653.563 29.9706C653.563 31.2248 654.578 32.2404 655.83 32.2404C657.083 32.2404 658.097 31.2248 658.097 29.9706Z" fill="#FAFAFA"/>
<path d="M582.551 159.39C582.551 161.896 584.579 163.929 587.085 163.929C589.59 163.929 591.618 161.898 591.618 159.39C591.618 156.881 589.59 154.85 587.085 154.85C584.579 154.85 582.551 156.881 582.551 159.39Z" fill="#FAFAFA"/>
<path d="M578.029 159.39C578.029 154.39 582.091 150.323 587.085 150.323C592.078 150.323 596.14 154.39 596.14 159.39C596.14 164.389 592.078 168.457 587.085 168.457C582.091 168.457 578.029 164.389 578.029 159.39ZM579.267 159.39C579.267 163.706 582.774 167.217 587.085 167.217C591.395 167.217 594.902 163.706 594.902 159.39C594.902 155.074 591.395 151.562 587.085 151.562C582.774 151.562 579.267 155.074 579.267 159.39Z" fill="#FAFAFA"/>
<path d="M359.73 157.875C359.73 160.381 361.759 162.415 364.264 162.415C366.769 162.415 368.798 160.383 368.798 157.875C368.798 155.366 366.769 153.335 364.264 153.335C361.759 153.335 359.73 155.366 359.73 157.875Z" fill="#FAFAFA"/>
<path d="M355.209 157.875C355.209 152.875 359.271 148.808 364.264 148.808C369.257 148.808 373.32 152.875 373.32 157.875C373.32 162.874 369.257 166.942 364.264 166.942C359.271 166.942 355.209 162.874 355.209 157.875ZM356.447 157.875C356.447 162.191 359.954 165.7 364.264 165.7C368.575 165.7 372.082 162.188 372.082 157.875C372.082 153.561 368.575 150.047 364.264 150.047C359.954 150.047 356.447 153.559 356.447 157.875Z" fill="#FAFAFA"/>
<path d="M427.177 379.016C427.177 381.522 429.206 383.555 431.711 383.555C434.216 383.555 436.245 381.524 436.245 379.016C436.245 376.507 434.216 374.476 431.711 374.476C429.206 374.476 427.177 376.507 427.177 379.016Z" fill="#FAFAFA"/>
<path d="M422.653 379.016C422.653 374.016 426.716 369.949 431.709 369.949C436.702 369.949 440.764 374.016 440.764 379.016C440.764 384.015 436.702 388.083 431.709 388.083C426.716 388.083 422.653 384.015 422.653 379.016ZM423.894 379.016C423.894 383.332 427.401 386.843 431.709 386.843C436.016 386.843 439.526 383.332 439.526 379.016C439.526 374.7 436.019 371.188 431.709 371.188C427.398 371.188 423.894 374.7 423.894 379.016Z" fill="#FAFAFA"/>
<path d="M45.9175 292.781C45.9175 295.287 47.9461 297.32 50.4513 297.32C52.9564 297.32 54.985 295.289 54.985 292.781C54.985 290.272 52.9564 288.241 50.4513 288.241C47.9461 288.241 45.9175 290.272 45.9175 292.781Z" fill="#FAFAFA"/>
<path d="M41.3936 292.781C41.3936 287.781 45.4558 283.713 50.4488 283.713C55.4419 283.713 59.5041 287.781 59.5041 292.781C59.5041 297.78 55.4419 301.848 50.4488 301.848C45.4558 301.848 41.3936 297.78 41.3936 292.781ZM42.6338 292.781C42.6338 297.097 46.141 300.608 50.4488 300.608C54.7567 300.608 58.2663 297.097 58.2663 292.781C58.2663 288.465 54.7591 284.953 50.4488 284.953C46.1385 284.953 42.6338 288.465 42.6338 292.781Z" fill="#FAFAFA"/>
<path d="M91.0635 331.474C91.0635 333.98 93.0921 336.014 95.5972 336.014C98.1024 336.014 100.131 333.982 100.131 331.474C100.131 328.966 98.1024 326.934 95.5972 326.934C93.0921 326.934 91.0635 328.966 91.0635 331.474Z" fill="#FAFAFA"/>
<path d="M86.5396 331.474C86.5396 326.474 90.6018 322.407 95.5948 322.407C100.588 322.407 104.65 326.474 104.65 331.474C104.65 336.474 100.588 340.541 95.5948 340.541C90.6018 340.541 86.5396 336.474 86.5396 331.474ZM87.7798 331.474C87.7798 335.79 91.287 339.302 95.5973 339.302C99.9076 339.302 103.412 335.79 103.412 331.474C103.412 327.158 99.9051 323.646 95.5973 323.646C91.2895 323.646 87.7798 327.158 87.7798 331.474Z" fill="#FAFAFA"/>
<path d="M203.706 503.6C203.706 506.106 205.734 508.14 208.239 508.14C210.744 508.14 212.773 506.109 212.773 503.6C212.773 501.092 210.744 499.06 208.239 499.06C205.734 499.06 203.706 501.092 203.706 503.6Z" fill="#FAFAFA"/>
<path d="M199.182 503.6C199.182 498.6 203.244 494.533 208.237 494.533C213.23 494.533 217.292 498.6 217.292 503.6C217.292 508.6 213.23 512.667 208.237 512.667C203.244 512.667 199.182 508.6 199.182 503.6ZM200.422 503.6C200.422 507.916 203.929 511.425 208.237 511.425C212.545 511.425 216.054 507.914 216.054 503.6C216.054 499.287 212.547 495.772 208.237 495.772C203.927 495.772 200.422 499.284 200.422 503.6Z" fill="#FAFAFA"/>
<path d="M348.703 628.074C348.703 630.58 350.732 632.613 353.237 632.613C355.742 632.613 357.771 630.582 357.771 628.074C357.771 625.565 355.742 623.534 353.237 623.534C350.732 623.534 348.703 625.565 348.703 628.074Z" fill="#FAFAFA"/>
<path d="M344.179 628.074C344.179 623.074 348.241 619.007 353.234 619.007C358.228 619.007 362.29 623.074 362.29 628.074C362.29 633.073 358.228 637.141 353.234 637.141C348.241 637.141 344.179 633.073 344.179 628.074ZM345.419 628.074C345.419 632.39 348.927 635.901 353.234 635.901C357.542 635.901 361.052 632.39 361.052 628.074C361.052 623.758 357.545 620.246 353.234 620.246C348.924 620.246 345.419 623.758 345.419 628.074Z" fill="#FAFAFA"/>
<path d="M457.295 453.188C457.295 455.694 459.324 457.728 461.829 457.728C464.334 457.728 466.362 455.697 466.362 453.188C466.362 450.68 464.334 448.649 461.829 448.649C459.324 448.649 457.295 450.68 457.295 453.188Z" fill="#FAFAFA"/>
<path d="M452.771 453.191C452.771 448.191 456.833 444.124 461.826 444.124C466.819 444.124 470.882 448.191 470.882 453.191C470.882 458.19 466.819 462.258 461.826 462.258C456.833 462.258 452.771 458.19 452.771 453.191ZM454.011 453.191C454.011 457.507 457.518 461.016 461.829 461.016C466.139 461.016 469.644 457.504 469.644 453.191C469.644 448.877 466.137 445.363 461.829 445.363C457.521 445.363 454.011 448.875 454.011 453.191Z" fill="#FAFAFA"/>
<path d="M109.375 264.539C109.375 267.045 111.404 269.079 113.909 269.079C116.414 269.079 118.443 267.047 118.443 264.539C118.443 262.03 116.414 259.999 113.909 259.999C111.404 259.999 109.375 262.03 109.375 264.539Z" fill="#FAFAFA"/>
<path d="M104.854 264.539C104.854 259.539 108.916 255.472 113.909 255.472C118.902 255.472 122.965 259.539 122.965 264.539C122.965 269.538 118.902 273.606 113.909 273.606C108.916 273.606 104.854 269.538 104.854 264.539ZM106.092 264.539C106.092 268.855 109.599 272.367 113.909 272.367C118.22 272.367 121.724 268.855 121.724 264.539C121.724 260.223 118.217 256.714 113.909 256.714C109.601 256.714 106.092 260.225 106.092 264.539Z" fill="#FAFAFA"/>
<path d="M253.42 326.937C253.42 329.443 255.449 331.476 257.954 331.476C260.459 331.476 262.487 329.445 262.487 326.937C262.487 324.428 260.459 322.397 257.954 322.397C255.449 322.397 253.42 324.428 253.42 326.937Z" fill="#FAFAFA"/>
<path d="M68.3032 306.05C70.6165 305.091 71.7151 302.435 70.7569 300.119C69.7986 297.802 67.1465 296.702 64.8332 297.662C62.5199 298.621 61.4213 301.277 62.3795 303.593C63.3377 305.91 65.9899 307.01 68.3032 306.05Z" fill="#FAFAFA"/>
<path d="M76.6396 320.253C76.6396 322.759 78.6683 324.792 81.1734 324.792C83.6785 324.792 85.7072 322.761 85.7072 320.253C85.7072 317.744 83.6785 315.713 81.1734 315.713C78.6683 315.713 76.6396 317.744 76.6396 320.253Z" fill="#FAFAFA"/>
<path d="M81.1733 278.66C81.1733 281.166 83.202 283.199 85.7071 283.199C88.2122 283.199 90.2409 281.168 90.2409 278.66C90.2409 276.151 88.2122 274.12 85.7071 274.12C83.202 274.12 81.1733 276.151 81.1733 278.66Z" fill="#FAFAFA"/>
<path d="M651.299 214.107C651.299 216.613 653.328 218.647 655.833 218.647C658.338 218.647 660.367 216.616 660.367 214.107C660.367 211.599 658.338 209.568 655.833 209.568C653.328 209.568 651.299 211.599 651.299 214.107Z" fill="#FAFAFA"/>
<path d="M597.24 125.61C597.24 128.116 599.269 130.15 601.774 130.15C604.279 130.15 606.308 128.118 606.308 125.61C606.308 123.101 604.279 121.07 601.774 121.07C599.269 121.07 597.24 123.101 597.24 125.61Z" fill="#FAFAFA"/>
<path d="M475.919 202.837C475.919 205.343 477.948 207.377 480.453 207.377C482.958 207.377 484.986 205.345 484.986 202.837C484.986 200.328 482.958 198.297 480.453 198.297C477.948 198.297 475.919 200.328 475.919 202.837Z" fill="#FAFAFA"/>
<path d="M138.921 253.952C138.921 256.458 140.95 258.492 143.455 258.492C145.96 258.492 147.989 256.46 147.989 253.952C147.989 251.443 145.96 249.412 143.455 249.412C140.95 249.412 138.921 251.443 138.921 253.952Z" fill="#FAFAFA"/>
<path d="M237.812 482.611C237.812 485.117 239.841 487.15 242.346 487.15C244.851 487.15 246.88 485.119 246.88 482.611C246.88 480.102 244.851 478.071 242.346 478.071C239.841 478.071 237.812 480.102 237.812 482.611Z" fill="#FAFAFA"/>
<path d="M289.354 370.145C289.354 372.651 291.382 374.685 293.887 374.685C296.392 374.685 298.421 372.654 298.421 370.145C298.421 367.637 296.392 365.606 293.887 365.606C291.382 365.606 289.354 367.637 289.354 370.145Z" fill="#FAFAFA"/>
<path d="M269.068 407.213C271.505 406.637 273.014 404.192 272.439 401.752C271.864 399.312 269.422 397.801 266.985 398.377C264.548 398.953 263.039 401.398 263.614 403.838C264.189 406.278 266.631 407.789 269.068 407.213Z" fill="#FAFAFA"/>
<path d="M360.344 672.46C360.344 674.966 362.373 677 364.878 677C367.383 677 369.412 674.969 369.412 672.46C369.412 669.952 367.383 667.921 364.878 667.921C362.373 667.921 360.344 669.952 360.344 672.46Z" fill="#FAFAFA"/>
<path d="M289.354 469.112C289.354 471.618 291.382 473.652 293.887 473.652C296.392 473.652 298.421 471.62 298.421 469.112C298.421 466.604 296.392 464.572 293.887 464.572C291.382 464.572 289.354 466.604 289.354 469.112Z" fill="#FAFAFA"/>
<path d="M309.133 329.226C311.57 328.65 313.079 326.205 312.504 323.765C311.929 321.325 309.487 319.814 307.05 320.39C304.613 320.966 303.104 323.411 303.679 325.851C304.254 328.291 306.696 329.802 309.133 329.226Z" fill="#FAFAFA"/>
<path d="M398.916 365.606C398.916 368.112 400.945 370.145 403.45 370.145C405.955 370.145 407.984 368.114 407.984 365.606C407.984 363.097 405.955 361.066 403.45 361.066C400.945 361.066 398.916 363.097 398.916 365.606Z" fill="#FAFAFA"/>
<path d="M571.728 258.492C571.728 260.998 573.756 263.031 576.261 263.031C578.766 263.031 580.795 261 580.795 258.492C580.795 255.983 578.766 253.952 576.261 253.952C573.756 253.952 571.728 255.983 571.728 258.492Z" fill="#FAFAFA"/>
<path d="M502.22 295.048C502.22 297.554 504.249 299.588 506.754 299.588C509.259 299.588 511.288 297.556 511.288 295.048C511.288 292.54 509.259 290.508 506.754 290.508C504.249 290.508 502.22 292.54 502.22 295.048Z" fill="#FAFAFA"/>
<path d="M50.4487 293.4H350.879L417.36 226.832H543.766L575.821 258.929L576.698 258.051L544.279 225.592H416.847L350.366 292.161H50.4487V293.4Z" fill="#FAFAFA"/>
<path d="M66.5674 303.717H329.232L395.21 237.655H511.55L588.398 160.705L585.771 158.074L510.013 233.931H393.67L327.692 299.996H66.5674V303.717Z" fill="#FAFAFA"/>
<path d="M85.7046 279.279H387.142L451.609 214.727H655.831V213.488H451.096L386.628 278.037H85.7046V279.279Z" fill="#FAFAFA"/>
<path d="M430.394 380.331L433.022 377.7L368.515 313.109H290.422L278.336 325.21H257.951V328.934H279.873L291.962 316.829H366.975L430.394 380.331Z" fill="#FAFAFA"/>
<path d="M461.924 295.67H506.751V294.428H462.435L431.966 263.919H113.909V265.159H431.453L461.924 295.67Z" fill="#FAFAFA"/>
<path d="M143.453 254.572H364.247L396.816 221.96V189.594L364.701 157.437L363.825 158.315L395.578 190.108V221.446L363.734 253.332H143.453V254.572Z" fill="#FAFAFA"/>
<path d="M480.453 203.459H524.904L602.211 126.048L601.334 125.172L524.39 202.217H480.453V203.459Z" fill="#FAFAFA"/>
<path d="M403.012 366.046L403.887 365.168L362.945 324.173H306.86V325.412H362.432L403.012 366.046Z" fill="#FAFAFA"/>
<path d="M461.389 453.629L462.266 452.751L359.986 350.339H252.288L221.622 319.633H81.1733V320.872H221.111L251.774 351.578H359.475L461.389 453.629Z" fill="#FAFAFA"/>
<path d="M243.981 483.924L278.903 448.959V393.901L214.701 329.615H95.5972V333.336H213.163L275.187 395.441V447.417L241.353 481.292L243.981 483.924Z" fill="#FAFAFA"/>
<path d="M208.677 504.038L268.659 443.976V402.779H267.419V443.462L207.8 503.162L208.677 504.038Z" fill="#FAFAFA"/>
<path d="M352.615 628.074H353.853V506.116L294.506 446.691V370.145H293.266V447.203L352.615 506.63V628.074Z" fill="#FAFAFA"/>
<path d="M364.257 672.46H365.495V539.938L294.325 468.674L293.448 469.55L364.257 540.452V672.46Z" fill="#FAFAFA"/>
</g>
<g opacity="0.23">
<path d="M151.442 560.325C153.945 560.325 155.976 558.293 155.976 555.785C155.976 553.276 153.947 551.245 151.442 551.245C148.937 551.245 146.908 553.276 146.908 555.785C146.908 558.293 148.937 560.325 151.442 560.325Z" fill="#FAFAFA"/>
<path d="M142.384 555.785C142.384 550.785 146.446 546.718 151.44 546.718C156.433 546.718 160.495 550.785 160.495 555.785C160.495 560.784 156.433 564.852 151.44 564.852C146.446 564.852 142.384 560.784 142.384 555.785ZM143.625 555.785C143.625 560.101 147.132 563.613 151.442 563.613C155.752 563.613 159.259 560.101 159.259 555.785C159.259 551.469 155.752 547.96 151.442 547.96C147.132 547.96 143.625 551.471 143.625 555.785Z" fill="#FAFAFA"/>
<path d="M606.372 108.708C608.874 108.708 610.905 106.676 610.905 104.168C610.905 101.659 608.877 99.6281 606.372 99.6281C603.867 99.6281 601.838 101.659 601.838 104.168C601.838 106.676 603.867 108.708 606.372 108.708Z" fill="#FAFAFA"/>
<path d="M597.316 104.17C597.316 99.1707 601.379 95.1031 606.372 95.1031C611.365 95.1031 615.427 99.1707 615.427 104.17C615.427 109.17 611.365 113.237 606.372 113.237C601.379 113.237 597.316 109.17 597.316 104.17ZM598.554 104.17C598.554 108.486 602.061 111.998 606.369 111.998C610.677 111.998 614.187 108.486 614.187 104.17C614.187 99.8544 610.679 96.3451 606.369 96.3451C602.059 96.3451 598.554 99.8568 598.554 104.17Z" fill="#FAFAFA"/>
<path d="M86.2398 46.6072C88.7425 46.6072 90.7736 44.5759 90.7736 42.0675C90.7736 39.5591 88.745 37.5278 86.2398 37.5278C83.7347 37.5278 81.7061 39.5591 81.7061 42.0675C81.7061 44.5759 83.7347 46.6072 86.2398 46.6072Z" fill="#FAFAFA"/>
<path d="M77.1846 42.07C77.1846 37.0704 81.2468 33.0028 86.2398 33.0028C91.2329 33.0028 95.2951 37.0704 95.2951 42.07C95.2951 47.0696 91.2329 51.1371 86.2398 51.1371C81.2468 51.1371 77.1846 47.0696 77.1846 42.07ZM78.4249 42.07C78.4249 46.3859 81.932 49.8977 86.2398 49.8977C90.5477 49.8977 94.0573 46.3859 94.0573 42.07C94.0573 37.754 90.5501 34.2423 86.2398 34.2423C81.9296 34.2423 78.4249 37.754 78.4249 42.07Z" fill="#FAFAFA"/>
<path d="M563.433 511.957C565.936 511.957 567.967 509.925 567.967 507.417C567.967 504.908 565.938 502.877 563.433 502.877C560.928 502.877 558.899 504.908 558.899 507.417C558.899 509.925 560.928 511.957 563.433 511.957Z" fill="#FAFAFA"/>
<path d="M554.378 507.419C554.378 502.42 558.44 498.352 563.433 498.352C568.426 498.352 572.488 502.42 572.488 507.419C572.488 512.419 568.426 516.486 563.433 516.486C558.44 516.486 554.378 512.419 554.378 507.419ZM555.616 507.419C555.616 511.735 559.123 515.244 563.433 515.244C567.744 515.244 571.251 511.733 571.251 507.419C571.251 503.106 567.744 499.592 563.433 499.592C559.123 499.592 555.616 503.103 555.616 507.419Z" fill="#FAFAFA"/>
<path d="M286.323 670.308C288.826 670.308 290.857 668.277 290.857 665.769C290.857 663.26 288.828 661.229 286.323 661.229C283.818 661.229 281.789 663.26 281.789 665.769C281.789 668.277 283.818 670.308 286.323 670.308Z" fill="#FAFAFA"/>
<path d="M530.928 157.258C533.431 157.258 535.462 155.226 535.462 152.718C535.462 150.209 533.433 148.178 530.928 148.178C528.423 148.178 526.395 150.209 526.395 152.718C526.395 155.226 528.423 157.258 530.928 157.258Z" fill="#FAFAFA"/>
<path d="M126.58 166.335C129.082 166.335 131.113 164.303 131.113 161.795C131.113 159.286 129.085 157.255 126.58 157.255C124.075 157.255 122.046 159.286 122.046 161.795C122.046 164.303 124.075 166.335 126.58 166.335Z" fill="#FAFAFA"/>
<path d="M233.68 408.413C236.117 407.837 237.626 405.392 237.051 402.951C236.476 400.511 234.034 399 231.597 399.576C229.16 400.152 227.651 402.597 228.226 405.037C228.801 407.477 231.243 408.988 233.68 408.413Z" fill="#FAFAFA"/>
<path d="M643.591 427.04C645.361 425.267 645.361 422.392 643.591 420.62C641.82 418.847 638.95 418.847 637.179 420.62C635.408 422.392 635.408 425.267 637.179 427.04C638.95 428.813 641.82 428.813 643.591 427.04Z" fill="#FAFAFA"/>
<path d="M604.105 331.85C605.357 331.85 606.372 330.835 606.372 329.58C606.372 328.326 605.357 327.311 604.105 327.311C602.852 327.311 601.838 328.326 601.838 329.58C601.838 330.835 602.852 331.85 604.105 331.85Z" fill="#FAFAFA"/>
<path d="M725.733 501.242C726.985 501.242 728 500.225 728 498.972C728 497.718 726.985 496.702 725.733 496.702C724.481 496.702 723.466 497.718 723.466 498.972C723.466 500.225 724.481 501.242 725.733 501.242Z" fill="#FAFAFA"/>
<path d="M331.491 549.61C332.744 549.61 333.758 548.594 333.758 547.34C333.758 546.086 332.744 545.07 331.491 545.07C330.238 545.07 329.224 546.086 329.224 547.34C329.224 548.594 330.238 549.61 331.491 549.61Z" fill="#FAFAFA"/>
<path d="M685.74 4.53973C686.992 4.53973 688.006 3.52407 688.006 2.26986C688.006 1.01566 686.992 0 685.74 0C684.487 0 683.473 1.01566 683.473 2.26986C683.473 3.52407 684.487 4.53973 685.74 4.53973Z" fill="#FAFAFA"/>
<path d="M465.22 26.8842C466.472 26.8842 467.487 25.868 467.487 24.6144C467.487 23.3608 466.472 22.3445 465.22 22.3445C463.969 22.3445 462.954 23.3608 462.954 24.6144C462.954 25.868 463.969 26.8842 465.22 26.8842Z" fill="#FAFAFA"/>
<path d="M281.792 120.866C283.044 120.866 284.059 119.85 284.059 118.596C284.059 117.342 283.044 116.326 281.792 116.326C280.539 116.326 279.525 117.342 279.525 118.596C279.525 119.85 280.539 120.866 281.792 120.866Z" fill="#FAFAFA"/>
<path d="M38.0091 274.125C39.2616 274.125 40.276 273.109 40.276 271.855C40.276 270.601 39.2616 269.585 38.0091 269.585C36.7565 269.585 35.7422 270.601 35.7422 271.855C35.7422 273.109 36.7565 274.125 38.0091 274.125Z" fill="#FAFAFA"/>
<path d="M671.22 658.962C672.473 658.962 673.487 657.946 673.487 656.692C673.487 655.438 672.473 654.422 671.22 654.422C669.967 654.422 668.953 655.438 668.953 656.692C668.953 657.946 669.967 658.962 671.22 658.962Z" fill="#FAFAFA"/>
<path d="M541.97 583.316C539.468 583.316 537.437 585.347 537.437 587.856C537.437 590.364 539.465 592.395 541.97 592.395C544.475 592.395 546.504 590.364 546.504 587.856C546.504 585.347 544.475 583.316 541.97 583.316Z" fill="#FAFAFA"/>
<path d="M532.913 587.856C532.913 582.856 536.975 578.788 541.968 578.788C546.961 578.788 551.023 582.856 551.023 587.856C551.023 592.855 546.961 596.923 541.968 596.923C536.975 596.923 532.913 592.855 532.913 587.856ZM534.153 587.856C534.153 592.171 537.66 595.683 541.97 595.683C546.281 595.683 549.788 592.171 549.788 587.856C549.788 583.54 546.281 580.03 541.97 580.03C537.66 580.03 534.153 583.542 534.153 587.856Z" fill="#FAFAFA"/>
<path d="M543.483 360.203C540.981 360.203 538.95 362.234 538.95 364.742C538.95 367.251 540.978 369.282 543.483 369.282C545.989 369.282 548.017 367.251 548.017 364.742C548.017 362.234 545.989 360.203 543.483 360.203Z" fill="#FAFAFA"/>
<path d="M534.428 364.742C534.428 359.743 538.49 355.675 543.483 355.675C548.477 355.675 552.539 359.743 552.539 364.742C552.539 369.742 548.477 373.81 543.483 373.81C538.49 373.81 534.428 369.742 534.428 364.742ZM535.666 364.742C535.666 369.058 539.173 372.568 543.483 372.568C547.794 372.568 551.301 369.056 551.301 364.742C551.301 360.429 547.794 356.917 543.483 356.917C539.173 356.917 535.666 360.429 535.666 364.742Z" fill="#FAFAFA"/>
<path d="M322.632 427.738C320.13 427.738 318.099 429.769 318.099 432.278C318.099 434.786 320.127 436.817 322.632 436.817C325.138 436.817 327.166 434.786 327.166 432.278C327.166 429.769 325.138 427.738 322.632 427.738Z" fill="#FAFAFA"/>
<path d="M313.577 432.278C313.577 427.278 317.639 423.21 322.632 423.21C327.625 423.21 331.688 427.278 331.688 432.278C331.688 437.277 327.625 441.345 322.632 441.345C317.639 441.345 313.577 437.277 313.577 432.278ZM314.815 432.278C314.815 436.594 318.322 440.103 322.632 440.103C326.943 440.103 330.447 436.591 330.447 432.278C330.447 427.964 326.94 424.45 322.632 424.45C318.325 424.45 314.815 427.962 314.815 432.278Z" fill="#FAFAFA"/>
<path d="M408.754 45.9777C406.252 45.9777 404.221 48.009 404.221 50.5174C404.221 53.0258 406.249 55.0571 408.754 55.0571C411.26 55.0571 413.288 53.0258 413.288 50.5174C413.288 48.009 411.26 45.9777 408.754 45.9777Z" fill="#FAFAFA"/>
<path d="M399.699 50.5174C399.699 45.5178 403.761 41.4502 408.755 41.4502C413.748 41.4502 417.81 45.5178 417.81 50.5174C417.81 55.517 413.748 59.5845 408.755 59.5845C403.761 59.5845 399.699 55.517 399.699 50.5174ZM400.94 50.5174C400.94 54.8333 404.447 58.3426 408.757 58.3426C413.067 58.3426 416.574 54.8309 416.574 50.5174C416.574 46.2039 413.067 42.6897 408.757 42.6897C404.447 42.6897 400.94 46.2014 400.94 50.5174Z" fill="#FAFAFA"/>
<path d="M373.318 98.9319C375.089 97.159 375.089 94.2846 373.318 92.5117C371.548 90.7388 368.677 90.7388 366.907 92.5117C365.136 94.2846 365.136 97.159 366.907 98.9318C368.677 100.705 371.548 100.705 373.318 98.9319Z" fill="#FAFAFA"/>
<path d="M361.057 95.7229C361.057 90.7233 365.119 86.6557 370.112 86.6557C375.105 86.6557 379.167 90.7233 379.167 95.7229C379.167 100.722 375.105 104.79 370.112 104.79C365.119 104.79 361.057 100.722 361.057 95.7229ZM362.294 95.7229C362.294 100.039 365.802 103.548 370.109 103.548C374.417 103.548 377.927 100.036 377.927 95.7229C377.927 91.4094 374.42 87.8952 370.109 87.8952C365.799 87.8952 362.294 91.4069 362.294 95.7229Z" fill="#FAFAFA"/>
<path d="M198.212 203.973C195.709 203.973 193.678 206.004 193.678 208.513C193.678 211.021 195.706 213.052 198.212 213.052C200.717 213.052 202.745 211.021 202.745 208.513C202.745 206.004 200.717 203.973 198.212 203.973Z" fill="#FAFAFA"/>
<path d="M189.156 208.513C189.156 203.513 193.218 199.446 198.212 199.446C203.205 199.446 207.267 203.513 207.267 208.513C207.267 213.512 203.205 217.58 198.212 217.58C193.218 217.58 189.156 213.512 189.156 208.513ZM190.397 208.513C190.397 212.829 193.904 216.34 198.214 216.34C202.524 216.34 206.029 212.829 206.029 208.513C206.029 204.197 202.522 200.685 198.214 200.685C193.906 200.685 190.397 204.197 190.397 208.513Z" fill="#FAFAFA"/>
<path d="M73.901 349.161C71.3983 349.161 69.3672 351.192 69.3672 353.7C69.3672 356.209 71.3958 358.24 73.901 358.24C76.4061 358.24 78.4347 356.209 78.4347 353.7C78.4347 351.192 76.4061 349.161 73.901 349.161Z" fill="#FAFAFA"/>
<path d="M64.8457 353.698C64.8457 348.698 68.9079 344.631 73.901 344.631C78.894 344.631 82.9562 348.698 82.9562 353.698C82.9562 358.698 78.894 362.765 73.901 362.765C68.9079 362.765 64.8457 358.698 64.8457 353.698ZM66.086 353.698C66.086 358.014 69.5931 361.526 73.901 361.526C78.2088 361.526 81.716 358.014 81.716 353.698C81.716 349.382 78.2088 345.87 73.901 345.87C69.5931 345.87 66.086 349.382 66.086 353.698Z" fill="#FAFAFA"/>
<path d="M248.557 457.895C246.055 457.895 244.023 459.927 244.023 462.435C244.023 464.944 246.052 466.975 248.557 466.975C251.062 466.975 253.091 464.944 253.091 462.435C253.091 459.927 251.062 457.895 248.557 457.895Z" fill="#FAFAFA"/>
<path d="M239.502 462.433C239.502 457.433 243.564 453.365 248.557 453.365C253.55 453.365 257.613 457.433 257.613 462.433C257.613 467.432 253.55 471.5 248.557 471.5C243.564 471.5 239.502 467.432 239.502 462.433ZM240.74 462.433C240.74 466.749 244.247 470.26 248.555 470.26C252.863 470.26 256.372 466.749 256.372 462.433C256.372 458.117 252.865 454.605 248.555 454.605C244.244 454.605 240.74 458.117 240.74 462.433Z" fill="#FAFAFA"/>
<path d="M436.96 109.519C434.457 109.519 432.426 111.55 432.426 114.059C432.426 116.567 434.454 118.599 436.96 118.599C439.465 118.599 441.493 116.567 441.493 114.059C441.493 111.55 439.465 109.519 436.96 109.519Z" fill="#FAFAFA"/>
<path d="M427.904 114.059C427.904 109.059 431.967 104.992 436.96 104.992C441.953 104.992 446.015 109.059 446.015 114.059C446.015 119.058 441.953 123.126 436.96 123.126C431.967 123.126 427.904 119.058 427.904 114.059ZM429.142 114.059C429.142 118.375 432.649 121.887 436.96 121.887C441.27 121.887 444.775 118.375 444.775 114.059C444.775 109.743 441.267 106.231 436.96 106.231C432.652 106.231 429.142 109.743 429.142 114.059Z" fill="#FAFAFA"/>
<path d="M374.643 262.83C377.147 262.83 379.177 260.797 379.177 258.29C379.177 255.783 377.147 253.75 374.643 253.75C372.139 253.75 370.109 255.783 370.109 258.29C370.109 260.797 372.139 262.83 374.643 262.83Z" fill="#FAFAFA"/>
<path d="M399.69 62.1151C397.187 62.1151 395.156 64.1464 395.156 66.6548C395.156 69.1632 397.184 71.1945 399.69 71.1945C402.195 71.1945 404.223 69.1632 404.223 66.6548C404.223 64.1464 402.195 62.1151 399.69 62.1151Z" fill="#FAFAFA"/>
<path d="M381.318 76.7401C378.816 76.7401 376.785 78.7714 376.785 81.2798C376.785 83.7883 378.813 85.8196 381.318 85.8196C383.824 85.8196 385.852 83.7883 385.852 81.2798C385.852 78.7714 383.824 76.7401 381.318 76.7401Z" fill="#FAFAFA"/>
<path d="M422.857 81.2798C420.354 81.2798 418.323 83.3112 418.323 85.8196C418.323 88.328 420.352 90.3593 422.857 90.3593C425.362 90.3593 427.391 88.328 427.391 85.8196C427.391 83.3112 425.362 81.2798 422.857 81.2798Z" fill="#FAFAFA"/>
<path d="M487.324 652.155C484.822 652.155 482.791 654.186 482.791 656.694C482.791 659.203 484.819 661.234 487.324 661.234C489.829 661.234 491.858 659.203 491.858 656.694C491.858 654.186 489.829 652.155 487.324 652.155Z" fill="#FAFAFA"/>
<path d="M575.706 598.024C573.203 598.024 571.172 600.056 571.172 602.564C571.172 605.073 573.201 607.104 575.706 607.104C578.211 607.104 580.24 605.073 580.24 602.564C580.24 600.056 578.211 598.024 575.706 598.024Z" fill="#FAFAFA"/>
<path d="M498.58 476.544C496.078 476.544 494.046 478.575 494.046 481.083C494.046 483.592 496.075 485.623 498.58 485.623C501.085 485.623 503.114 483.592 503.114 481.083C503.114 478.575 501.085 476.544 498.58 476.544Z" fill="#FAFAFA"/>
<path d="M447.532 139.104C445.03 139.104 442.999 141.135 442.999 143.643C442.999 146.152 445.027 148.183 447.532 148.183C450.037 148.183 452.066 146.152 452.066 143.643C452.066 141.135 450.037 139.104 447.532 139.104Z" fill="#FAFAFA"/>
<path d="M219.173 238.124C216.671 238.124 214.64 240.156 214.64 242.664C214.64 245.172 216.668 247.204 219.173 247.204C221.679 247.204 223.707 245.172 223.707 242.664C223.707 240.156 221.679 238.124 219.173 238.124Z" fill="#FAFAFA"/>
<path d="M331.491 289.734C328.989 289.734 326.958 291.765 326.958 294.273C326.958 296.782 328.986 298.813 331.491 298.813C333.996 298.813 336.025 296.782 336.025 294.273C336.025 291.765 333.996 289.734 331.491 289.734Z" fill="#FAFAFA"/>
<path d="M299.933 272.827C302.37 272.251 303.879 269.806 303.304 267.365C302.729 264.925 300.287 263.414 297.85 263.99C295.413 264.566 293.904 267.011 294.479 269.451C295.054 271.891 297.496 273.402 299.933 272.827Z" fill="#FAFAFA"/>
<path d="M29.5728 360.817C27.0702 360.817 25.0391 362.849 25.0391 365.357C25.0391 367.866 27.0677 369.897 29.5728 369.897C32.078 369.897 34.1066 367.866 34.1066 365.357C34.1066 362.849 32.078 360.817 29.5728 360.817Z" fill="#FAFAFA"/>
<path d="M232.654 289.734C230.152 289.734 228.121 291.765 228.121 294.273C228.121 296.782 230.149 298.813 232.654 298.813C235.159 298.813 237.188 296.782 237.188 294.273C237.188 291.765 235.159 289.734 232.654 289.734Z" fill="#FAFAFA"/>
<path d="M376.785 303.968C374.282 303.968 372.251 305.999 372.251 308.507C372.251 311.016 374.28 313.047 376.785 313.047C379.29 313.047 381.319 311.016 381.319 308.507C381.319 305.999 379.29 303.968 376.785 303.968Z" fill="#FAFAFA"/>
<path d="M336.025 399.44C333.522 399.44 331.491 401.471 331.491 403.979C331.491 406.488 333.52 408.519 336.025 408.519C338.53 408.519 340.559 406.488 340.559 403.979C340.559 401.471 338.53 399.44 336.025 399.44Z" fill="#FAFAFA"/>
<path d="M442.999 572.478C440.496 572.478 438.465 574.509 438.465 577.018C438.465 579.526 440.493 581.557 442.999 581.557C445.504 581.557 447.532 579.526 447.532 577.018C447.532 574.509 445.504 572.478 442.999 572.478Z" fill="#FAFAFA"/>
<path d="M406.49 502.879C403.988 502.879 401.957 504.911 401.957 507.419C401.957 509.928 403.985 511.959 406.49 511.959C408.995 511.959 411.024 509.928 411.024 507.419C411.024 504.911 408.995 502.879 406.49 502.879Z" fill="#FAFAFA"/>
<path d="M443.438 577.453L475.855 544.994V417.394L409.376 350.826V50.5174H408.135V351.34L474.617 417.908V544.48L442.561 576.578L443.438 577.453Z" fill="#FAFAFA"/>
<path d="M540.656 589.171L543.284 586.54L467.526 510.683V394.187L401.548 328.122V66.6548H397.83V329.664L463.808 395.729V512.225L540.656 589.171Z" fill="#FAFAFA"/>
<path d="M486.705 656.694H487.943V451.688L423.476 387.136V85.8171H422.238V387.65L486.705 452.202V656.694Z" fill="#FAFAFA"/>
<path d="M323.946 433.593L388.453 368.999V290.803L376.365 278.702V258.29H372.649V280.241L384.737 292.345V367.46L321.318 430.962L323.946 433.593Z" fill="#FAFAFA"/>
<path d="M405.869 507.419H407.109V463.043L437.578 432.533V114.059H436.34V432.019L405.869 462.529V507.419Z" fill="#FAFAFA"/>
<path d="M479.482 397.337H511.805L543.92 365.18L543.043 364.302L511.292 396.098H479.995L448.151 364.209V143.641H446.913V364.723L479.482 397.337Z" fill="#FAFAFA"/>
<path d="M575.269 603.002L576.143 602.126L499.199 525.079V481.083H497.959V525.593L575.269 603.002Z" fill="#FAFAFA"/>
<path d="M336.462 404.417L377.404 363.422V307.263H376.166V362.908L335.585 403.542L336.462 404.417Z" fill="#FAFAFA"/>
<path d="M248.994 462.873L351.272 360.461V252.619L381.938 221.913V81.2798H380.7V221.399L350.034 252.105V359.947L248.118 461.995L248.994 462.873Z" fill="#FAFAFA"/>
<path d="M252.781 279.27H307.766L371.968 214.983V95.7229H368.253V213.444L306.229 275.549H254.321L220.487 241.671L217.859 244.302L252.781 279.27Z" fill="#FAFAFA"/>
<path d="M257.757 269.012H298.9V267.773H258.271L198.651 208.073L197.774 208.951L257.757 269.012Z" fill="#FAFAFA"/>
<path d="M73.9014 354.32H195.699L255.049 294.893H331.491V293.654H254.535L195.186 353.078H73.9014V354.32Z" fill="#FAFAFA"/>
<path d="M29.5728 365.974H161.922L233.094 294.711L232.217 293.833L161.408 364.735H29.5728V365.974Z" fill="#FAFAFA"/>
</g>
</g>
</g>
<defs>
<clipPath id="clip0_291_487">
<rect width="728" height="677" fill="white"/>
</clipPath>
</defs>
</svg>
