<svg width="84" height="90" viewBox="0 0 84 90" fill="none" xmlns="http://www.w3.org/2000/svg">
<rect x="1.95972" y="1.95972" width="80.0806" height="86.0806" rx="17.0403" fill="#FE5000" stroke="#FE5000" stroke-width="3.91943"/>
<path d="M59.25 75C58.6 75 58.063 74.787 57.639 74.361C57.215 73.935 57.002 73.398 57 72.75C57 72.1 57.213 71.563 57.639 71.139C58.065 70.715 58.602 70.502 59.25 70.5H64.5V68.25H62.25C61.6 68.25 61.063 68.037 60.639 67.611C60.215 67.185 60.002 66.648 60 66C60 65.35 60.213 64.813 60.639 64.389C61.065 63.965 61.602 63.752 62.25 63.75H64.5V61.5H59.25C58.6 61.5 58.063 61.287 57.639 60.861C57.215 60.435 57.002 59.898 57 59.25C57 58.6 57.213 58.063 57.639 57.639C58.065 57.215 58.602 57.002 59.25 57H66C66.85 57 67.563 57.288 68.139 57.864C68.715 58.44 69.002 59.152 69 60V63C69 63.85 68.712 64.563 68.136 65.139C67.56 65.715 66.848 66.002 66 66C66.85 66 67.563 66.288 68.139 66.864C68.715 67.44 69.002 68.152 69 69V72C69 72.85 68.712 73.563 68.136 74.139C67.56 74.715 66.848 75.002 66 75H59.25ZM59.25 54C58.6 54 58.063 53.787 57.639 53.361C57.215 52.935 57.002 52.398 57 51.75V45.75C57 44.9 57.288 44.187 57.864 43.611C58.44 43.035 59.152 42.748 60 42.75H64.5V40.5H59.25C58.6 40.5 58.063 40.287 57.639 39.861C57.215 39.435 57.002 38.898 57 38.25C57 37.6 57.213 37.063 57.639 36.639C58.065 36.215 58.602 36.002 59.25 36H66C66.85 36 67.563 36.288 68.139 36.864C68.715 37.44 69.002 38.152 69 39V44.25C69 45.1 68.712 45.813 68.136 46.389C67.56 46.965 66.848 47.252 66 47.25H61.5V49.5H66.75C67.4 49.5 67.937 49.713 68.361 50.139C68.785 50.565 68.998 51.102 69 51.75C69 52.4 68.787 52.937 68.361 53.361C67.935 53.785 67.398 53.998 66.75 54H59.25ZM63.75 33C63.1 33 62.563 32.787 62.139 32.361C61.715 31.935 61.502 31.398 61.5 30.75V19.5H59.25C58.6 19.5 58.063 19.287 57.639 18.861C57.215 18.435 57.002 17.898 57 17.25C57 16.6 57.213 16.063 57.639 15.639C58.065 15.215 58.602 15.002 59.25 15H63.75C64.4 15 64.937 15.213 65.361 15.639C65.785 16.065 65.998 16.602 66 17.25V30.75C66 31.4 65.787 31.937 65.361 32.361C64.935 32.785 64.398 32.998 63.75 33ZM18 66C17.15 66 16.437 65.712 15.861 65.136C15.285 64.56 14.998 63.848 15 63C15 62.15 15.288 61.437 15.864 60.861C16.44 60.285 17.152 59.998 18 60H48C48.85 60 49.563 60.288 50.139 60.864C50.715 61.44 51.002 62.152 51 63C51 63.85 50.712 64.563 50.136 65.139C49.56 65.715 48.848 66.002 48 66H18ZM18 48C17.15 48 16.437 47.712 15.861 47.136C15.285 46.56 14.998 45.848 15 45C15 44.15 15.288 43.437 15.864 42.861C16.44 42.285 17.152 41.998 18 42H48C48.85 42 49.563 42.288 50.139 42.864C50.715 43.44 51.002 44.152 51 45C51 45.85 50.712 46.563 50.136 47.139C49.56 47.715 48.848 48.002 48 48H18ZM18 30C17.15 30 16.437 29.712 15.861 29.136C15.285 28.56 14.998 27.848 15 27C15 26.15 15.288 25.437 15.864 24.861C16.44 24.285 17.152 23.998 18 24H48C48.85 24 49.563 24.288 50.139 24.864C50.715 25.44 51.002 26.152 51 27C51 27.85 50.712 28.563 50.136 29.139C49.56 29.715 48.848 30.002 48 30H18Z" fill="white"/>
</svg>
