<svg width="84" height="90" viewBox="0 0 84 90" fill="none" xmlns="http://www.w3.org/2000/svg">
<rect x="1.95972" y="1.95972" width="80.0806" height="86.0806" rx="17.0403" fill="#FE5000" stroke="#FE5000" stroke-width="3.91943"/>
<path d="M48 35.325C48 34.875 48.163 34.412 48.489 33.936C48.815 33.46 49.176 33.148 49.572 33C51.022 32.5 52.472 32.125 53.922 31.875C55.372 31.625 56.898 31.5 58.5 31.5C59.5 31.5 60.488 31.563 61.464 31.689C62.44 31.815 63.402 31.977 64.35 32.175C64.8 32.275 65.188 32.525 65.514 32.925C65.84 33.325 66.002 33.775 66 34.275C66 35.125 65.725 35.75 65.175 36.15C64.625 36.55 63.925 36.65 63.075 36.45C62.375 36.3 61.638 36.187 60.864 36.111C60.09 36.035 59.302 35.998 58.5 36C57.2 36 55.925 36.125 54.675 36.375C53.425 36.625 52.225 36.95 51.075 37.35C50.175 37.7 49.438 37.675 48.864 37.275C48.29 36.875 48.002 36.225 48 35.325ZM48 51.825C48 51.375 48.163 50.912 48.489 50.436C48.815 49.96 49.177 49.648 49.575 49.5C51.025 49 52.475 48.625 53.925 48.375C55.375 48.125 56.9 48 58.5 48C59.5 48 60.488 48.063 61.464 48.189C62.44 48.315 63.402 48.477 64.35 48.675C64.8 48.775 65.188 49.025 65.514 49.425C65.84 49.825 66.002 50.275 66 50.775C66 51.625 65.725 52.25 65.175 52.65C64.625 53.05 63.925 53.15 63.075 52.95C62.375 52.8 61.638 52.687 60.864 52.611C60.09 52.535 59.302 52.498 58.5 52.5C57.2 52.5 55.925 52.613 54.675 52.839C53.425 53.065 52.225 53.377 51.075 53.775C50.175 54.125 49.437 54.112 48.861 53.736C48.285 53.36 47.998 52.724 48 51.828V51.825ZM48 43.575C48 43.125 48.163 42.662 48.489 42.186C48.815 41.71 49.177 41.398 49.575 41.25C51.025 40.75 52.475 40.375 53.925 40.125C55.375 39.875 56.9 39.75 58.5 39.75C59.5 39.75 60.488 39.813 61.464 39.939C62.44 40.065 63.402 40.227 64.35 40.425C64.8 40.525 65.188 40.775 65.514 41.175C65.84 41.575 66.002 42.025 66 42.525C66 43.375 65.725 44 65.175 44.4C64.625 44.8 63.925 44.9 63.075 44.7C62.375 44.55 61.638 44.437 60.864 44.361C60.09 44.285 59.302 44.248 58.5 44.25C57.2 44.25 55.925 44.375 54.675 44.625C53.425 44.875 52.225 45.2 51.075 45.6C50.175 45.95 49.438 45.925 48.864 45.525C48.29 45.125 48.002 44.475 48 43.575ZM25.5 57C27.85 57 30.138 57.263 32.364 57.789C34.59 58.315 36.802 59.102 39 60.15V30.6C36.95 29.4 34.775 28.5 32.475 27.9C30.175 27.3 27.85 27 25.5 27C23.7 27 21.912 27.175 20.136 27.525C18.36 27.875 16.648 28.4 15 29.1V58.8C16.75 58.2 18.488 57.75 20.214 57.45C21.94 57.15 23.702 57 25.5 57ZM45 60.15C47.2 59.1 49.412 58.312 51.636 57.786C53.86 57.26 56.148 56.998 58.5 57C60.3 57 62.063 57.15 63.789 57.45C65.515 57.75 67.252 58.2 69 58.8V29.1C67.35 28.4 65.637 27.875 63.861 27.525C62.085 27.175 60.298 27 58.5 27C56.15 27 53.825 27.3 51.525 27.9C49.225 28.5 47.05 29.4 45 30.6V60.15ZM42 67.425C41.3 67.425 40.637 67.337 40.011 67.161C39.385 66.985 38.798 66.748 38.25 66.45C36.3 65.3 34.25 64.438 32.1 63.864C29.95 63.29 27.75 63.002 25.5 63C23.4 63 21.337 63.275 19.311 63.825C17.285 64.375 15.348 65.15 13.5 66.15C12.45 66.7 11.438 66.675 10.464 66.075C9.49 65.475 9.002 64.6 9 63.45V27.3C9 26.75 9.138 26.225 9.414 25.725C9.69 25.225 10.102 24.85 10.65 24.6C12.95 23.4 15.35 22.5 17.85 21.9C20.35 21.3 22.9 21 25.5 21C28.4 21 31.238 21.375 34.014 22.125C36.79 22.875 39.452 24 42 25.5C44.55 24 47.213 22.875 49.989 22.125C52.765 21.375 55.602 21 58.5 21C61.1 21 63.65 21.3 66.15 21.9C68.65 22.5 71.05 23.4 73.35 24.6C73.9 24.85 74.313 25.225 74.589 25.725C74.865 26.225 75.002 26.75 75 27.3V63.45C75 64.6 74.513 65.475 73.539 66.075C72.565 66.675 71.552 66.7 70.5 66.15C68.65 65.15 66.713 64.375 64.689 63.825C62.665 63.275 60.602 63 58.5 63C56.25 63 54.05 63.288 51.9 63.864C49.75 64.44 47.7 65.302 45.75 66.45C45.2 66.75 44.612 66.988 43.986 67.164C43.36 67.34 42.698 67.427 42 67.425Z" fill="white"/>
</svg>
