<svg width="216" height="186" viewBox="0 0 216 186" fill="none" xmlns="http://www.w3.org/2000/svg">
<g clip-path="url(#clip0_291_890)" filter="url(#filter0_i_291_890)">
<path d="M51.0727 186C36.0374 186 21.0081 186 5.97291 185.994C4.89392 185.994 3.78544 186.029 2.75361 185.782C1.04372 185.383 0.0413749 184.189 0.0236864 182.407C0.00599796 180.731 0.931695 179.597 2.55314 179.238C3.78544 178.967 5.0767 178.826 6.33848 178.826C36.3087 178.803 66.2789 178.803 96.2431 178.826C97.5108 178.826 98.7962 178.956 100.034 179.208C101.656 179.544 102.623 180.62 102.652 182.313C102.688 184.124 101.662 185.3 99.9695 185.712C98.8434 185.988 97.6346 185.988 96.4613 185.988C81.3318 186.006 66.1963 186 51.0668 186H51.0727Z" fill="#FE5000" fill-opacity="0.8"/>
<path d="M51.1316 0C66.3555 0 81.5853 0 96.8092 0C100.736 0 102.599 1.11722 102.652 3.43399C102.711 5.93892 100.854 7.16787 96.7443 7.17375C66.4852 7.19139 36.232 7.19139 5.97293 7.17375C1.81614 7.17963 -0.0529442 5.98008 0.000121226 3.52219C0.0531867 1.0643 1.86331 0 6.04369 0C21.073 0 36.1023 0 51.1316 0Z" fill="#FE5000" fill-opacity="0.8"/>
<path d="M84.7985 95.7519C87.835 95.7519 90.8774 95.8166 93.9139 95.7284C95.8891 95.6696 96.7912 96.4457 96.8325 98.4332C96.9976 105.413 98.2004 112.228 100.223 118.902C100.753 120.654 100.406 121.66 98.4599 122.083C94.3384 122.983 90.335 124.294 86.4553 125.952C85.2407 126.47 84.2324 126.293 83.3657 125.147C77.3044 117.15 73.8198 108.153 72.7349 98.2039C72.5403 96.4281 73.3304 95.7107 75.0875 95.7342C78.3245 95.7872 81.5556 95.746 84.7926 95.746L84.7985 95.7519Z" fill="#FE5000" fill-opacity="0.8"/>
<path d="M167.593 95.7578C170.735 95.7578 173.878 95.7754 177.015 95.7519C178.613 95.7401 179.285 96.3517 179.149 98.0628C178.353 108.006 174.709 116.838 168.86 124.847C168.017 125.999 167.056 126.57 165.594 125.958C161.697 124.318 157.675 123.053 153.566 122.083C151.779 121.66 151.166 120.913 151.767 118.972C153.701 112.681 154.733 106.207 155.069 99.6386C155.217 96.7691 156.213 95.3814 159.35 95.6872C162.074 95.9518 164.839 95.7401 167.593 95.7401V95.7519V95.7578Z" fill="#FE5000" fill-opacity="0.8"/>
<path d="M84.4331 90.2481C81.2904 90.2481 78.1537 90.2069 75.011 90.2599C73.1832 90.2893 72.5582 89.4249 72.7528 87.7079C73.82 78.1703 77.0452 69.4736 82.735 61.7001C83.6666 60.43 84.6041 59.8832 86.2019 60.6064C90.0521 62.3528 94.1205 63.4994 98.2065 64.5637C100.046 65.04 100.594 65.8456 100.028 67.7037C98.0768 74.0954 97.0273 80.6576 96.8622 87.3374C96.8091 89.4014 96.0367 90.3598 93.8551 90.2834C90.7184 90.1717 87.5757 90.254 84.4331 90.2481Z" fill="#FE5000" fill-opacity="0.8"/>
<path d="M167.522 90.2481C164.385 90.2481 161.248 90.1775 158.111 90.2775C156.254 90.3363 155.417 89.5484 155.281 87.7667C154.739 80.7399 153.825 73.7779 151.826 66.9981C151.419 65.6104 152.056 64.9989 153.294 64.6872C157.669 63.5876 161.979 62.2764 166.118 60.4712C167.474 59.8773 168.353 60.4476 169.114 61.5002C174.839 69.4501 178.382 78.2056 179.161 88.0254C179.302 89.8012 178.459 90.2599 176.932 90.2481C173.795 90.2246 170.658 90.2422 167.522 90.2481Z" fill="#FE5000" fill-opacity="0.8"/>
<path d="M200.428 75.5184C198.253 76.2769 197.816 74.6011 197.327 72.9135C193.624 60.2359 187.133 49.199 177.616 39.9966C168.713 31.3822 158.289 25.3198 146.325 21.9564C143.501 21.1625 142.31 17.5639 144.043 15.059C144.721 14.077 145.624 14.4827 146.437 14.7003C158.412 17.8285 169.179 23.3323 178.548 31.3998C190.9 42.0311 199.526 55.1085 203.978 70.8437C205.181 75.0833 205.139 75.2067 200.428 75.5301V75.5184Z" fill="#FE5000" fill-opacity="0.8"/>
<path d="M200.723 110.511C205.157 110.864 205.269 110.987 203.96 115.18C195.051 143.716 176.26 162.338 147.546 170.935C146.272 171.317 144.503 172.787 143.813 170.088C142.77 165.984 143.071 164.979 145.777 164.208C164.12 158.975 178.43 148.332 188.713 132.326C192.551 126.352 195.387 119.902 197.309 113.075C197.864 111.123 198.606 109.764 200.717 110.511H200.723Z" fill="#FE5000" fill-opacity="0.8"/>
<path d="M51.1494 75.489C46.8158 75.1362 46.6389 75.0833 47.9714 70.7143C55.2885 46.8116 70.3473 29.577 93.0712 19.0398C96.8978 17.264 100.913 15.9763 104.976 14.8061C106.968 14.2358 108.047 14.3122 108.212 16.8465C108.501 21.1508 108.602 20.992 104.457 22.3386C79.2034 30.5413 62.6352 47.335 54.7638 72.6254C53.8145 75.683 53.9206 75.7124 51.1494 75.489Z" fill="#FE5000" fill-opacity="0.8"/>
<path d="M51.715 110.458C53.4544 109.935 54.0794 110.928 54.5865 112.616C62.4048 138.683 79.368 155.8 105.405 163.944C108.283 164.843 109.639 168.565 107.847 170.965C106.986 172.117 105.865 171.376 104.881 171.117C92.829 167.907 82.1098 162.156 72.7172 154C60.9543 143.787 52.9002 131.133 48.2245 116.321C47.9887 115.574 47.9061 114.78 47.6408 114.045C46.8035 111.711 47.4167 110.458 50.0759 110.593C50.5594 110.617 51.0547 110.517 51.7091 110.458H51.715Z" fill="#FE5000" fill-opacity="0.8"/>
<path d="M48.3838 105.407C41.5973 105.407 35.9605 99.8327 35.9134 93.0941C35.8662 86.2261 41.5796 80.54 48.4899 80.593C55.241 80.64 60.8659 86.3261 60.8188 93.0529C60.7716 99.8268 55.1526 105.413 48.3838 105.407Z" fill="#FE5000" fill-opacity="0.8"/>
<path d="M216 92.9059C216.041 99.6916 210.552 105.295 203.76 105.407C196.938 105.519 191.083 99.7504 191.118 92.9412C191.154 86.2496 196.879 80.5753 203.577 80.5929C210.387 80.6106 215.965 86.1379 216.006 92.9059H216Z" fill="#FE5000" fill-opacity="0.8"/>
<path d="M138.241 15.5647C138.253 22.5915 133.029 27.8777 126.048 27.9012C118.914 27.9247 113.407 22.3445 113.495 15.1649C113.572 8.87313 119.61 3.04593 126.013 3.08121C132.723 3.11649 138.23 8.74377 138.241 15.5647Z" fill="#FE5000" fill-opacity="0.8"/>
<path d="M138.242 170.488C138.218 177.292 132.658 182.919 125.966 182.919C119.616 182.919 113.537 176.998 113.501 170.776C113.46 163.573 118.943 158.058 126.107 158.099C133.076 158.14 138.271 163.438 138.247 170.488H138.242Z" fill="#FE5000" fill-opacity="0.8"/>
<path d="M128.584 107.136C128.584 104.196 128.601 101.256 128.578 98.3215C128.56 96.4752 129.397 95.7049 131.272 95.7284C136.573 95.7931 141.879 95.799 147.186 95.7284C149.232 95.699 150.075 96.5457 149.922 98.5332C149.415 105.289 148.389 111.946 146.378 118.437C145.912 119.949 144.886 120.29 143.424 120.137C139.427 119.719 135.423 119.261 131.408 119.067C129.185 118.961 128.507 117.973 128.548 115.95C128.613 113.01 128.566 110.07 128.566 107.136H128.578H128.584Z" fill="#FE5000" fill-opacity="0.8"/>
<path d="M123.377 107.471C123.377 110.411 123.348 113.345 123.389 116.285C123.413 118.085 122.687 118.92 120.801 119.037C116.691 119.302 112.593 119.702 108.495 120.137C106.956 120.301 106.078 119.725 105.6 118.314C103.354 111.669 102.54 104.778 102.045 97.8393C101.939 96.3399 102.811 95.7519 104.232 95.7578C109.828 95.7695 115.429 95.7813 121.025 95.746C122.876 95.7342 123.383 96.7691 123.377 98.3627C123.365 101.397 123.377 104.437 123.377 107.471Z" fill="#FE5000" fill-opacity="0.8"/>
<path d="M128.571 78.9642C128.571 76.224 128.613 73.478 128.56 70.7379C128.524 68.7269 129.261 67.6979 131.443 67.5744C135.358 67.3509 139.267 66.957 143.17 66.5277C144.951 66.3337 146.154 66.6159 146.72 68.6034C148.43 74.56 149.291 80.6518 149.927 86.7965C150.181 89.2426 149.403 90.3951 146.696 90.3069C141.69 90.1482 136.679 90.1776 131.673 90.2952C129.344 90.354 128.489 89.419 128.56 87.1905C128.642 84.4503 128.577 81.7043 128.583 78.9642H128.571Z" fill="#FE5000" fill-opacity="0.8"/>
<path d="M123.371 79.023C123.371 81.9513 123.36 84.8855 123.371 87.8138C123.383 89.5131 122.593 90.2775 120.86 90.2658C115.376 90.2246 109.893 90.2246 104.409 90.2658C102.641 90.2775 101.892 89.4837 102.039 87.7667C102.57 81.5338 103.342 75.3538 105.028 69.2973C105.677 66.957 106.874 66.2161 109.291 66.5689C112.864 67.0922 116.491 67.445 120.099 67.5391C122.699 67.6097 123.548 68.674 123.424 71.1201C123.289 73.7485 123.395 76.3946 123.395 79.0289H123.377L123.371 79.023Z" fill="#FE5000" fill-opacity="0.8"/>
<path d="M24.0388 51.9097C17.948 51.9097 11.8632 51.9274 5.77245 51.898C4.69935 51.898 3.59677 51.8451 2.57083 51.5746C1.00835 51.1571 0.0472758 50.0399 0.017795 48.3758C-0.0116858 46.7058 0.884531 45.5533 2.4647 45.1123C3.48474 44.8242 4.58732 44.7242 5.65453 44.7242C17.8301 44.7007 30.0116 44.7066 42.1872 44.7066C42.482 44.7066 42.7768 44.7066 43.0716 44.7125C46.5975 44.836 48.1128 45.9591 48.0185 48.3699C47.9241 50.7396 46.3263 51.8862 42.8947 51.898C36.6094 51.9274 30.3241 51.9039 24.0388 51.9039V51.9097Z" fill="#FE5000" fill-opacity="0.8"/>
<path d="M24.0915 141.299C18.0008 141.299 11.9159 141.299 5.8252 141.299C4.64596 141.299 3.46673 141.329 2.34056 140.882C0.925486 140.323 0.0587501 139.329 0.0233731 137.795C-0.0179 136.131 0.854732 134.937 2.42311 134.49C3.53159 134.173 4.7403 134.108 5.90774 134.102C18.0833 134.079 30.2648 134.084 42.4404 134.096C43.4191 134.096 44.4274 134.084 45.359 134.331C47.0571 134.772 47.9945 135.943 48.024 137.754C48.0535 139.629 47.0335 140.723 45.2823 141.011C43.8437 141.246 42.3578 141.282 40.8897 141.288C35.2942 141.317 29.6929 141.299 24.0974 141.299H24.0915Z" fill="#FE5000" fill-opacity="0.8"/>
<path d="M117.705 40.9609C116.249 42.0781 115.093 42.9072 114.002 43.8069C109.604 47.4349 106.343 51.9744 104.044 57.1136C102.959 59.5362 101.532 60.1066 99.2148 59.348C96.2313 58.3719 93.2361 57.4252 90.2644 56.4197C88.7904 55.9199 88.3658 55.0732 89.6689 53.8795C97.2396 46.9704 106.043 42.4838 116.154 40.614C116.479 40.5552 116.856 40.761 117.699 40.9609H117.705Z" fill="#FE5000" fill-opacity="0.8"/>
<path d="M134.604 41.1432C137.251 40.2612 139.521 41.4314 141.773 42.0899C149.214 44.2656 155.777 48.1229 161.578 53.2328C163.795 55.1791 163.707 55.7788 160.983 56.7373C157.941 57.8075 154.816 58.6601 151.714 59.548C150.234 59.9714 149.161 59.6244 148.406 58.0427C145.205 51.357 141.225 45.2593 134.604 41.1491V41.1432Z" fill="#FE5000" fill-opacity="0.8"/>
<path d="M117.228 145.174C114.674 145.745 112.41 144.563 110.17 143.904C102.918 141.776 96.4789 138.065 90.7773 133.12C88.7314 131.344 88.8139 130.721 91.3728 129.839C94.3386 128.816 97.3516 127.94 100.359 127.04C101.815 126.605 102.988 126.775 103.755 128.392C106.821 134.872 110.925 140.517 117.062 144.48C117.174 144.551 117.157 144.833 117.233 145.18L117.228 145.174Z" fill="#FE5000" fill-opacity="0.8"/>
<path d="M133.802 144.992C141.078 140.776 145.099 134.819 148.312 128.228C149.043 126.728 150.187 126.64 151.508 127.022C154.527 127.899 157.551 128.745 160.517 129.768C163.106 130.662 163.259 131.356 161.225 133.079C155.158 138.2 148.442 142.199 140.694 144.216C138.766 144.716 136.868 145.774 133.802 144.998V144.992Z" fill="#FE5000" fill-opacity="0.8"/>
<path d="M131.72 62.4822C129.662 62.7056 128.53 61.9941 128.566 59.7421C128.625 55.7259 128.589 51.7157 128.583 47.6996C128.583 45.3828 129.721 44.9418 131.585 45.9767C136.956 48.9697 140.352 53.6973 142.935 59.0952C143.689 60.677 142.775 61.218 141.366 61.3826C138.153 61.7472 134.939 62.1176 131.72 62.4881V62.4822Z" fill="#FE5000" fill-opacity="0.8"/>
<path d="M123.371 53.809C123.371 55.867 123.348 57.9251 123.377 59.9831C123.401 61.7001 122.599 62.5998 120.871 62.4351C117.257 62.0941 113.648 61.7119 110.046 61.2767C108.772 61.1239 108.418 60.3065 108.967 59.1481C111.496 53.8266 114.851 49.1755 120.057 46.1472C122.481 44.736 123.306 45.3063 123.377 48.2229C123.424 50.081 123.383 51.945 123.383 53.809H123.371Z" fill="#FE5000" fill-opacity="0.8"/>
<path d="M128.566 132.632C128.566 132.05 128.56 131.462 128.566 130.88C128.672 123.406 127.675 124.517 135.228 124.647C137.274 124.682 139.314 125.023 141.354 125.217C143.023 125.376 143.3 126.252 142.61 127.628C140.104 132.585 136.856 136.93 131.974 139.8C129.491 141.264 128.713 140.764 128.577 137.901C128.566 137.707 128.572 137.513 128.572 137.318C128.572 135.76 128.572 134.196 128.572 132.638L128.566 132.632Z" fill="#FE5000" fill-opacity="0.8"/>
<path d="M123.389 132.65C123.389 134.314 123.419 135.978 123.383 137.642C123.312 140.811 122.428 141.317 119.663 139.623C115.995 137.377 113.224 134.237 110.989 130.586C107.888 125.511 107.982 125.305 113.902 124.77C114.197 124.747 114.492 124.723 114.787 124.711C125.111 124.406 123.171 123.394 123.395 132.644L123.389 132.65Z" fill="#FE5000" fill-opacity="0.8"/>
<path d="M10.9255 89.4837C13.1837 89.4837 15.436 89.4425 17.6943 89.4954C20.0351 89.5484 21.8629 90.5245 21.8393 93.0647C21.8157 95.4285 20.0881 96.4634 17.8653 96.4928C13.2545 96.5457 8.64367 96.5575 4.03876 96.4869C1.85718 96.4516 0.0883347 95.5343 0.0470615 93.0882C0.0057884 90.4657 1.86308 89.5895 4.16258 89.5072C6.41492 89.4308 8.67315 89.4896 10.9314 89.4896L10.9255 89.4837Z" fill="#FE5000" fill-opacity="0.8"/>
</g>
<defs>
<filter id="filter0_i_291_890" x="0" y="0" width="216" height="190" filterUnits="userSpaceOnUse" color-interpolation-filters="sRGB">
<feFlood flood-opacity="0" result="BackgroundImageFix"/>
<feBlend mode="normal" in="SourceGraphic" in2="BackgroundImageFix" result="shape"/>
<feColorMatrix in="SourceAlpha" type="matrix" values="0 0 0 0 0 0 0 0 0 0 0 0 0 0 0 0 0 0 127 0" result="hardAlpha"/>
<feOffset dy="4"/>
<feGaussianBlur stdDeviation="2"/>
<feComposite in2="hardAlpha" operator="arithmetic" k2="-1" k3="1"/>
<feColorMatrix type="matrix" values="0 0 0 0 0.816944 0 0 0 0 0.282955 0 0 0 0 0.0374429 0 0 0 1 0"/>
<feBlend mode="normal" in2="shape" result="effect1_innerShadow_291_890"/>
</filter>
<clipPath id="clip0_291_890">
<rect width="216" height="186" fill="white"/>
</clipPath>
</defs>
</svg>
