<svg width="189" height="104" viewBox="0 0 189 104" fill="none" xmlns="http://www.w3.org/2000/svg">
<g clip-path="url(#clip0_291_925)" filter="url(#filter0_i_291_925)">
<path d="M33.6447 0.0101405C42.0874 0.0101405 50.5353 -0.0101166 58.9781 0.0101405C64.36 0.0253333 67.2587 2.92716 67.2689 8.32062C67.2942 20.1356 67.2942 31.9505 67.2689 43.7655C67.2587 49.1488 64.3651 51.9949 58.9528 52.0304C54.8986 52.0557 50.8444 52.0101 46.7903 52.0658C46.0707 52.076 44.8341 51.5442 44.8037 52.8761C44.7835 53.9903 45.5639 54.7043 46.8055 54.6891C47.4795 54.679 48.1586 54.6891 48.8326 54.7195C50.8444 54.8006 51.9948 55.8033 52.0252 57.8594C52.0556 59.8952 50.9965 61.1005 48.9643 61.1106C38.7478 61.1512 28.5263 61.1512 18.3098 61.1106C16.2776 61.1005 15.2236 59.8952 15.2489 57.8594C15.2793 55.8033 16.4347 54.8563 18.4415 54.7043C19.9973 54.5879 22.5464 55.3424 22.3437 52.8964C22.2018 51.1847 19.8098 52.1469 18.4567 52.0962C14.8333 51.9494 11.1947 52.0962 7.56625 52.0253C3.16242 51.9443 0.0508489 48.9007 0.0305781 44.5099C-0.0251667 32.1886 -0.0251667 19.8672 0.0305781 7.54578C0.0609843 3.11454 3.12188 0.0658475 7.55105 0.0354619C16.2472 -0.0303737 24.9485 0.0152048 33.6447 0.0101405ZM33.6294 6.46203C25.7846 6.46203 17.9398 6.4519 10.095 6.46709C6.98347 6.47216 6.48683 6.93301 6.48176 9.92093C6.46656 20.7129 6.5071 31.4998 6.45136 42.2918C6.43615 44.6669 7.36861 45.614 9.7555 45.6089C25.6985 45.5582 41.6415 45.5582 57.5845 45.6089C60.0018 45.614 60.8633 44.596 60.8481 42.2513C60.7923 31.4593 60.8329 20.6724 60.8177 9.88042C60.8177 6.98365 60.3109 6.47722 57.4172 6.47216C49.4863 6.4519 41.5604 6.46709 33.6294 6.46203ZM33.7511 54.6993C34.5062 54.6993 35.2612 54.755 36.0062 54.6841C36.665 54.6233 37.7343 55.0487 37.6988 53.8333C37.6735 52.9774 37.1768 52.1621 36.1734 52.1165C34.5062 52.0405 32.8288 52.0507 31.1615 52.1064C30.153 52.1418 29.6564 52.9318 29.5956 53.7877C29.5094 55.0183 30.5787 54.6334 31.2426 54.6841C32.0737 54.7499 32.9149 54.6993 33.7511 54.6993Z" fill="#FE5000" fill-opacity="0.8"/>
<path d="M155.148 61.1562C146.791 61.1562 138.434 61.1714 130.078 61.1512C124.539 61.136 121.681 58.2645 121.64 52.7343C121.635 51.8076 121.63 50.8808 121.64 49.949C121.681 46.4749 122.238 45.7608 125.699 45.6292C127.503 45.5633 127.742 44.6821 127.737 43.2186C127.701 35.7133 127.706 28.203 127.726 20.6977C127.742 14.965 130.529 12.1745 136.276 12.1695C148.94 12.1543 161.599 12.1543 174.263 12.1695C179.995 12.1745 182.807 14.9953 182.823 20.718C182.843 28.0561 182.873 35.3943 182.797 42.7324C182.777 44.6315 183.061 45.8013 185.377 45.6342C187.789 45.462 188.787 46.8446 188.924 49.2096C189.436 57.8543 187.404 61.6677 177.425 61.2221C170.011 60.8929 162.572 61.1562 155.143 61.1562H155.148ZM155.204 45.5836C161.447 45.5836 167.69 45.5279 173.929 45.619C175.814 45.6444 176.422 44.9911 176.402 43.1274C176.321 36.0475 176.321 28.9626 176.392 21.8828C176.417 19.4874 175.429 18.5809 173.062 18.591C161.254 18.6467 149.442 18.6062 137.634 18.6214C134.715 18.6214 134.203 19.1278 134.193 21.984C134.167 28.9829 134.238 35.9766 134.147 42.9755C134.122 44.9303 134.705 45.6545 136.732 45.619C142.889 45.5127 149.046 45.5785 155.204 45.5785V45.5836ZM155.264 52.0405C146.999 52.0405 138.728 52.0253 130.463 52.0608C129.652 52.0608 128.309 51.5898 128.304 53.0331C128.304 54.2283 129.379 54.6334 130.483 54.674C131.243 54.7043 132.004 54.6993 132.759 54.6993C147.014 54.6993 161.275 54.6993 175.53 54.6993C177.05 54.6993 178.566 54.7043 180.086 54.674C181.201 54.6486 182.27 54.208 182.25 53.0179C182.225 51.5949 180.887 52.0709 180.066 52.0659C171.8 52.0304 163.53 52.0456 155.264 52.0456V52.0405Z" fill="#FE5000" fill-opacity="0.8"/>
<path d="M76.031 36.6451C76.031 31.1605 76.0006 25.6759 76.0411 20.1964C76.0766 15.1321 79.0057 12.2049 84.0785 12.1745C91.001 12.1391 97.9234 12.1391 104.846 12.1745C109.888 12.1999 112.868 15.1726 112.883 20.2217C112.919 31.1909 112.919 42.1551 112.883 53.1243C112.868 58.1835 109.914 61.1157 104.846 61.1461C97.9234 61.1866 91.001 61.1866 84.0785 61.1461C79.0361 61.1208 76.0766 58.143 76.0411 53.099C76.0056 47.6143 76.031 42.1297 76.031 36.6502V36.6451ZM94.3102 45.5836C97.5991 45.5836 100.888 45.5329 104.177 45.6038C105.763 45.6393 106.483 45.1329 106.452 43.4414C106.381 38.8937 106.392 34.3409 106.447 29.7881C106.468 28.2536 105.854 27.7067 104.349 27.7168C97.7714 27.7624 91.1935 27.7725 84.6157 27.7117C82.9028 27.6965 82.4467 28.4359 82.472 30.0008C82.5328 34.4675 82.543 38.9342 82.472 43.4009C82.4467 45.0518 83.07 45.6443 84.7018 45.6089C87.9046 45.5279 91.1125 45.5836 94.3152 45.5886L94.3102 45.5836ZM94.4673 21.275C97.8373 21.275 101.207 21.2852 104.577 21.2649C105.297 21.2649 106.27 21.427 106.26 20.2875C106.255 19.4418 105.596 18.9303 104.81 18.748C104.243 18.6163 103.64 18.6264 103.052 18.6214C97.3255 18.6112 91.5939 18.6112 85.8674 18.6214C85.2795 18.6214 84.6765 18.6163 84.1089 18.748C83.3234 18.9353 82.6646 19.4468 82.6646 20.2926C82.6646 21.4219 83.6376 21.2548 84.3572 21.2598C87.7272 21.2801 91.0972 21.27 94.4673 21.27V21.275ZM94.4875 54.6993C96.3423 54.6993 98.192 54.6993 100.047 54.6993C101.481 54.6942 102.915 54.7195 104.344 54.6486C105.358 54.598 106.265 54.0713 106.25 53.0027C106.229 51.7316 105.064 52.076 104.294 52.0608C101.684 52.0203 99.0687 52.0456 96.4589 52.0456C92.501 52.0456 88.5381 52.0304 84.5802 52.0658C83.815 52.0709 82.6697 51.7468 82.6798 53.0584C82.6849 54.0105 83.4805 54.5018 84.3876 54.6284C84.9653 54.7145 85.5633 54.6993 86.1512 54.7043C88.9333 54.7094 91.7104 54.7043 94.4926 54.7043L94.4875 54.6993Z" fill="#FE5000" fill-opacity="0.8"/>
<path d="M97.6494 70.2719C97.6494 71.3709 97.9585 72.5812 97.5885 73.5384C96.6612 75.949 97.9838 76.187 99.8285 76.5769C107.465 78.1874 113.43 82.3198 117.682 88.8781C119.172 91.1772 118.995 92.9903 117.236 94.2107C115.442 95.4515 113.8 94.9805 112.118 92.737C105.798 84.305 98.0396 81.231 88.8011 83.5656C84.3112 84.7 80.6523 87.1663 77.8093 90.8227C77.186 91.6229 76.6437 92.4838 76.0103 93.2738C74.8193 94.7577 73.3396 95.411 71.576 94.3525C69.7111 93.2333 69.5439 91.4811 70.4409 89.7187C71.7534 87.1461 73.5778 84.9178 75.7721 83.0238C79.8972 79.4737 84.6456 77.1998 90.0174 76.2883C91.2691 76.0756 91.7962 75.9743 91.5073 74.298C91.0664 71.7557 91.2032 69.0869 91.3299 66.4838C91.4161 64.6911 92.683 63.8555 94.4516 63.8504C96.2203 63.8504 97.396 64.6809 97.5987 66.4737C97.7406 67.7246 97.624 69.0008 97.624 70.2668C97.6291 70.2668 97.6392 70.2668 97.6443 70.2668L97.6494 70.2719Z" fill="#FE5000" fill-opacity="0.8"/>
<path d="M48.8375 94.5754C44.0282 94.5754 39.2241 94.6058 34.4148 94.5703C31.364 94.545 30.4468 93.6638 30.4316 90.6708C30.3961 83.0845 30.4012 75.4983 30.4265 67.917C30.4367 65.0304 31.4654 63.815 33.7256 63.8605C35.8794 63.9011 36.8473 65.0658 36.8625 67.8259C36.8929 73.6397 36.9588 79.4585 36.8321 85.2723C36.7814 87.455 37.4047 88.2147 39.6751 88.1843C47.601 88.0627 55.5319 88.1488 63.4578 88.1387C65.4444 88.1387 66.9799 88.6958 67.2282 90.9595C67.4714 93.1827 66.2501 94.5349 63.7669 94.5653C58.7905 94.626 53.814 94.5855 48.8375 94.5855V94.5754Z" fill="#FE5000" fill-opacity="0.8"/>
<path d="M140.036 94.5754C135.399 94.5754 130.757 94.5906 126.12 94.5754C122.922 94.5652 121.706 93.679 121.675 91.4001C121.645 89.0958 122.881 88.1336 126.018 88.1285C133.691 88.1133 141.368 88.0475 149.041 88.1691C151.306 88.2045 152.163 87.6272 152.097 85.2115C151.935 79.3167 152.016 73.4117 152.066 67.5119C152.087 64.848 153.435 63.587 155.746 63.8706C157.55 64.0935 158.462 65.1975 158.467 66.9396C158.497 75.1133 158.512 83.2921 158.457 91.4659C158.442 93.836 156.86 94.5855 154.707 94.5754C149.816 94.5551 144.921 94.5703 140.031 94.5754H140.036Z" fill="#FE5000" fill-opacity="0.8"/>
<path d="M96.2253 85.1508C100.751 85.2115 105.889 88.0019 109.66 93.3093C111.205 95.4819 111.074 97.4721 109.462 98.7129C107.81 99.984 105.717 99.6751 104.298 97.3709C100.361 90.9696 89.764 89.3946 84.1997 97.4671C82.6591 99.7004 80.8043 99.9891 79.0306 98.6369C77.4647 97.4418 77.3785 95.6287 78.7874 93.446C82.0966 88.321 87.9548 85.1659 96.2253 85.1508Z" fill="#FE5000" fill-opacity="0.8"/>
<path d="M94.2644 94.2462C97.7256 94.4032 100.457 95.806 102.292 98.7787C103.27 100.359 103.148 101.858 101.729 103.094C100.32 104.324 98.8405 104.253 97.3607 103.134C95.2627 101.551 93.2002 101.542 91.1731 103.109C89.7136 104.238 88.2237 104.355 86.8047 103.119C85.4668 101.954 85.3402 100.445 86.1662 98.9864C87.9298 95.8617 90.7271 94.3779 94.2644 94.2513V94.2462Z" fill="#FE5000" fill-opacity="0.8"/>
</g>
<defs>
<filter id="filter0_i_291_925" x="0" y="0" width="189" height="108" filterUnits="userSpaceOnUse" color-interpolation-filters="sRGB">
<feFlood flood-opacity="0" result="BackgroundImageFix"/>
<feBlend mode="normal" in="SourceGraphic" in2="BackgroundImageFix" result="shape"/>
<feColorMatrix in="SourceAlpha" type="matrix" values="0 0 0 0 0 0 0 0 0 0 0 0 0 0 0 0 0 0 127 0" result="hardAlpha"/>
<feOffset dy="4"/>
<feGaussianBlur stdDeviation="2"/>
<feComposite in2="hardAlpha" operator="arithmetic" k2="-1" k3="1"/>
<feColorMatrix type="matrix" values="0 0 0 0 0.722222 0 0 0 0 0.228846 0 0 0 0 0.00200605 0 0 0 1 0"/>
<feBlend mode="normal" in2="shape" result="effect1_innerShadow_291_925"/>
</filter>
<clipPath id="clip0_291_925">
<rect width="189" height="104" fill="white"/>
</clipPath>
</defs>
</svg>
