<svg width="107" height="107" viewBox="0 0 107 107" fill="none" xmlns="http://www.w3.org/2000/svg">
<g clip-path="url(#clip0_291_944)" filter="url(#filter0_i_291_944)">
<path d="M85.7324 85.5039C85.7324 88.4656 85.7241 91.4301 85.738 94.3918C85.7407 95.0558 85.5684 95.9616 86.6412 95.9005C87.5918 95.8449 88.7675 96.4923 89.3539 94.9947C90.8019 91.3023 93.5174 89.1991 97.5197 88.8601C101.956 88.485 106.469 92.3664 106.897 96.7673C107.5 102.974 102.725 106.664 98.8371 106.903C94.3901 107.175 91.0076 105.047 89.4039 100.89C89.1149 100.137 88.6924 99.9096 87.9587 99.9263C86.7552 99.9569 85.549 99.9485 84.3455 99.9263C82.4805 99.8902 81.7579 99.1706 81.7412 97.2758C81.7162 94.4529 81.7023 91.6274 81.7468 88.8046C81.7635 87.7766 81.3882 87.3904 80.3682 87.4376C79.073 87.4959 77.7695 87.5182 76.4799 87.4293C75.3126 87.3487 74.8373 87.8016 74.6594 88.9407C73.9173 93.6695 71.7633 97.6731 68.3447 101.027C57.4273 111.743 38.3887 107.333 33.2913 92.9137C32.7938 91.5079 32.4325 90.0826 32.1907 88.6212C32.0573 87.8099 31.6793 87.4098 30.8038 87.4376C29.3224 87.4848 27.8382 87.4821 26.3596 87.4376C25.4285 87.4126 25.1645 87.8488 25.1728 88.7045C25.2006 91.5273 25.195 94.3529 25.1728 97.1757C25.1589 99.2151 24.4502 99.8957 22.3851 99.9263C22.2461 99.9263 22.1044 99.943 21.9682 99.9263C19.4751 99.604 17.7519 100.087 16.4789 102.782C14.7946 106.344 10.1475 107.77 6.36483 106.594C2.3959 105.364 -0.0944119 101.813 8.65278e-05 97.523C0.0890262 93.6222 2.83226 90.3326 6.5983 89.2019C10.8952 87.9099 15.937 90.3604 17.4767 94.8002C18.0632 96.4867 19.3028 95.9033 20.3367 95.8894C21.4929 95.8755 21.165 94.8503 21.1677 94.1834C21.19 88.3489 21.19 82.5171 21.1677 76.6826C21.1677 76.013 21.4762 74.9989 20.2978 75.0156C19.2611 75.0295 18.0548 74.4516 17.4573 76.1408C15.8842 80.589 11.4122 82.8672 6.71781 81.8059C2.50429 80.8529 -0.283409 76.7854 0.0195421 72.0372C0.286361 67.8724 3.96902 64.3384 8.41045 63.9883C12.2293 63.6882 15.9314 65.9831 17.3795 69.7117C17.7741 70.7314 18.3022 71.0648 19.3195 71.0064C20.3812 70.9453 21.4512 70.9647 22.5129 71.0092C24.5002 71.0953 25.1589 71.776 25.1728 73.7542C25.1895 76.5326 25.2061 79.3109 25.1645 82.0865C25.1506 83.0895 25.4924 83.5312 26.5263 83.4896C27.8215 83.4396 29.1223 83.4201 30.4147 83.4979C31.5681 83.5674 32.0684 83.1228 32.2491 81.9781C32.9411 77.6022 34.7783 73.7209 37.9051 70.5952C43.8112 64.694 50.982 62.4935 59.0394 64.7246C67.5831 67.0889 72.825 72.9124 74.5871 81.6503C74.8817 83.1061 75.4237 83.634 76.8523 83.4979C77.8612 83.4007 78.8896 83.484 79.9068 83.4784C81.7218 83.4701 81.7273 83.4673 81.7301 81.5864C81.7329 78.9942 81.719 76.402 81.7357 73.807C81.7496 71.751 82.411 71.0731 84.4789 71.0009C85.5434 70.962 86.6107 70.9481 87.6752 71.0009C88.6313 71.0453 89.1316 70.7286 89.5151 69.7645C90.952 66.1332 93.7564 64.1578 97.6114 64.0161C101.35 63.8772 104.232 65.5747 105.972 68.9449C108.404 73.6514 106.372 79.1359 101.43 81.3669C96.9193 83.4034 91.3578 81.0668 89.4818 76.3464C88.9954 75.1239 87.5028 74.5238 86.2632 75.035C85.6295 75.2962 85.7379 75.8491 85.7352 76.3353C85.7241 79.3915 85.7296 82.4477 85.7296 85.5011L85.7324 85.5039ZM8.9691 102.935C11.9152 102.946 14.1443 100.807 14.1637 97.9565C14.1804 95.1864 11.8513 92.8109 9.06638 92.7637C6.2342 92.7137 4.00793 94.9447 3.9857 97.8564C3.96068 100.854 5.99518 102.927 8.9691 102.938V102.935ZM97.9143 78.1329C100.783 78.1357 103.031 75.8658 102.992 72.9985C102.953 70.1229 100.824 67.9863 97.9755 67.9641C95.16 67.9447 92.7781 70.2424 92.7503 73.0068C92.7225 75.7713 95.0961 78.1273 97.9116 78.1329H97.9143ZM3.9857 73.0207C3.97736 75.963 6.13693 78.1523 9.03302 78.1329C11.8485 78.1134 14.1665 75.788 14.1637 72.9818C14.1637 70.3229 11.7902 67.9919 9.06082 67.9669C6.09245 67.9391 3.99403 70.0284 3.9857 73.0207ZM97.8699 102.935C100.816 102.952 103.031 100.799 103.028 97.9259C103.023 95.0781 100.719 92.7526 97.9088 92.7609C95.2489 92.7693 92.7253 95.317 92.7475 97.9648C92.7725 100.721 95.0377 102.919 97.8699 102.935ZM53.5723 87.4487C52.5551 87.4487 51.5323 87.4015 50.5178 87.4598C49.2866 87.5321 47.4828 86.8597 46.9602 87.7571C46.2515 88.9768 46.8463 90.7105 47.1798 92.2025C47.3466 92.9415 47.7218 93.1471 48.4833 92.9776C51.8269 92.2303 55.1816 92.1997 58.5252 92.9943C59.3256 93.1832 59.6008 92.8526 59.7731 92.1414C60.0566 90.9606 60.0316 89.752 60.2039 88.5656C60.3373 87.6432 59.9343 87.432 59.1311 87.4432C57.28 87.4682 55.4262 87.4515 53.5751 87.4487H53.5723ZM53.4 83.484C55.0176 83.484 56.6352 83.484 58.2528 83.484C60.2456 83.484 60.2678 83.4784 60.115 81.5642C60.0372 80.6001 59.8787 79.6443 59.7453 78.6858C59.6369 77.9162 59.245 77.7328 58.4752 77.9329C55.1455 78.7886 51.7963 78.7941 48.4694 77.9384C47.6829 77.7356 47.3493 77.9606 47.1881 78.6913C46.9297 79.8694 46.8546 81.0641 46.7407 82.2588C46.6517 83.1839 46.9408 83.5146 47.8608 83.4951C49.709 83.4562 51.5573 83.484 53.4056 83.4868L53.4 83.484ZM39.3726 87.4515C38.6777 87.4515 37.9829 87.4848 37.2936 87.4432C36.1958 87.3793 35.9484 87.8071 36.1958 88.8657C36.7294 91.1439 37.5549 93.2749 38.8695 95.2142C39.6607 96.3811 40.6548 96.584 41.8518 95.8227C42.0852 95.6727 42.3131 95.5004 42.5688 95.4031C43.3415 95.1031 43.6055 94.5919 43.4277 93.7695C43.2025 92.7331 42.9385 91.6857 42.8885 90.6355C42.705 86.7458 42.6383 87.5404 39.3726 87.4515ZM67.6582 87.4515C67.055 87.4515 66.4492 87.5015 65.8544 87.4404C64.7565 87.3265 64.1867 87.7654 64.1617 88.8796C64.1284 90.4132 63.8504 91.9108 63.5419 93.4055C63.3502 94.3279 63.6059 95.0281 64.5036 95.4643C64.9566 95.6865 65.3874 95.981 65.7738 96.3061C66.4936 96.9118 66.9939 96.6701 67.4914 96.0033C68.7505 94.3168 69.7455 92.497 70.2902 90.4605C71.1379 87.2931 71.4464 87.4293 68.0723 87.4515C67.9333 87.4515 67.7944 87.4515 67.6554 87.4515H67.6582ZM39.2697 83.484C39.8256 83.484 40.3843 83.4312 40.9318 83.4951C42.2603 83.6479 42.7745 83.02 42.8106 81.7586C42.8357 80.8862 42.8357 79.9666 43.1025 79.1526C43.7862 77.0743 43.3054 75.6879 41.2598 74.6683C40.3148 74.196 39.8729 74.2904 39.3281 75.0406C38.0107 76.8548 37.0546 78.833 36.4765 81.0057C35.8178 83.4896 35.7928 83.484 38.2942 83.4868C38.6166 83.4868 38.9418 83.4868 39.2642 83.4868L39.2697 83.484ZM67.6165 83.4701C68.403 83.4701 69.1896 83.4784 69.9762 83.4701C70.6099 83.4618 70.9434 83.1562 70.8044 82.5032C70.2041 79.661 69.1535 77.0216 67.3274 74.7211C66.8994 74.1821 66.5298 74.1321 65.9294 74.5155C63.2835 76.2075 63.2723 76.188 63.8727 79.2359C63.9366 79.5526 64.0172 79.8721 64.0339 80.1917C64.2451 84.2175 64.2924 83.3895 67.6165 83.4701ZM53.0637 74.5655C54.9231 74.5377 56.2044 74.3738 57.4746 74.1071C58.25 73.9459 58.4446 73.5681 58.0888 72.8235C57.4885 71.5704 56.8715 70.3313 55.9376 69.2838C54.4089 67.5724 52.5579 67.539 51.0431 69.231C50.1426 70.234 49.5367 71.4315 48.9114 72.6234C48.3555 73.682 48.803 74.0598 49.7674 74.1876C51.0487 74.3543 52.3355 74.4821 53.0665 74.5655H53.0637ZM53.4278 96.2839C52.1021 96.4784 50.7346 96.6756 49.3672 96.8812C48.7168 96.9785 48.4972 97.3008 48.7724 97.9453C49.4311 99.4818 50.1787 100.963 51.4378 102.107C52.6663 103.221 54.1838 103.224 55.4373 102.143C56.6991 101.057 57.3829 99.5957 58.0694 98.1259C58.4696 97.2646 58.1444 96.9424 57.3217 96.8312C56.0432 96.6617 54.7675 96.4756 53.4278 96.2867V96.2839Z" fill="#FE5000" fill-opacity="0.8"/>
<path d="M53.5053 0.0250286C60.9957 0.108379 67.1437 3.02287 71.7574 8.95466C72.7413 10.2216 73.7752 10.7606 75.365 11.0579C83.3807 12.5693 89.2813 17.073 92.5415 24.5412C98.2614 37.6384 91.4103 52.1331 77.7442 56.3034C76.21 56.7701 75.0537 56.2978 74.6924 55.0559C74.3811 53.9862 75.0287 53.0555 76.5296 52.5721C83.1695 50.4383 87.6054 46.1263 89.7899 39.461C93.2391 28.9477 85.8043 16.5729 74.8481 15.017C72.0798 14.6253 70.3094 13.6112 68.5639 11.344C63.6834 5.00662 56.9517 2.72837 49.189 4.42872C41.9793 6.0096 37.2016 10.5967 34.9809 17.6731C33.7857 21.485 33.8635 21.51 29.8112 21.8601C23.7717 22.3825 17.8072 28.0308 16.6565 34.3155C15.2029 42.2616 19.3275 49.5464 26.8846 52.3692C28.063 52.8082 29.2943 53.0222 30.5394 53.15C30.9535 53.1916 31.3705 53.2111 31.7818 53.275C33.3744 53.525 34.122 54.2363 34.0275 55.3838C33.9303 56.5368 33.0381 57.2202 31.4983 57.1647C25.6755 56.9563 20.7616 54.6836 17.0706 50.1993C8.26559 39.4999 12.3096 24.105 25.1864 18.9734C26.5705 18.4233 28.0241 18.0732 29.4888 17.9176C30.5033 17.8121 30.8868 17.3564 31.187 16.4507C33.5523 9.31585 38.1521 4.22868 45.2006 1.46699C47.8549 0.433447 50.6148 -0.125003 53.5053 0.0250286Z" fill="#FE5000" fill-opacity="0.8"/>
<path d="M60.3486 34.2182C60.3486 31.4899 60.3402 28.7588 60.3514 26.0304C60.3597 23.7522 60.9851 23.1131 63.2113 23.0992C65.0151 23.0881 66.8217 23.0909 68.6255 23.0992C70.7323 23.1104 71.4772 23.7938 71.5105 25.9082C71.5578 28.8671 71.5272 31.8288 71.5272 34.7906C71.5272 37.4745 71.555 40.1583 71.5161 42.8395C71.4994 43.8952 71.869 44.3787 72.9641 44.3287C73.9313 44.287 74.9152 44.2759 75.8741 44.3926C77.8169 44.6287 78.6062 46.4069 77.2749 47.796C74.0453 51.169 70.7045 54.4419 67.3665 57.712C66.4354 58.6261 65.3514 58.6011 64.4037 57.6592C61.1518 54.4308 57.9139 51.194 54.6842 47.9433C54.0672 47.3237 53.7087 46.568 54.0756 45.6734C54.4563 44.751 55.2262 44.3787 56.174 44.3426C57.005 44.3092 57.8444 44.2648 58.6726 44.3314C59.9122 44.4287 60.4125 43.9925 60.3736 42.6811C60.293 39.8611 60.3486 37.0383 60.3486 34.2154V34.2182ZM71.1131 48.4545C67.5888 48.0128 67.5388 47.9516 67.5388 44.5898C67.5388 39.2276 67.511 33.8654 67.561 28.5031C67.5722 27.3279 67.2803 26.8611 66.0157 26.8778C64.8011 26.8917 64.2897 27.1668 64.3064 28.5004C64.3731 33.7709 64.3342 39.0414 64.3342 44.3092C64.3342 46.6356 63.178 48.0415 60.8655 48.5268C62.4442 50.0993 63.9284 51.5857 65.4209 53.0666C65.7934 53.4361 66.1686 53.3528 66.5132 53.0082C67.9863 51.5496 69.4593 50.091 71.1131 48.4545Z" fill="#FE5000" fill-opacity="0.8"/>
<path d="M40.9456 59.0567C39.9283 59.0567 38.9055 59.104 37.8911 59.0456C36.3513 58.9567 35.5981 58.2732 35.4619 56.734C35.3507 55.4949 35.3924 54.2391 35.3896 52.9916C35.3841 48.5045 35.3896 44.0175 35.3841 39.5277C35.3841 37.7218 35.3424 37.6995 33.4941 37.6829C32.6158 37.6745 31.7237 37.7329 30.8621 37.6106C29.0805 37.355 28.3856 35.6241 29.6336 34.3322C32.9132 30.9398 36.2651 27.6169 39.6448 24.3217C40.6677 23.3243 41.6543 23.5021 42.9106 24.7441C45.6094 27.4113 48.2831 30.1035 50.9624 32.7902C51.4516 33.2819 51.9547 33.7626 52.4077 34.2877C52.958 34.9267 53.1553 35.6658 52.8051 36.4798C52.4522 37.305 51.7657 37.6328 50.9207 37.6634C49.9952 37.6967 49.0641 37.744 48.1469 37.6745C46.9407 37.5801 46.5293 38.0385 46.5405 39.261C46.5933 44.7204 46.5655 50.1799 46.5627 55.6394C46.5627 58.4955 45.9901 59.0706 43.1663 59.079C42.427 59.079 41.6849 59.079 40.9456 59.079C40.9456 59.0734 40.9456 59.0706 40.9456 59.0651V59.0567ZM35.8149 33.5098C39.2974 34.0821 39.3697 34.1682 39.3697 37.455C39.3697 42.8673 39.4058 48.2823 39.3447 53.6945C39.3308 54.9976 39.9589 55.092 40.9678 55.0976C41.999 55.1031 42.6577 54.9503 42.5965 53.6806C42.5187 52.0664 42.5799 50.4438 42.5799 48.8241C42.5799 44.6593 42.566 40.4946 42.5882 36.3326C42.5993 34.4961 43.2691 33.8265 45.0646 33.7015C45.3231 33.682 45.6288 33.7987 45.9429 33.3069C44.5032 31.8955 43.0246 30.4536 41.5598 29.0005C41.0373 28.4809 40.6565 28.7893 40.2674 29.1672C38.8444 30.5536 37.4214 31.94 35.8093 33.5098H35.8149Z" fill="#FE5000" fill-opacity="0.8"/>
</g>
<defs>
<filter id="filter0_i_291_944" x="0" y="0" width="107" height="111" filterUnits="userSpaceOnUse" color-interpolation-filters="sRGB">
<feFlood flood-opacity="0" result="BackgroundImageFix"/>
<feBlend mode="normal" in="SourceGraphic" in2="BackgroundImageFix" result="shape"/>
<feColorMatrix in="SourceAlpha" type="matrix" values="0 0 0 0 0 0 0 0 0 0 0 0 0 0 0 0 0 0 127 0" result="hardAlpha"/>
<feOffset dy="4"/>
<feGaussianBlur stdDeviation="2"/>
<feComposite in2="hardAlpha" operator="arithmetic" k2="-1" k3="1"/>
<feColorMatrix type="matrix" values="0 0 0 0 0.687778 0 0 0 0 0.216623 0 0 0 0 0 0 0 0 1 0"/>
<feBlend mode="normal" in2="shape" result="effect1_innerShadow_291_944"/>
</filter>
<clipPath id="clip0_291_944">
<rect width="107" height="107" fill="white"/>
</clipPath>
</defs>
</svg>
