<svg width="178" height="129" viewBox="0 0 178 129" fill="none" xmlns="http://www.w3.org/2000/svg">
<g clip-path="url(#clip0_291_936)" filter="url(#filter0_i_291_936)">
<path d="M29.5765 0.0259705C31.4721 0.291007 33.2016 1.05494 34.0377 2.98814C34.9518 5.10324 34.5259 7.08322 32.8796 8.70981C28.9222 12.6126 25.4062 16.8792 22.4304 21.5771C12.5732 37.1311 8.84432 54.1194 10.5426 72.3809C12.2564 90.8192 19.4753 106.69 32.516 119.89C34.9985 122.405 35.1491 125.388 33.051 127.472C30.8178 129.691 27.9614 129.499 25.2764 126.828C12.4122 114.038 4.69995 98.5936 1.52157 80.7841C-2.0671 60.6881 0.695811 41.5224 9.81549 23.2764C13.7573 15.3929 18.9508 8.4084 25.1985 2.19823C26.4085 0.992574 27.7536 0.171481 29.5765 0.0259705Z" fill="#FE5000" fill-opacity="0.8"/>
<path d="M177.99 64.726C177.522 88.5274 169.841 109.413 152.973 126.599C151.519 128.08 149.924 129.26 147.738 128.828C145.863 128.46 144.357 127.457 143.754 125.513C143.136 123.512 143.614 121.735 145.1 120.275C149.067 116.377 152.573 112.105 155.549 107.407C165.396 91.8533 169.135 74.8598 167.437 56.5931C165.718 38.16 158.504 22.2786 145.463 9.07878C142.97 6.55314 142.814 3.58578 144.913 1.50186C147.063 -0.639218 149.992 -0.514495 152.516 1.95918C163.521 12.7685 170.818 25.7293 174.811 40.5921C176.935 48.4861 178.099 56.5047 177.99 64.7208V64.726Z" fill="#FE5000" fill-opacity="0.8"/>
<path d="M23.277 67.1426C23.2666 46.9894 29.0625 31.8667 41.0437 19.171C41.6358 18.5422 42.2642 17.9237 42.9653 17.4352C45.0011 16.0113 47.6602 16.2608 49.3948 17.9653C51.1658 19.7062 51.4202 22.2215 49.8518 24.3366C48.6677 25.932 47.2499 27.3455 45.9827 28.8786C37.5641 39.0903 33.2692 50.9598 33.1912 64.0661C33.1082 78.7314 38.1977 91.687 48.112 102.626C48.46 103.011 48.8339 103.375 49.1767 103.764C51.3579 106.285 51.4566 108.935 49.4519 110.972C47.4317 113.03 44.352 113.025 42.0305 110.785C37.7667 106.669 34.1988 101.992 31.3684 96.7903C25.8841 86.7033 22.9965 75.9511 23.277 67.1478V67.1426Z" fill="#FE5000" fill-opacity="0.8"/>
<path d="M154.702 62.268C154.754 81.8755 148.989 97.0085 137.034 109.73C136.442 110.359 135.824 110.983 135.128 111.482C133.014 113.009 130.256 112.75 128.501 110.931C126.777 109.138 126.585 106.649 128.205 104.544C129.784 102.491 131.628 100.631 133.196 98.5728C149.794 76.7878 148.345 46.4074 129.784 26.2698C129.55 26.0151 129.306 25.7709 129.072 25.5111C126.58 22.7412 126.424 20.0596 128.631 17.9341C130.765 15.8814 133.798 16.0269 136.245 18.4746C142.96 25.1941 147.93 33.0412 151.025 42.0265C153.528 49.2812 155.014 56.7282 154.702 62.268Z" fill="#FE5000" fill-opacity="0.8"/>
<path d="M108.486 64.4299C108.47 75.5978 100.078 83.9178 88.8754 83.8763C77.7926 83.8347 69.3584 75.2963 69.4415 64.1908C69.5194 53.7556 78.4781 44.9055 88.9792 44.8899C99.5895 44.8743 108.501 53.8024 108.486 64.4299ZM89.0208 73.8412C94.235 73.8309 98.3223 69.6682 98.2807 64.4039C98.2444 59.2694 94.1935 55.19 89.0935 55.1536C83.8481 55.1172 79.7142 59.2123 79.7038 64.461C79.6882 69.7254 83.791 73.8516 89.0208 73.8412Z" fill="#FE5000" fill-opacity="0.8"/>
<path d="M46.2476 64.4454C46.3826 53.236 50.2829 43.5959 57.6731 35.3538C60.0154 32.7398 62.7056 32.1734 65.0374 33.6492C67.6965 35.3278 68.1068 38.7369 65.7022 41.5328C62.8562 44.8327 60.2802 48.2626 58.7482 52.3785C54.2351 64.5234 56.1255 75.6237 64.2221 85.6951C64.7622 86.3707 65.3854 86.9787 65.8995 87.6699C67.8211 90.2267 67.7069 93.0746 65.6451 94.8987C63.604 96.7019 60.623 96.572 58.4002 94.353C55.0712 91.0322 52.4641 87.1554 50.4283 82.92C47.6082 77.0633 46.2839 70.8531 46.2527 64.4506L46.2476 64.4454Z" fill="#FE5000" fill-opacity="0.8"/>
<path d="M131.706 64.2947C131.446 75.7225 127.696 85.5184 120.14 93.8021C117.725 96.4473 114.567 96.8682 112.339 94.8779C110.158 92.9291 110.039 89.8889 112.449 87.2542C117.019 82.2601 120.021 76.5488 121.122 69.8605C122.737 60.0542 120.213 51.3599 114.069 43.6427C113.425 42.832 112.672 42.1044 112.049 41.2729C110.137 38.7265 110.298 35.8527 112.402 34.0494C114.469 32.2773 117.497 32.4644 119.647 34.699C123.833 39.0591 127.016 44.0844 129.068 49.7801C130.781 54.5404 131.592 59.4773 131.701 64.2895L131.706 64.2947Z" fill="#FE5000" fill-opacity="0.8"/>
</g>
<defs>
<filter id="filter0_i_291_936" x="0" y="0" width="178" height="133" filterUnits="userSpaceOnUse" color-interpolation-filters="sRGB">
<feFlood flood-opacity="0" result="BackgroundImageFix"/>
<feBlend mode="normal" in="SourceGraphic" in2="BackgroundImageFix" result="shape"/>
<feColorMatrix in="SourceAlpha" type="matrix" values="0 0 0 0 0 0 0 0 0 0 0 0 0 0 0 0 0 0 127 0" result="hardAlpha"/>
<feOffset dy="4"/>
<feGaussianBlur stdDeviation="2"/>
<feComposite in2="hardAlpha" operator="arithmetic" k2="-1" k3="1"/>
<feColorMatrix type="matrix" values="0 0 0 0 0.571111 0 0 0 0 0.196179 0 0 0 0 0.023796 0 0 0 0.8 0"/>
<feBlend mode="normal" in2="shape" result="effect1_innerShadow_291_936"/>
</filter>
<clipPath id="clip0_291_936">
<rect width="178" height="129" fill="white"/>
</clipPath>
</defs>
</svg>
