<svg width="109" height="107" viewBox="0 0 109 107" fill="none" xmlns="http://www.w3.org/2000/svg">
<g clip-path="url(#clip0_291_920)" filter="url(#filter0_i_291_920)">
<path d="M59.0929 41.4134C58.5688 43.1189 57.9369 45.2878 57.2248 47.432C56.8303 48.6246 56.6761 49.604 57.8013 50.5927C58.6305 51.3249 59.2871 51.5999 60.3845 51.2786C62.4005 50.6854 64.472 50.2775 66.5219 49.811C68.0601 49.4588 69.1051 50.0087 69.6661 51.5258C70.9824 55.0974 72.3541 58.6473 73.6457 62.2282C74.2838 63.9955 73.9787 64.7123 72.3171 65.633C70.5632 66.6031 68.7753 67.5022 67.0089 68.4476C64.771 69.6495 64.6693 72.0409 66.787 73.3632C68.5287 74.4539 70.2857 75.5198 72.0058 76.6444C73.5625 77.664 73.7906 78.3499 73.0631 79.9998C71.4818 83.5745 69.8572 87.1306 68.2389 90.6868C67.6316 92.0184 66.6082 92.4571 65.2056 92.0215C63.1465 91.382 61.0657 90.8042 59.0312 90.0998C58.0602 89.763 57.3296 89.7321 56.5313 90.523C55.6928 91.3511 55.2027 92.1389 55.551 93.3686C56.0781 95.2502 56.5158 97.1565 56.9628 99.0566C57.4714 101.222 57.1046 101.961 55.067 102.743C51.5683 104.087 48.0603 105.403 44.5493 106.716C42.9895 107.3 42.188 107.019 41.365 105.526C40.2707 103.546 39.2503 101.525 38.1745 99.5324C37.3422 97.9938 34.8114 97.83 33.8496 99.2945C32.6382 101.142 31.5377 103.064 30.3509 104.93C29.3121 106.561 28.3565 106.796 26.5748 105.977C23.3535 104.501 20.126 103.036 16.8985 101.575C14.7407 100.595 14.4078 99.8444 15.1168 97.5797C15.7457 95.5653 16.3529 93.5478 16.9694 91.5303C17.4164 90.0689 15.7518 88.1409 14.2598 88.4561C12.0496 88.9195 9.85176 89.4417 7.65696 89.97C5.77659 90.4211 5.04602 90.1059 4.3247 88.2522C2.93137 84.6558 1.60278 81.0379 0.23103 77.4323C-0.296091 76.045 0.0830664 75.0224 1.38391 74.3334C3.28895 73.3231 5.20015 72.322 7.1021 71.3055C9.08111 70.2489 9.18284 67.7463 7.28397 66.5383C5.50532 65.4075 3.69585 64.3323 1.92953 63.1829C0.400572 62.1881 0.169379 61.4867 0.909198 59.806C2.4844 56.2282 4.10891 52.672 5.73343 49.1189C6.30371 47.8707 7.25006 47.3671 8.62181 47.7966C10.7272 48.4578 12.8357 49.1128 14.9503 49.743C17.1297 50.3919 18.8745 48.8192 18.3967 46.6225C17.9497 44.5617 17.4318 42.5195 16.9479 40.468C16.5348 38.7162 16.9324 37.8233 18.6001 37.1744C22.142 35.7995 25.6993 34.4648 29.2689 33.1734C31.0907 32.5153 31.8645 32.852 32.7892 34.5668C33.8157 36.4669 34.7744 38.4041 35.8009 40.3042C36.6425 41.8614 39.1486 41.9943 40.1196 40.5051C41.3002 38.6976 42.3853 36.8284 43.5289 34.9932C44.6202 33.2382 45.4001 32.9849 47.2311 33.8129C50.6929 35.3794 54.1453 36.9736 57.6071 38.537C58.6552 39.0097 59.2563 39.7326 59.096 41.4165L59.0929 41.4134ZM50.8686 91.3572C50.8316 90.3655 51.2231 89.7877 51.7718 89.2779C52.789 88.3325 53.8772 87.4519 54.7865 86.4138C55.7791 85.283 56.8518 85.0544 58.2267 85.5148C60.1718 86.1667 62.1508 86.7228 64.1052 87.35C64.8172 87.5786 65.221 87.4458 65.5386 86.7012C66.3863 84.7145 67.2802 82.7464 68.2296 80.8062C68.7321 79.7804 68.4084 79.1934 67.5114 78.662C66.0071 77.7752 64.5737 76.7649 63.0447 75.9184C61.522 75.0749 60.7636 73.9935 61.1058 72.1614C61.3 71.114 61.2199 70.0017 61.1674 68.9265C61.0935 67.4559 61.7192 66.5043 63.0232 65.8585C64.8172 64.9718 66.565 63.9831 68.3437 63.0624C69.065 62.6886 69.2716 62.2066 68.9695 61.428C68.1649 59.3672 67.3819 57.2972 66.6421 55.2148C66.3616 54.4269 65.9485 54.189 65.1347 54.3929C63.0417 54.9151 60.9301 55.3538 58.8401 55.876C57.7705 56.1417 56.9505 55.876 56.2261 55.0541C55.2766 53.9727 54.3025 52.9099 53.2791 51.9058C52.3759 51.0191 52.0708 50.0705 52.4869 48.8409C53.1281 46.9407 53.6768 45.0097 54.2995 43.1034C54.5892 42.2136 54.5892 41.6019 53.5227 41.1786C51.6145 40.4216 49.7588 39.5318 47.9124 38.6296C46.9691 38.1693 46.3495 38.2125 45.7761 39.2198C44.7589 41.0056 43.6091 42.7172 42.5333 44.469C41.8983 45.501 40.9889 45.986 39.8052 45.7821C38.4766 45.5535 37.1449 45.5381 35.8132 45.5906C34.4723 45.64 33.5969 45.0808 33.005 43.8697C32.1234 42.0684 31.1308 40.3228 30.2184 38.537C29.8207 37.7553 29.3275 37.5236 28.4829 37.8634C26.4823 38.6667 24.4724 39.4515 22.4379 40.1652C21.5255 40.4865 21.2635 40.9191 21.5224 41.883C22.0464 43.8171 22.4164 45.7945 22.9157 47.7348C23.2702 49.1066 22.8911 50.1169 21.7721 50.9696C20.9182 51.6215 20.0489 52.3136 19.3954 53.154C18.298 54.5567 17.0157 54.7822 15.4343 54.2477C13.779 53.6916 12.0959 53.222 10.4529 52.638C9.30614 52.2302 8.64031 52.5144 8.17175 53.6638C7.41652 55.5206 6.58731 57.3497 5.70877 59.151C5.28029 60.0284 5.40976 60.5413 6.26364 61.0325C7.73403 61.876 9.10269 62.9018 10.5977 63.6896C12.3548 64.6134 13.2149 65.8431 12.8696 67.9039C12.6939 68.9574 12.811 70.0604 12.8234 71.1418C12.8419 72.4085 12.2993 73.2736 11.1557 73.8483C9.32156 74.7721 7.53674 75.7948 5.69644 76.7124C4.90114 77.1079 4.66686 77.5281 5.01828 78.4024C5.82591 80.4045 6.56573 82.4375 7.27472 84.4766C7.59531 85.3974 8.08852 85.6383 9.02563 85.4004C11.0632 84.8814 13.1316 84.4705 15.1754 83.9792C16.2481 83.7197 17.1174 83.9977 17.7802 84.8443C18.7358 86.0616 19.8085 87.1677 20.9182 88.2367C21.6981 88.9875 21.8738 89.8526 21.5162 90.9123C20.8597 92.8619 20.3541 94.864 19.6667 96.8012C19.2999 97.8331 19.6143 98.3027 20.536 98.692C22.3331 99.4521 24.1549 100.184 25.8596 101.12C27.1574 101.834 27.78 101.417 28.4151 100.289C29.3491 98.6333 30.3817 97.0329 31.3805 95.4108C31.9323 94.5148 32.6752 93.9927 33.788 94.0638C35.2214 94.1534 36.6579 94.246 38.0913 94.2121C39.5 94.1781 40.4032 94.7373 41.0166 96.0071C41.8674 97.7651 42.86 99.4552 43.7231 101.207C44.1516 102.078 44.6757 102.276 45.5665 101.921C47.3298 101.216 49.0992 100.506 50.9086 99.9402C52.3451 99.4922 52.7397 98.76 52.3112 97.3017C51.7163 95.2842 51.3094 93.2079 50.8686 91.3511V91.3572Z" fill="#FE5000" fill-opacity="0.8"/>
<path d="M68.9359 4.05048C69.7066 4.15244 70.3416 4.57881 70.9519 5.0577C71.8397 5.75905 72.7029 6.49129 73.6245 7.14629C74.7713 7.96504 75.5635 7.65608 75.8255 6.26884C76.0844 4.90631 76.2478 3.52525 76.4482 2.15345C76.6609 0.698236 77.4901 -0.00619911 78.9636 0.00306977C81.5314 0.0185179 84.0991 -0.0185576 86.6669 0.0154283C88.313 0.0370557 89.0683 0.75076 89.2995 2.43152C89.4628 3.60249 89.5491 4.78581 89.6848 5.95987C89.8728 7.56648 90.8068 8.01756 92.0923 7.08759C93.1743 6.30591 94.2131 5.46244 95.2735 4.64987C96.3863 3.80022 97.4775 3.86202 98.464 4.83216C100.369 6.70756 102.243 8.61077 104.12 10.514C105.159 11.5675 105.162 12.6613 104.247 13.8168C103.448 14.8209 102.675 15.8498 101.923 16.8941C100.979 18.201 101.294 18.9796 102.85 19.2206C104.117 19.4152 105.394 19.5666 106.661 19.7489C108.146 19.9652 108.966 20.8179 108.979 22.3411C108.997 24.9147 109.006 27.4884 108.972 30.059C108.951 31.5574 108.183 32.4503 106.654 32.6388C105.332 32.8026 104.006 32.9818 102.69 33.1826C101.411 33.3803 101.01 34.1682 101.731 35.2403C102.505 36.3896 103.378 37.4741 104.244 38.5585C105.162 39.711 105.159 40.8047 104.117 41.8583C102.24 43.7584 100.36 45.6616 98.4609 47.5401C97.4745 48.5164 96.3709 48.5689 95.2643 47.744C94.1946 46.9469 93.1712 46.0849 92.0954 45.2908C90.8932 44.401 89.9314 44.7934 89.7094 46.2795C89.5368 47.4474 89.4628 48.6338 89.3118 49.8048C89.0744 51.6586 88.3377 52.3414 86.4912 52.3599C84.0282 52.3846 81.5622 52.3846 79.0961 52.3599C77.3267 52.3414 76.7133 51.8316 76.3865 50.0674C76.1708 48.9057 76.0752 47.7224 75.9026 46.5545C75.6251 44.6914 74.8237 44.3454 73.3533 45.4577C72.3699 46.2023 71.402 46.9685 70.4248 47.7162C69.2565 48.6122 68.1345 48.5133 67.1049 47.4968C65.2399 45.6523 63.375 43.8109 61.5593 41.92C60.5729 40.8943 60.5174 39.7326 61.399 38.5709C62.2067 37.505 63.0359 36.4545 63.8158 35.37C64.6697 34.1805 64.3028 33.3834 62.8263 33.1671C61.5069 32.9756 60.1845 32.8026 58.8621 32.6203C57.4071 32.4225 56.658 31.5265 56.6303 30.1177C56.5779 27.4946 56.5841 24.8684 56.6303 22.2453C56.6549 20.8055 57.4811 19.9713 58.896 19.7582C60.2646 19.5511 61.6456 19.4121 63.0112 19.1835C64.2658 18.9703 64.6203 18.1392 63.8867 17.1073C63.113 16.0197 62.2437 14.997 61.4638 13.9126C60.4897 12.5624 60.5297 11.5243 61.6888 10.3162C63.4674 8.46247 65.3077 6.66431 67.1296 4.85379C67.6166 4.3718 68.1961 4.05357 68.9359 4.04739V4.05048ZM96.4202 43.3444C96.9967 43.2671 97.2618 42.8531 97.5854 42.5411C99.2952 40.8953 99.4411 39.1301 98.0232 37.2454C97.4405 36.47 96.7131 35.7562 96.7686 34.6749C96.9227 31.7953 98.8924 29.5523 101.747 29.1197C105.162 28.6038 104.577 28.8262 104.719 25.6068C104.78 24.1918 104.309 23.6202 102.891 23.4101C98.615 22.7736 98.6458 22.7087 97.0706 18.8127C96.6391 17.7437 96.7161 16.8199 97.4097 15.9239C98.1033 15.031 98.7753 14.1196 99.4874 13.239C99.9621 12.652 99.8943 12.204 99.398 11.6263C96.8456 8.67257 96.8641 8.66021 93.8154 10.9774C93.4055 11.2895 92.9955 11.5954 92.5639 11.8734C92.0676 12.1917 91.5189 12.272 90.9363 12.1484C87.3636 11.4038 86.2785 10.2792 85.7021 6.70447C85.6189 6.19777 85.5326 5.69107 85.4493 5.18129C85.3661 4.69004 85.1626 4.23586 84.617 4.21732C83.2946 4.17098 81.8643 3.78168 80.6806 4.41197C79.7373 4.91249 80.2151 6.21013 79.9747 7.13084C79.8699 7.52631 79.8329 7.94032 79.7897 8.35124C79.651 9.65507 79.0376 10.5511 77.7275 10.9342C77.1418 11.1072 76.5653 11.3575 76.0259 11.651C74.5894 12.4357 73.307 12.3276 72.074 11.1999C71.3558 10.5418 70.542 9.99184 69.7652 9.40172C69.4846 9.18853 69.1671 8.84249 68.8157 9.14837C67.7337 10.0907 66.4699 10.9712 65.8749 12.2534C65.4619 13.1463 66.6764 13.7828 67.1665 14.5274C67.5919 15.1701 68.0851 15.7664 68.529 16.3966C68.9791 17.0362 69.0747 17.7314 68.7171 18.4389C66.4082 23.0177 68.2824 22.6748 62.6783 23.4595C62.4749 23.4873 62.2745 23.5584 62.071 23.5677C61.2387 23.614 60.9675 24.0744 60.9027 24.8777C60.6222 28.4956 60.6068 28.4709 64.2134 29.1537C65.1444 29.3298 66.3188 29.1228 66.9076 30.0466C67.817 31.4709 68.5167 33.059 68.8681 34.6996C69.124 35.9045 67.9773 36.7079 67.3207 37.5977C65.5235 40.0261 65.5821 39.9396 67.5519 42.1178C68.6523 43.332 69.5093 43.5297 70.656 42.3155C72.6011 40.2547 74.6695 39.7357 77.3575 41.2342C78.7725 42.022 79.7034 42.7512 79.8267 44.3732C79.8729 44.988 80.0733 45.5967 80.0671 46.2054C80.0548 47.6915 80.6652 48.4237 82.2126 48.2167C82.5671 48.1704 82.937 48.1673 83.2884 48.2167C84.8421 48.4361 85.6559 47.8058 85.5819 46.2054C85.4339 43.1281 86.8981 41.435 89.842 40.6008C91.223 40.2084 92.2803 40.0941 93.3839 41.058C94.1175 41.7007 94.9221 42.2599 95.6989 42.85C95.9393 43.0323 96.1983 43.193 96.4202 43.3444Z" fill="#FE5000" fill-opacity="0.8"/>
<path d="M20.4653 69.8936C20.4684 60.7174 27.845 53.4042 37.0774 53.4228C46.211 53.4444 53.5476 60.878 53.5229 70.0882C53.4983 79.0636 45.8103 86.7691 36.729 86.4756C26.8031 86.1543 20.5671 78.4797 20.4653 69.8905V69.8936ZM36.9016 82.2552C43.8436 82.2706 49.3953 76.7618 49.3676 69.8812C49.3398 63.1149 43.8714 57.6092 37.139 57.569C30.1724 57.5258 24.6391 62.9666 24.6176 69.8781C24.5991 76.7309 30.0645 82.2397 36.9016 82.2583V82.2552Z" fill="#FE5000" fill-opacity="0.8"/>
<path d="M82.8103 37.2578C76.6606 37.2578 71.7069 32.3206 71.7007 26.1908C71.6945 20.1104 76.716 15.1083 82.8226 15.1114C88.9415 15.1114 93.9507 20.1073 93.9446 26.2001C93.9384 32.3021 88.9477 37.2578 82.8103 37.2578ZM82.8504 33.1208C86.7067 33.1054 89.7954 29.9972 89.7708 26.1506C89.7492 22.301 86.6419 19.2422 82.7733 19.2546C78.9817 19.2669 75.7913 22.474 75.819 26.2402C75.8498 30.0528 79.0002 33.1363 82.8504 33.1208Z" fill="#FE5000" fill-opacity="0.8"/>
</g>
<defs>
<filter id="filter0_i_291_920" x="0" y="0" width="109" height="111" filterUnits="userSpaceOnUse" color-interpolation-filters="sRGB">
<feFlood flood-opacity="0" result="BackgroundImageFix"/>
<feBlend mode="normal" in="SourceGraphic" in2="BackgroundImageFix" result="shape"/>
<feColorMatrix in="SourceAlpha" type="matrix" values="0 0 0 0 0 0 0 0 0 0 0 0 0 0 0 0 0 0 127 0" result="hardAlpha"/>
<feOffset dy="4"/>
<feGaussianBlur stdDeviation="2"/>
<feComposite in2="hardAlpha" operator="arithmetic" k2="-1" k3="1"/>
<feColorMatrix type="matrix" values="0 0 0 0 0.863889 0 0 0 0 0.272091 0 0 0 0 0 0 0 0 1 0"/>
<feBlend mode="normal" in2="shape" result="effect1_innerShadow_291_920"/>
</filter>
<clipPath id="clip0_291_920">
<rect width="109" height="107" fill="white"/>
</clipPath>
</defs>
</svg>
