<svg width="90" height="90" viewBox="0 0 90 90" fill="none" xmlns="http://www.w3.org/2000/svg">
<g id="icon">
<path id="Vector" d="M61.875 45C61.875 42.45 61.65 39.975 61.35 37.5H74.025C74.625 39.9 75 42.4125 75 45C75 46.3875 74.8875 47.7375 74.7 49.05C77.2875 49.425 79.6875 50.25 81.9 51.45C82.275 49.35 82.5 47.2125 82.5 45C82.5 24.375 65.625 7.5 45 7.5C24.2625 7.5 7.5 24.375 7.5 45C7.5 65.625 24.375 82.5 45 82.5C47.2125 82.5 49.35 82.275 51.45 81.9C49.6689 78.6335 48.7402 74.9706 48.75 71.25C48.75 70.1625 48.8625 69.1125 49.0125 68.0625C47.8125 70.425 46.5 72.7125 45 74.85C41.8875 70.35 39.375 65.3625 37.8375 60H51.7875C54.0397 56.0863 57.4264 52.9481 61.5 51C61.725 49.0125 61.875 47.025 61.875 45ZM45 15.1125C48.1125 19.6125 50.625 24.6375 52.1625 30H37.8375C39.375 24.6375 41.8875 19.6125 45 15.1125ZM15.975 52.5C15.375 50.1 15 47.5875 15 45C15 42.4125 15.375 39.9 15.975 37.5H28.65C28.35 39.975 28.125 42.45 28.125 45C28.125 47.55 28.35 50.025 28.65 52.5H15.975ZM19.05 60H30C31.3125 64.6875 33 69.1875 35.25 73.35C28.4198 70.9937 22.6682 66.2539 19.05 60ZM30 30H19.05C22.6457 23.7271 28.4055 18.9806 35.25 16.65C33 20.8125 31.3125 25.3125 30 30ZM53.775 52.5H36.225C35.85 50.025 35.625 47.55 35.625 45C35.625 42.45 35.85 39.9375 36.225 37.5H53.775C54.1125 39.9375 54.375 42.45 54.375 45C54.375 47.55 54.1125 50.025 53.775 52.5ZM54.7125 16.65C61.6125 19.0125 67.35 23.775 70.95 30H59.8875C58.7138 25.3555 56.9759 20.8721 54.7125 16.65ZM84.375 64.6875L66.5625 82.5L56.25 71.25L60.6 66.9L66.5625 72.8625L80.025 59.4L84.375 64.6875Z" fill="#2B2B2B"/>
</g>
</svg>
