<svg width="90" height="90" viewBox="0 0 90 90" fill="none" xmlns="http://www.w3.org/2000/svg">
<g id="material-symbols:person">
<path id="Vector" d="M45 45C40.875 45 37.3438 43.5312 34.4062 40.5938C31.4688 37.6562 30 34.125 30 30C30 25.875 31.4688 22.3438 34.4062 19.4063C37.3438 16.4688 40.875 15 45 15C49.125 15 52.6562 16.4688 55.5938 19.4063C58.5312 22.3438 60 25.875 60 30C60 34.125 58.5312 37.6562 55.5938 40.5938C52.6562 43.5312 49.125 45 45 45ZM15 75V64.5C15 62.375 15.5475 60.4212 16.6425 58.6388C17.7375 56.8563 19.19 55.4975 21 54.5625C24.875 52.625 28.8125 51.1712 32.8125 50.2013C36.8125 49.2313 40.875 48.7475 45 48.75C49.125 48.75 53.1875 49.235 57.1875 50.205C61.1875 51.175 65.125 52.6275 69 54.5625C70.8125 55.5 72.2663 56.86 73.3612 58.6425C74.4562 60.425 75.0025 62.3775 75 64.5V75H15Z" fill="#2B2B2B"/>
</g>
</svg>
