<svg width="90" height="90" viewBox="0 0 90 90" fill="none" xmlns="http://www.w3.org/2000/svg">
<g id="material-symbols:routine" clip-path="url(#clip0_886_2832)">
<path id="Vector" d="M42.4688 47.625C45.6562 50.8125 49.2188 53.5475 53.1562 55.83C57.0938 58.1125 61.3125 59.8775 65.8125 61.125C63.3125 64.3125 60.25 66.7975 56.625 68.58C53 70.3625 49.1562 71.2525 45.0938 71.25C37.7812 71.25 31.5775 68.7025 26.4825 63.6075C21.3875 58.5125 18.8425 52.31 18.8475 45C18.8475 40.9375 19.7387 37.0938 21.5212 33.4688C23.3037 29.8438 25.7875 26.7812 28.9725 24.2812C30.2225 28.7812 31.9888 33 34.2712 36.9375C36.5537 40.875 39.2875 44.4375 42.4725 47.625H42.4688ZM69.6562 54.375C68.4062 54.0625 67.1725 53.7188 65.955 53.3438C64.7375 52.9688 63.5337 52.5312 62.3438 52.0312C62.8438 50.9062 63.2038 49.765 63.4238 48.6075C63.6437 47.45 63.7525 46.2475 63.75 45C63.75 39.8125 61.9212 35.39 58.2637 31.7325C54.6063 28.075 50.185 26.2475 45 26.25C43.75 26.25 42.5462 26.36 41.3887 26.58C40.2312 26.8 39.0913 27.1588 37.9688 27.6562C37.4688 26.4688 37.0462 25.2812 36.7012 24.0938C36.3563 22.9062 36.0287 21.6875 35.7188 20.4375C37.2188 19.875 38.75 19.4525 40.3125 19.17C41.875 18.8875 43.4688 18.7475 45.0938 18.75C52.4062 18.75 58.61 21.2975 63.705 26.3925C68.8 31.4875 71.345 37.69 71.34 45C71.34 46.625 71.2 48.2188 70.92 49.7812C70.64 51.3438 70.2175 52.875 69.6525 54.375H69.6562ZM41.25 11.25V0H48.75V11.25H41.25ZM41.25 90V78.75H48.75V90H41.25ZM71.5312 23.8125L66.1875 18.4688L74.1562 10.5938L79.5 15.8438L71.5312 23.8125ZM15.8438 79.4062L10.5 74.1562L18.4688 66.1875L23.8125 71.5312L15.8438 79.4062ZM78.75 48.75V41.25H90V48.75H78.75ZM0 48.75V41.25H11.25V48.75H0ZM74.1562 79.5L66.1875 71.5312L71.5312 66.1875L79.4062 74.1562L74.1562 79.5ZM18.4688 23.8125L10.5938 15.8438L15.8438 10.5L23.8125 18.4688L18.4688 23.8125Z" fill="#2B2B2B"/>
</g>
<defs>
<clipPath id="clip0_886_2832">
<rect width="90" height="90" fill="white"/>
</clipPath>
</defs>
</svg>
