<svg width="37" height="27" viewBox="0 0 37 27" fill="none" xmlns="http://www.w3.org/2000/svg">
<g clip-path="url(#clip0_169_2194)">
<path d="M18.4967 0.00576581C25.5812 0.134843 31.6156 2.6642 36.5386 7.721C37.327 8.53153 37.0655 9.64103 36.0463 9.87546C35.555 9.9884 35.1636 9.78814 34.8406 9.44931C31.4378 5.87215 27.2782 3.6598 22.4005 2.77144C18.9717 2.14694 15.5776 2.35574 12.2344 3.32192C8.56335 4.38302 5.3817 6.26698 2.6635 8.91782C2.49331 9.08391 2.33947 9.26803 2.17409 9.43887C1.62795 10.0036 0.904891 10.0615 0.376059 9.58788C-0.122967 9.1399 -0.133543 8.355 0.386635 7.80547C2.12505 5.96517 4.10192 4.42098 6.32206 3.18145C9.34794 1.49301 12.595 0.481265 16.0487 0.136742C16.8583 0.0560681 17.6746 -0.0217581 18.4967 0.00481672V0.00576581Z" fill="black"/>
<path d="M18.5255 7.3099C23.5918 7.43423 27.8897 9.27169 31.3569 12.9485C31.8165 13.4354 31.906 13.9375 31.6483 14.4196C31.4041 14.8771 30.9464 15.1096 30.4079 15.0517C30.0685 15.0147 29.8204 14.8325 29.5954 14.5923C27.1667 12.0098 24.2033 10.3916 20.6591 9.9019C16.2679 9.29447 12.3497 10.4239 8.9104 13.1791C8.36234 13.6176 7.86524 14.1102 7.38064 14.617C6.86911 15.1514 6.12298 15.2083 5.62299 14.766C5.09127 14.2962 5.07012 13.5702 5.60857 12.9931C8.45753 9.93701 11.9574 8.08816 16.1294 7.49403C16.9227 7.38109 17.7179 7.29567 18.5255 7.3099Z" fill="black"/>
<path d="M18.488 14.6143C21.6013 14.6959 24.1474 15.8718 26.1531 18.1705C26.6589 18.7504 26.6339 19.5221 26.1214 19.9558C25.5512 20.4389 24.8493 20.3497 24.309 19.7261C21.209 16.148 15.8015 16.1366 12.715 19.7024C12.1641 20.3392 11.4853 20.4427 10.9093 19.9776C10.3507 19.5259 10.318 18.7808 10.8555 18.1658C12.8756 15.8547 15.44 14.6845 18.488 14.6143Z" fill="black"/>
<path d="M18.5245 26.9999C17.1563 27.0189 15.9313 25.8306 15.9236 24.4763C15.9159 23.1456 17.0957 21.9611 18.4553 21.9346C19.8312 21.907 21.0437 23.0621 21.0793 24.4326C21.1139 25.7689 19.9072 26.9809 18.5245 26.9999Z" fill="black"/>
</g>
<defs>
<clipPath id="clip0_169_2194">
<rect width="37" height="27" fill="white"/>
</clipPath>
</defs>
</svg>
