<svg width="120" height="120" viewBox="0 0 120 120" fill="none" xmlns="http://www.w3.org/2000/svg">
<g clip-path="url(#clip0_291_1124)">
<path d="M83.9368 112.953C83.9368 112.564 83.9368 112.175 83.9368 111.786C83.9368 106.78 83.9368 106.829 79.1008 106.877C77.6913 106.877 77.181 107.242 77.2296 108.7C77.3268 111.592 77.2782 114.484 77.2539 117.375C77.2539 118.712 77.0352 120.073 75.3341 120C73.8274 119.927 73.6087 118.712 73.633 117.424C73.633 114.459 73.5844 111.47 73.6573 108.505C73.6816 107.315 73.3414 106.926 72.102 106.877C66.9987 106.707 66.9987 106.659 66.9987 111.762C66.9987 113.706 66.9987 115.674 66.9987 117.618C66.9987 118.906 66.6099 120.073 65.0789 120C63.7181 119.927 63.3535 118.858 63.3535 117.643C63.3535 114.605 63.3049 111.543 63.3535 108.505C63.3778 107.29 63.0133 106.926 61.774 106.877C56.695 106.707 56.695 106.659 56.695 111.786C56.695 113.73 56.695 115.699 56.695 117.643C56.695 118.858 56.3548 119.927 54.9696 120C53.4143 120.073 53.0498 118.931 53.0498 117.618C53.0498 114.581 53.0012 111.519 53.0498 108.481C53.0741 107.242 52.661 106.926 51.4459 106.877C46.3669 106.707 46.3912 106.659 46.3912 111.786C46.3912 113.73 46.3912 115.699 46.3912 117.643C46.3912 118.882 46.051 119.927 44.6901 120C43.1348 120.073 42.7946 118.882 42.7703 117.618C42.746 114.654 42.6974 111.665 42.7703 108.7C42.8189 107.217 42.3086 106.877 40.8991 106.877C36.0631 106.853 36.0631 106.78 36.0631 111.567C36.0631 113.512 36.0388 115.48 36.0631 117.424C36.0631 118.712 35.893 119.951 34.3621 120C32.6367 120.073 32.4908 118.688 32.4665 117.375C32.4665 114.484 32.4179 111.592 32.4665 108.7C32.4908 107.485 32.1749 107.023 30.8384 106.804C20.486 105.103 14.8967 99.4897 13.1713 89.0644C12.9769 87.8493 12.5881 87.5091 11.4459 87.5334C8.48113 87.582 5.51637 87.5577 2.5273 87.5334C1.31224 87.5334 -3.63886e-05 87.3876 -0.0243377 85.808C-0.0243377 84.1069 1.26363 83.9368 2.62451 83.9611C5.51637 83.9611 8.40823 83.9125 11.3001 83.9854C12.5395 84.0097 13.0741 83.7667 13.0984 82.3572C13.2199 77.3026 13.2685 77.3026 8.14091 77.3026C6.0996 77.3026 4.08259 77.3269 2.04128 77.2782C0.947716 77.2539 -0.0486391 76.8165 -0.0486391 75.5529C-0.0486391 74.1677 0.874812 73.6816 2.13848 73.6816C5.10324 73.6816 8.09231 73.6087 11.0571 73.6816C12.4665 73.7303 13.0984 73.4629 13.0984 71.8104C13.0984 66.9988 13.1713 66.9988 8.35962 66.9988C6.48842 66.9988 4.61722 66.9988 2.72171 66.9988C1.40944 66.9988 -0.0243377 66.9259 -0.0486391 65.2248C-0.0729404 63.3779 1.43374 63.3293 2.81892 63.3293C5.56497 63.3293 8.28672 63.2564 11.0328 63.3536C12.4665 63.4022 13.0741 63.1106 13.0741 61.4824C13.0741 56.695 13.147 56.695 8.33532 56.695C6.46412 56.695 4.59292 56.695 2.69741 56.695C1.36084 56.695 -3.63886e-05 56.5978 -0.0486391 54.921C-0.0972417 53.2199 1.28793 53.0498 2.60021 53.0498C5.49207 53.0498 8.38392 53.0012 11.2758 53.0498C12.5395 53.0741 13.0255 52.7825 13.0741 51.373C13.1956 46.3669 13.2442 46.3669 8.33532 46.3669C6.29401 46.3669 4.277 46.3669 2.23569 46.3669C0.996318 46.3669 -0.0243377 45.9781 -0.0729404 44.6173C-0.121543 43.2078 0.947716 42.7704 2.13848 42.7704C5.17615 42.7217 8.23812 42.6974 11.2758 42.7704C12.5395 42.7947 13.0255 42.4787 13.0498 41.0936C13.1713 36.0875 13.2199 36.0875 8.31102 36.0875C6.1968 36.0875 4.08259 36.0875 1.96837 36.0875C0.801908 36.0875 -0.0486391 35.5772 -0.121543 34.3621C-0.194447 33.0741 0.753305 32.5638 1.87117 32.5395C4.83593 32.4909 7.82499 32.4423 10.7898 32.5395C12.2235 32.5881 12.904 32.3451 13.1713 30.644C14.7023 20.7533 20.6804 14.8481 30.6682 13.2685C32.1263 13.0498 32.4422 12.5395 32.3936 11.2272C32.3207 8.40826 32.3693 5.58931 32.3936 2.79465C32.3936 1.50668 32.4422 0.0486027 34.1676 0.0486027C35.8687 0.0486027 35.9902 1.40948 35.9659 2.74605C35.9659 5.63791 36.0145 8.52977 35.9416 11.4216C35.893 12.7096 36.2576 13.147 37.6184 13.1713C42.6245 13.2685 42.6245 13.3414 42.6245 8.40826C42.6245 6.46416 42.6245 4.49575 42.6245 2.55164C42.6245 1.31227 42.8675 0.0486027 44.4228 0.0486027C45.9538 0.0486027 46.2697 1.19077 46.2454 2.50304C46.2454 5.4678 46.294 8.45686 46.2211 11.4216C46.1968 12.7096 46.537 13.147 47.8979 13.1713C52.904 13.2685 52.8797 13.3414 52.8797 8.40826C52.8797 6.36695 52.8797 4.34994 52.8797 2.30863C52.8797 1.09356 53.2928 0.0486027 54.678 0.0486027C56.0631 0.0486027 56.5006 1.04496 56.5006 2.28433C56.5006 5.32199 56.5735 8.38396 56.5006 11.4216C56.4763 12.7096 56.8408 13.147 58.2017 13.1713C63.1834 13.2685 63.1591 13.3414 63.1834 8.38396C63.1834 6.34265 63.1834 4.32564 63.1834 2.28433C63.1834 1.04496 63.6209 0.0486027 65.006 0.0243013C66.4155 0.0243013 66.8043 1.06926 66.8286 2.28433C66.8286 5.32199 66.9015 8.38396 66.8286 11.4216C66.8043 12.7339 67.2175 13.1227 68.554 13.147C73.5115 13.2442 73.5115 13.2928 73.5115 8.35966C73.5115 6.31835 73.5115 4.30134 73.5115 2.26002C73.5115 1.02066 73.9489 0.0243013 75.3098 0C76.7193 0 77.1081 1.06926 77.1081 2.26002C77.1324 5.29769 77.181 8.35966 77.1081 11.3973C77.0838 12.7339 77.5455 13.0984 78.8578 13.1227C83.8153 13.2199 83.8153 13.2685 83.8153 8.33536C83.8153 6.39125 83.8153 4.42284 83.8153 2.47874C83.8153 1.16646 84.0826 0 85.6136 0C87.1932 0 87.3876 1.26367 87.4119 2.50304C87.4119 5.3949 87.4605 8.28676 87.4119 11.1786C87.3876 12.4666 87.6549 13.0012 89.1373 13.2442C99.2466 14.8481 105.055 20.6561 106.683 30.8384C106.926 32.3451 107.533 32.5395 108.773 32.5152C111.665 32.4666 114.556 32.4909 117.448 32.5152C118.688 32.5152 119.951 32.7582 119.903 34.3378C119.854 35.8688 118.663 36.1118 117.375 36.0875C114.484 36.0632 111.592 36.1361 108.7 36.0632C107.388 36.0389 106.78 36.2333 106.756 37.8129C106.707 42.7704 106.634 42.7704 111.592 42.7704C113.633 42.7704 115.65 42.7704 117.691 42.7704C118.882 42.7704 119.951 43.2078 119.903 44.6173C119.854 45.9781 118.858 46.3913 117.618 46.3913C114.654 46.3913 111.665 46.4399 108.7 46.3913C107.388 46.367 106.78 46.5614 106.756 48.1409C106.707 53.0741 106.634 53.0741 111.592 53.0741C113.633 53.0741 115.65 53.0741 117.691 53.0741C118.906 53.0741 119.951 53.5358 119.903 54.921C119.854 56.3062 118.834 56.695 117.618 56.695C114.654 56.695 111.665 56.7436 108.7 56.695C107.388 56.6707 106.78 56.8651 106.756 58.4447C106.707 63.3536 106.634 63.3536 111.616 63.3536C113.341 63.3536 115.067 63.3536 116.768 63.3536C118.177 63.3536 119.927 63.2078 119.878 65.2248C119.83 67.2175 118.056 66.9745 116.671 66.9988C114.022 66.9988 111.349 67.0717 108.7 66.9988C107.363 66.9502 106.78 67.2418 106.78 68.7728C106.731 73.6816 106.659 73.6816 111.64 73.6816C113.584 73.6816 115.553 73.6816 117.497 73.6816C118.809 73.6816 119.927 74.0219 119.927 75.5529C119.927 76.9623 118.785 77.3026 117.618 77.3026C114.727 77.3269 111.835 77.3997 108.943 77.3026C107.363 77.2539 106.78 77.6185 106.804 79.3439C106.853 84.0097 106.756 84.0097 111.422 84.0097C113.536 84.0097 115.65 84.0097 117.764 84.0097C119.028 84.0097 119.976 84.4715 119.976 85.8566C119.976 87.1446 118.979 87.5577 117.886 87.5577C114.848 87.6063 111.786 87.6549 108.748 87.5577C107.388 87.5091 106.974 87.9465 106.731 89.3317C105.152 99.2953 99.2709 105.225 89.3317 106.804C87.7764 107.047 87.4362 107.582 87.4848 108.991C87.582 111.81 87.5091 114.629 87.4848 117.424C87.4848 118.736 87.3147 120.122 85.5893 120.049C84.0583 119.976 83.8639 118.736 83.9125 117.473C83.9368 115.99 83.9125 114.508 83.9125 113.026L83.9368 112.953ZM60.0243 103.256C68.9429 103.256 77.8371 103.305 86.7557 103.256C96.5735 103.208 103.256 96.5492 103.256 86.7801C103.305 68.9672 103.305 51.1543 103.256 33.3171C103.256 23.4022 96.5735 16.7679 86.6099 16.7436C68.8699 16.7193 51.13 16.7193 33.39 16.7436C23.4508 16.7436 16.7679 23.4022 16.7679 33.3414C16.7436 51.0814 16.7436 68.8214 16.7679 86.5614C16.7679 96.6221 23.4021 103.232 33.5358 103.256C42.3572 103.281 51.2029 103.256 60.0243 103.256Z" fill="white"/>
<path d="M59.8544 98.6148C51.2517 98.6148 42.6491 98.3961 34.0707 98.6877C26.3915 98.955 21.2396 93.3414 21.3368 86.0753C21.5798 68.7241 21.4097 51.373 21.4097 34.0218C21.4097 25.8323 25.8082 21.4337 33.9978 21.4094C40.7293 21.4094 47.4364 21.4094 54.1679 21.4094C54.6296 21.4094 55.1157 21.4094 55.5774 21.4094C56.7195 21.4094 57.643 21.8468 57.643 23.1348C57.643 24.3742 56.7682 24.8602 55.5774 24.8602C53.1473 24.8602 50.7171 24.9574 48.3113 24.8359C46.7317 24.763 46.27 25.3462 46.3915 26.8286C46.513 28.3839 46.3915 29.9635 46.3915 31.5188C46.3915 32.6852 45.9055 33.5844 44.7147 33.6816C43.3295 33.7788 42.8192 32.7581 42.7949 31.5431C42.7463 29.9149 42.722 28.2624 42.7949 26.6099C42.8435 25.3462 42.479 24.7873 41.0938 24.8359C38.2748 24.9331 35.4559 24.7873 32.6612 24.8845C28.3356 25.0546 24.982 28.1895 24.9334 32.4665C24.8119 45.6865 24.9091 58.8821 24.8605 72.102C24.8605 73.4143 25.3708 73.6573 26.5373 73.633C29.3562 73.5844 32.1752 73.633 34.9699 73.633C36.2335 73.633 37.4729 73.7788 37.5215 75.3584C37.5944 77.1081 36.2335 77.2539 34.9212 77.2782C32.1023 77.2782 29.2833 77.3268 26.4887 77.2782C25.2736 77.2539 24.8362 77.667 24.8848 78.9064C24.9577 81.7253 24.8362 84.5443 24.9334 87.339C25.0792 91.7618 28.287 94.9939 32.6855 95.164C35.5045 95.2855 38.3234 95.1154 41.1181 95.2126C42.5276 95.2612 42.8192 94.7023 42.8192 93.4386C42.7706 87.9708 42.7949 82.503 42.8192 77.0109C42.8192 74.0461 43.2323 73.6573 46.2214 73.6573C52.9528 73.6573 59.66 73.633 66.3915 73.6573C67.6308 73.6573 68.287 73.3657 68.8702 72.1749C70.4741 68.8699 73.9735 67.3147 77.2542 68.1895C80.5835 69.0643 82.9164 72.0048 82.9893 75.3584C83.0379 78.7606 80.6564 81.7739 77.2056 82.6731C73.8277 83.5236 70.5227 82.0413 68.8459 78.6877C68.287 77.5941 67.7037 77.2539 66.5373 77.2782C60.4376 77.3268 54.338 77.3511 48.2384 77.2782C46.7803 77.2782 46.3915 77.7399 46.4158 79.1494C46.4887 83.8396 46.4887 88.5297 46.4158 93.2199C46.3915 94.678 46.7074 95.2612 48.3356 95.2369C56.1606 95.164 63.9613 95.164 71.7864 95.2369C73.366 95.2369 73.8277 94.7266 73.7062 93.2442C73.5847 91.6889 73.7062 90.1093 73.7062 88.554C73.7062 87.3876 74.1922 86.4884 75.383 86.3912C76.7682 86.294 77.2785 87.3147 77.3028 88.5297C77.3514 90.085 77.4 91.6646 77.3028 93.2199C77.2056 94.7023 77.643 95.3098 79.2469 95.2369C81.8228 95.1154 84.3988 95.2369 86.9747 95.1883C91.9079 95.0911 95.1643 91.8347 95.2129 86.8772C95.2615 79.927 95.2129 72.9526 95.2129 66.0024C95.2129 65.4434 95.2129 64.9088 95.2129 64.3499C95.2129 63.2563 95.7232 62.503 96.841 62.4301C98.129 62.3572 98.6637 63.2077 98.6394 64.3742C98.6394 72.588 98.8095 80.8019 98.4692 88.9914C98.2505 94.4835 93.1959 98.5662 87.0962 98.6148C78.0318 98.6877 68.9674 98.6148 59.903 98.6148H59.8544ZM79.2712 75.5285C79.3198 73.3414 77.7645 71.6403 75.6017 71.5674C73.3417 71.4945 71.592 73.1713 71.592 75.4313C71.592 77.5941 73.2202 79.2466 75.4073 79.2709C77.5944 79.2709 79.2469 77.7156 79.2955 75.5285H79.2712Z" fill="white"/>
<path d="M76.4761 21.3851C79.7568 21.3851 83.0375 21.3851 86.3182 21.3851C94.0703 21.4337 98.566 25.8809 98.5903 33.5844C98.6146 40.5346 98.5903 47.4848 98.5903 54.4593C98.5903 55.8201 98.9062 57.6427 96.792 57.5941C94.8965 57.5455 95.1395 55.893 95.1395 54.5565C95.1395 52.3693 95.0909 50.1822 95.1395 47.9951C95.1881 46.78 94.7993 46.3426 93.56 46.3669C90.984 46.4398 88.4081 46.4155 85.8321 46.3669C84.3983 46.3669 82.4785 46.7557 82.5271 44.52C82.5757 42.3086 84.5442 42.7946 85.9536 42.7703C88.3838 42.7217 90.8139 42.6731 93.2197 42.7703C94.7993 42.8432 95.2124 42.26 95.1638 40.7533C95.0666 38.1045 95.1881 35.4313 95.1152 32.7825C94.9694 28.2381 91.7617 25.006 87.2173 24.8602C84.4956 24.763 81.7495 24.9331 79.0034 24.8116C77.4725 24.7387 77.1809 25.3706 77.2052 26.7314C77.2538 32.1992 77.2295 37.667 77.2052 43.1348C77.2052 45.9295 76.7434 46.3669 73.9245 46.3669C67.193 46.3669 60.4858 46.3912 53.7544 46.3669C52.4421 46.3669 51.7131 46.6585 51.0812 47.9465C49.5502 51.13 46.0994 52.661 42.8674 51.859C39.4652 51.0328 37.0107 47.9465 37.0107 44.5443C37.0107 41.215 39.3437 38.2746 42.673 37.3754C46.0508 36.4763 49.4287 37.9343 51.0812 41.215C51.6644 42.3572 52.272 42.7703 53.5357 42.746C59.5624 42.6731 65.5648 42.6731 71.5915 42.746C73.1225 42.746 73.5843 42.3086 73.56 40.7776C73.4627 36.0875 73.4627 31.3973 73.56 26.7071C73.5843 25.1032 73.0253 24.7144 71.5429 24.7873C69.2829 24.8845 67.0229 24.7873 64.7386 24.8116C63.4263 24.8116 62.2841 24.5686 62.2841 23.0133C62.2841 21.5553 63.4506 21.3608 64.6414 21.3608C68.5539 21.3608 72.4664 21.3608 76.3546 21.3608L76.4761 21.3851ZM48.4324 44.6172C48.4567 42.4301 46.8528 40.7776 44.69 40.729C42.4785 40.6804 40.8261 42.2357 40.7288 44.3985C40.6559 46.6828 42.3084 48.4325 44.5685 48.4325C46.7313 48.4325 48.3838 46.8043 48.4324 44.6415V44.6172Z" fill="white"/>
<path d="M67.4849 59.9513C67.5092 63.9854 64.107 67.4362 60.0487 67.4848C56.0147 67.5091 52.5396 64.0826 52.5153 60.0485C52.491 56.0145 55.9175 52.5394 59.9515 52.5151C63.9855 52.5151 67.4363 55.893 67.4849 59.9513ZM56.1605 59.9513C56.1605 62.1628 57.7401 63.8153 59.9515 63.8396C62.1629 63.8396 63.8154 62.26 63.8397 60.0485C63.8397 57.8371 62.2601 56.1846 60.0487 56.1603C57.8373 56.1603 56.1848 57.7399 56.1605 59.9513Z" fill="white"/>
</g>
<defs>
<clipPath id="clip0_291_1124">
<rect width="120" height="120" fill="white"/>
</clipPath>
</defs>
</svg>
