<svg width="30" height="32" viewBox="0 0 30 32" fill="none" xmlns="http://www.w3.org/2000/svg">
<path d="M15.5 5.99597C13.3994 5.99592 11.3459 6.65872 9.59897 7.90061C7.85208 9.1425 6.4902 10.9078 5.68543 12.9733C4.88065 15.0388 4.66911 17.312 5.07752 19.5055C5.48593 21.699 6.49597 23.7143 7.98001 25.297C8.1507 25.4853 8.24509 25.7374 8.24283 25.9991C8.24058 26.2608 8.14188 26.511 7.96797 26.696C7.79407 26.8809 7.55889 26.9858 7.31308 26.9879C7.06726 26.9901 6.83049 26.8893 6.65376 26.7075C5.49366 25.4734 4.57376 24.0078 3.94678 22.3946C3.31979 20.7814 2.99806 19.0523 3.00001 17.3065C3.00001 9.9573 8.59626 4 15.5 4C22.4038 4 28 9.9573 28 17.3065C28.002 19.0523 27.6802 20.7814 27.0532 22.3946C26.4263 24.0078 25.5064 25.4734 24.3463 26.7075C24.1695 26.8893 23.9328 26.9901 23.6869 26.9879C23.4411 26.9858 23.2059 26.8809 23.032 26.696C22.8581 26.511 22.7594 26.2608 22.7572 25.9991C22.7549 25.7374 22.8493 25.4853 23.02 25.297C24.504 23.7143 25.5141 21.699 25.9225 19.5055C26.3309 17.312 26.1194 15.0388 25.3146 12.9733C24.5098 10.9078 23.1479 9.1425 21.401 7.90061C19.6542 6.65872 17.6006 5.99592 15.5 5.99597ZM15.5 10.6532C14.2637 10.6532 13.0551 11.0436 12.0272 11.7749C10.9993 12.5062 10.1982 13.5457 9.72533 14.7617C9.25245 15.9777 9.12899 17.3157 9.37057 18.6065C9.61215 19.8972 10.2079 21.0827 11.0825 22.0129C11.2534 22.2011 11.348 22.4531 11.346 22.7148C11.3439 22.9765 11.2455 23.2268 11.0717 23.4119C10.898 23.5971 10.6629 23.7021 10.4171 23.7045C10.1713 23.7069 9.9344 23.6065 9.75751 23.4248C8.62043 22.2155 7.84583 20.6743 7.5317 18.9963C7.21756 17.3183 7.37801 15.5789 7.99275 13.9979C8.60748 12.417 9.64888 11.0657 10.9852 10.115C12.3215 9.16422 13.8927 8.65674 15.5 8.65674C17.1073 8.65674 18.6785 9.16422 20.0148 10.115C21.3511 11.0657 22.3925 12.417 23.0073 13.9979C23.622 15.5789 23.7825 17.3183 23.4683 18.9963C23.1542 20.6743 22.3796 22.2155 21.2425 23.4248C21.0648 23.601 20.8297 23.697 20.5869 23.6924C20.344 23.6879 20.1122 23.5832 19.9405 23.4003C19.7687 23.2175 19.6703 22.9708 19.666 22.7122C19.6618 22.4537 19.7519 22.2035 19.9175 22.0143C20.7925 21.0841 21.3887 19.8985 21.6305 18.6075C21.8723 17.3166 21.749 15.9783 21.276 14.7619C20.8031 13.5456 20.0018 12.506 18.9737 11.7746C17.9455 11.0432 16.7366 10.653 15.5 10.6532ZM15.5 13.9798C14.6712 13.9798 13.8764 14.3303 13.2903 14.9542C12.7042 15.578 12.375 16.4242 12.375 17.3065C12.375 18.1887 12.7042 19.0349 13.2903 19.6587C13.8764 20.2826 14.6712 20.6331 15.5 20.6331C16.3288 20.6331 17.1237 20.2826 17.7097 19.6587C18.2958 19.0349 18.625 18.1887 18.625 17.3065C18.625 16.4242 18.2958 15.578 17.7097 14.9542C17.1237 14.3303 16.3288 13.9798 15.5 13.9798ZM14.25 17.3065C14.25 16.9535 14.3817 16.6151 14.6161 16.3655C14.8505 16.116 15.1685 15.9758 15.5 15.9758C15.8315 15.9758 16.1495 16.116 16.3839 16.3655C16.6183 16.6151 16.75 16.9535 16.75 17.3065C16.75 17.6594 16.6183 17.9978 16.3839 18.2474C16.1495 18.4969 15.8315 18.6371 15.5 18.6371C15.1685 18.6371 14.8505 18.4969 14.6161 18.2474C14.3817 17.9978 14.25 17.6594 14.25 17.3065Z" fill="#2B2B2B"/>
</svg>
