<svg width="120" height="114" viewBox="0 0 120 114" fill="none" xmlns="http://www.w3.org/2000/svg">
<g clip-path="url(#clip0_291_1132)">
<path d="M19.9529 9.91983C19.9812 15.3048 15.4465 19.9246 10.0332 19.9529C4.64822 19.9812 0.0284733 15.4465 0.000131324 10.0332C-0.0282107 4.64822 4.53485 0.0284733 9.91983 0.000131324C15.3048 -0.0282107 19.9246 4.53485 19.9529 9.91983ZM4.84661 9.91983C4.84661 12.8957 6.94392 15.0781 9.89149 15.1064C12.8674 15.1064 15.0497 13.0091 15.0781 10.0615C15.0781 7.08563 12.9808 4.9033 10.0049 4.87495C7.02894 4.87495 4.84661 6.97226 4.81827 9.91983H4.84661Z" fill="white"/>
<path d="M53.3112 9.91959C53.3395 15.3046 48.8048 19.9243 43.3915 19.9527C38.0065 19.981 33.3868 15.4179 33.3584 10.033C33.3017 4.64797 37.8648 0.0282292 43.2781 -0.000112817C48.6631 -0.0284548 53.2829 4.53461 53.3112 9.91959ZM38.2049 9.91959C38.2049 12.8955 40.3022 15.0778 43.2498 15.1062C46.2257 15.1062 48.408 13.0089 48.4364 10.0613C48.4364 7.08539 46.3391 4.90305 43.3632 4.87471C40.3872 4.87471 38.2049 6.97202 38.1766 9.91959H38.2049Z" fill="white"/>
<path d="M86.6414 9.91959C86.6697 15.3046 82.135 19.9243 76.7217 19.9527C71.3367 19.981 66.7169 15.4179 66.6886 10.033C66.6603 4.64797 71.2233 0.0282292 76.6083 -0.000112817C81.9933 -0.0284548 86.613 4.53461 86.6414 9.91959ZM71.5351 9.91959C71.5351 12.8955 73.6324 15.0778 76.58 15.1062C79.5559 15.1062 81.7382 13.0089 81.7665 10.0613C81.7665 7.08539 79.6692 4.90305 76.6933 4.87471C73.7174 4.87471 71.5351 6.97202 71.5067 9.91959H71.5351Z" fill="white"/>
<path d="M120 9.91959C120.028 15.3046 115.493 19.9243 110.08 19.9527C104.695 19.981 100.075 15.4179 100.047 10.033C100.019 4.64797 104.582 0.0282292 109.967 -0.000112817C115.352 -0.0284548 119.971 4.53461 120 9.91959ZM104.893 9.91959C104.893 12.8955 106.991 15.0778 109.938 15.1062C112.914 15.1062 115.097 13.0089 115.125 10.0613C115.125 7.08539 113.028 4.90305 110.052 4.87471C107.076 4.87471 104.893 6.97202 104.865 9.91959H104.893Z" fill="white"/>
<path d="M19.9529 41.2094C19.9812 46.5944 15.4465 51.2141 10.0332 51.2424C4.64822 51.2708 0.0284733 46.7077 0.000131324 41.3227C-0.0282107 35.9378 4.53485 31.318 9.91983 31.2897C15.3048 31.2613 19.9246 35.8244 19.9529 41.2094ZM4.84661 41.2094C4.84661 44.1853 6.94392 46.3676 9.89149 46.396C12.8674 46.396 15.0497 44.2987 15.0781 41.3511C15.0781 38.3752 12.9808 36.1928 10.0049 36.1645C7.02894 36.1645 4.84661 38.2618 4.81827 41.2094H4.84661Z" fill="white"/>
<path d="M53.3113 41.2094C53.3396 46.5944 48.8049 51.2141 43.3916 51.2424C38.0066 51.2708 33.3869 46.7077 33.3585 41.3227C33.3302 35.9378 37.8932 31.318 43.2782 31.2897C48.6632 31.2613 53.2829 35.8244 53.3113 41.2094ZM38.205 41.2094C38.205 44.1853 40.3023 46.3676 43.2499 46.396C46.2258 46.396 48.4081 44.2987 48.4365 41.3511C48.4365 38.3752 46.3392 36.1928 43.3633 36.1645C40.3873 36.1645 38.205 38.2618 38.1767 41.2094H38.205Z" fill="white"/>
<path d="M86.6414 41.2094C86.6697 46.5944 82.135 51.2141 76.7217 51.2424C71.3367 51.2708 66.7169 46.7077 66.6886 41.3227C66.6603 35.9378 71.2233 31.318 76.6083 31.2897C81.9933 31.2613 86.613 35.8244 86.6414 41.2094ZM71.5351 41.2094C71.5351 44.1853 73.6324 46.3676 76.58 46.396C79.5559 46.396 81.7382 44.2987 81.7665 41.3511C81.7665 38.3752 79.6692 36.1928 76.6933 36.1645C73.7174 36.1645 71.5351 38.2618 71.5067 41.2094H71.5351Z" fill="white"/>
<path d="M120 41.2094C120.028 46.5944 115.493 51.2141 110.08 51.2424C104.695 51.2708 100.075 46.7077 100.047 41.3227C100.019 35.9378 104.582 31.318 109.967 31.2897C115.352 31.2613 119.971 35.8244 120 41.2094ZM104.893 41.2094C104.893 44.1853 106.991 46.3676 109.938 46.396C112.914 46.396 115.097 44.2987 115.125 41.3511C115.125 38.3752 113.028 36.1928 110.052 36.1645C107.076 36.1645 104.893 38.2618 104.865 41.2094H104.893Z" fill="white"/>
<path d="M19.9529 72.4989C19.9812 77.8839 15.4465 82.5037 10.0332 82.532C4.64822 82.5603 0.0284733 77.9973 0.000131324 72.6123C-0.0282107 67.2273 4.53485 62.6076 9.91983 62.5792C15.3048 62.5509 19.9246 67.114 19.9529 72.4989ZM4.84661 72.4989C4.84661 75.4748 6.94392 77.6572 9.89149 77.6855C12.8674 77.6855 15.0497 75.5882 15.0781 72.6406C15.0781 69.6647 12.9808 67.4824 10.0049 67.4541C7.02894 67.4541 4.84661 69.5514 4.81827 72.4989H4.84661Z" fill="white"/>
<path d="M53.3113 72.4989C53.3396 77.8839 48.8049 82.5037 43.3916 82.532C38.0066 82.5603 33.3869 77.9973 33.3585 72.6123C33.3302 67.2273 37.8932 62.6076 43.2782 62.5792C48.6632 62.5509 53.2829 67.114 53.3113 72.4989ZM38.205 72.4989C38.205 75.4748 40.3023 77.6572 43.2499 77.6855C46.2258 77.6855 48.4081 75.5882 48.4365 72.6406C48.4365 69.6647 46.3392 67.4824 43.3633 67.4541C40.3873 67.4541 38.205 69.5514 38.1767 72.4989H38.205Z" fill="white"/>
<path d="M86.6414 72.4989C86.6697 77.8839 82.135 82.5037 76.7217 82.532C71.3367 82.5603 66.7169 77.9973 66.6886 72.6123C66.6603 67.2273 71.2233 62.6076 76.6083 62.5792C81.9933 62.5509 86.613 67.114 86.6414 72.4989ZM71.5351 72.4989C71.5351 75.4748 73.6324 77.6572 76.58 77.6855C79.5559 77.6855 81.7382 75.5882 81.7665 72.6406C81.7665 69.6647 79.6692 67.4824 76.6933 67.4541C73.7174 67.4541 71.5351 69.5514 71.5067 72.4989H71.5351Z" fill="white"/>
<path d="M120 72.4989C120.028 77.8839 115.493 82.5037 110.08 82.532C104.695 82.5603 100.075 77.9973 100.047 72.6123C100.019 67.2273 104.582 62.6076 109.967 62.5792C115.352 62.5509 119.971 67.114 120 72.4989ZM104.893 72.4989C104.893 75.4748 106.991 77.6572 109.938 77.6855C112.914 77.6855 115.097 75.5882 115.125 72.6406C115.125 69.6647 113.028 67.4824 110.052 67.4541C107.076 67.4541 104.893 69.5514 104.865 72.4989H104.893Z" fill="white"/>
<path d="M19.9529 103.788C19.9812 109.173 15.4465 113.793 10.0332 113.822C4.64822 113.85 0.0284733 109.287 0.000131324 103.902C-0.0282107 98.5169 4.53485 93.8971 9.91983 93.8688C15.3048 93.8404 19.9246 98.4035 19.9529 103.788ZM4.84661 103.788C4.84661 106.764 6.94392 108.947 9.89149 108.975C12.8674 108.975 15.0497 106.878 15.0781 103.93C15.0781 100.954 12.9808 98.772 10.0049 98.7436C7.02894 98.7436 4.84661 100.841 4.81827 103.788H4.84661Z" fill="white"/>
<path d="M53.3113 103.788C53.3396 109.173 48.8049 113.793 43.3916 113.822C38.0066 113.85 33.3869 109.287 33.3585 103.902C33.3302 98.5169 37.8932 93.8971 43.2782 93.8688C48.6632 93.8404 53.2829 98.4035 53.3113 103.788ZM38.205 103.788C38.205 106.764 40.3023 108.947 43.2499 108.975C46.2258 108.975 48.4081 106.878 48.4365 103.93C48.4365 100.954 46.3392 98.772 43.3633 98.7436C40.3873 98.7436 38.205 100.841 38.1767 103.788H38.205Z" fill="white"/>
<path d="M86.6414 103.788C86.6697 109.173 82.135 113.793 76.7217 113.822C71.3367 113.85 66.7169 109.287 66.6886 103.902C66.6603 98.5169 71.2233 93.8971 76.6083 93.8688C81.9933 93.8404 86.613 98.4035 86.6414 103.788ZM71.5351 103.788C71.5351 106.764 73.6324 108.947 76.58 108.975C79.5559 108.975 81.7382 106.878 81.7665 103.93C81.7665 100.954 79.6692 98.772 76.6933 98.7436C73.7174 98.7436 71.5351 100.841 71.5067 103.788H71.5351Z" fill="white"/>
<path d="M120 103.788C120.028 109.173 115.493 113.793 110.08 113.822C104.695 113.85 100.075 109.287 100.047 103.902C100.019 98.5169 104.582 93.8971 109.967 93.8688C115.352 93.8404 119.971 98.4035 120 103.788ZM104.893 103.788C104.893 106.764 106.991 108.947 109.938 108.975C112.914 108.975 115.097 106.878 115.125 103.93C115.125 100.954 113.028 98.772 110.052 98.7436C107.076 98.7436 104.893 100.841 104.865 103.788H104.893Z" fill="white"/>
</g>
<defs>
<clipPath id="clip0_291_1132">
<rect width="120" height="113.821" fill="white"/>
</clipPath>
</defs>
</svg>
