<svg width="137" height="117" viewBox="0 0 137 117" fill="none" xmlns="http://www.w3.org/2000/svg">
  <g clip-path="url(#clip0_443_139)">
    <path d="M137 58.4317C137.026 62.6223 134.435 66.2655 130.164 67.756C128.889 68.1999 128.41 68.873 128.075 70.1639C123.211 88.7941 111.658 101.166 93.4142 107.206C93.1231 107.302 92.8283 107.398 92.5261 107.446C89.9761 107.853 88.2368 108.874 87.2234 111.652C85.9263 115.206 81.7439 117.274 78.0884 116.971C74.1712 116.649 70.6852 113.912 69.5613 110.106C69.2149 108.937 68.6217 108.408 67.4683 108.123C52.4372 104.428 41.2054 95.7439 33.8318 82.0921C31.8346 78.3971 30.3421 74.4765 29.4651 70.3562C29.1666 68.9581 28.5512 68.1666 27.1215 67.6636C23.0201 66.2137 20.5475 62.663 20.5033 58.5648C20.459 54.4519 23.0017 50.8013 27.1767 49.3145C28.5181 48.8373 29.104 48.105 29.4319 46.7698C33.0432 32.1674 41.4523 21.212 54.4787 13.8146C58.5654 11.4956 62.9468 9.90515 67.5198 8.86212C68.5922 8.61801 69.1855 8.12609 69.5208 7.02019C70.7811 2.88138 74.3813 0.133263 78.5084 0.0112073C82.5472 -0.10715 86.4238 2.48932 87.8499 6.54306C88.3694 8.02253 89.158 8.6439 90.621 9.02487C106.875 13.2561 118.45 23.1131 125.37 38.4552C126.535 41.0368 127.5 43.7258 128.005 46.5183C128.278 48.0236 128.882 48.8152 130.378 49.333C134.446 50.7459 136.974 54.3779 136.996 58.428L137 58.4317ZM123.944 48.4601C123.439 45.9191 122.695 43.4447 121.693 41.0553C115.598 26.5566 104.933 17.3617 89.8066 13.3153C88.7121 13.0231 88.012 13.1822 87.3634 14.24C82.982 21.3784 74.5434 21.4191 70.1988 14.3214C69.5761 13.3042 68.9607 12.9824 67.811 13.2968C50.0825 18.1791 38.6997 29.4341 33.806 47.2654C33.4375 48.608 33.6623 49.3071 34.9705 50.0505C41.5555 53.7825 41.5887 63.1771 35.0221 66.9164C33.6328 67.7043 33.4523 68.4662 33.8355 69.8532C38.6886 87.359 49.8357 98.5438 67.214 103.552C68.7801 104.003 69.5908 103.718 70.4678 102.265C74.4034 95.7402 83.2768 95.8178 87.146 102.387C87.9199 103.7 88.6606 103.999 90.1051 103.615C99.5718 101.081 107.612 96.2617 113.984 88.7534C118.804 83.0722 122.08 76.5922 123.804 69.3206C124.055 68.2664 123.882 67.6525 122.831 67.1125C119.334 65.3223 117.529 62.2746 117.547 58.4354C117.565 54.6738 119.382 51.7223 122.769 49.8841C123.355 49.566 124.088 49.3847 123.944 48.4601ZM132.541 58.4909C132.541 55.5023 130.091 53.0427 127.18 53.0982C124.379 53.15 121.984 55.6429 121.984 58.4983C121.984 61.3056 124.445 63.8576 127.191 63.8983C130.105 63.9427 132.541 61.4794 132.538 58.4872L132.541 58.4909ZM35.5416 58.5537C35.5711 55.7354 33.1059 53.15 30.3421 53.0982C27.4457 53.0464 25.0874 55.3766 25.0247 58.3503C24.9584 61.4461 27.2357 63.8687 30.2316 63.8983C32.9769 63.9279 35.5085 61.3758 35.538 58.55L35.5416 58.5537ZM83.9438 9.83487C83.9475 6.7169 81.8655 4.56797 78.8143 4.54578C75.7447 4.51989 73.3863 6.85744 73.4305 9.88665C73.4711 12.7494 75.8995 15.1351 78.7664 15.1351C81.6591 15.1351 83.9401 12.8012 83.9438 9.83857V9.83487ZM83.9438 107.276C83.9769 104.288 81.7623 101.917 78.888 101.861C75.9584 101.806 73.4158 104.284 73.4305 107.18C73.4453 110.15 75.7152 112.417 78.7001 112.447C81.7586 112.477 83.9069 110.357 83.9401 107.273L83.9438 107.276Z" fill="white"/>
    <path d="M32.1035 0C41.4965 0 50.8895 0 60.2825 0.00369867C60.9569 0.00369867 61.646 -0.0184934 62.2982 0.107261C63.3779 0.314387 64.0449 1.02083 64.1076 2.14153C64.1702 3.27702 63.5659 4.02785 62.4825 4.29415C61.8376 4.4532 61.1485 4.50868 60.4815 4.50868C41.5739 4.51977 22.6663 4.51977 3.75503 4.51238C1.11658 4.51607 -0.00733395 3.81333 3.59963e-05 2.25619C0.00740595 0.702747 1.15343 0 3.74397 0C13.1959 0 22.6516 0 32.1035 0Z" fill="white"/>
    <path d="M32.1661 116.996C22.8357 116.996 13.5017 116.996 4.17134 116.996C3.55595 116.996 2.94056 117.015 2.33254 116.959C1.02438 116.833 0.0773371 116.216 0.0183775 114.799C-0.0405821 113.335 0.946991 112.743 2.22936 112.573C2.9553 112.476 3.69967 112.48 4.43298 112.48C22.9131 112.476 41.3896 112.476 59.8697 112.48C60.4814 112.48 61.1005 112.458 61.7085 112.528C63.0499 112.687 64.148 113.235 64.1001 114.792C64.0522 116.297 63.0351 116.911 61.6348 116.981C61.0821 117.007 60.5293 117 59.9766 117C50.7052 117 41.4375 117 32.1661 117V116.996Z" fill="white"/>
    <path d="M15.2116 32.6519C11.2871 32.6519 7.3626 32.6519 3.4381 32.6519C2.70111 32.6519 1.95674 32.6815 1.27871 32.3227C0.453275 31.8863 -0.0552516 31.2242 0.00739301 30.2552C0.0700376 29.3009 0.578564 28.6203 1.50349 28.3688C2.08572 28.2098 2.70848 28.1321 3.31282 28.1321C11.0992 28.1173 18.8892 28.121 26.6756 28.121C26.9225 28.121 27.1657 28.121 27.4126 28.1358C28.8386 28.2172 29.9699 28.7276 30.1173 30.3254C30.2389 31.6348 29.104 32.6075 27.3536 32.626C23.3075 32.6704 19.2577 32.6408 15.2116 32.6408C15.2116 32.6408 15.2116 32.6482 15.2116 32.6519Z" fill="white"/>
    <path d="M15.2189 84.3444C18.9591 84.3444 22.6994 84.337 26.4396 84.3518C27.1103 84.3518 27.803 84.3629 28.4442 84.5293C29.5092 84.7993 30.1393 85.5723 30.1135 86.6782C30.0877 87.6954 29.4871 88.4166 28.4885 88.6681C27.9025 88.8161 27.2798 88.8679 26.6718 88.8716C18.9444 88.8863 11.217 88.879 3.49327 88.879C3.24637 88.879 3.00317 88.8827 2.75627 88.8679C0.93958 88.7495 -0.103268 87.9136 0.0146509 86.5562C0.15468 84.9473 1.28597 84.4258 2.70837 84.3666C3.68857 84.3259 4.66877 84.3481 5.65266 84.3481C8.84017 84.3481 12.0314 84.3481 15.2189 84.3481V84.3444Z" fill="white"/>
    <path d="M6.81719 60.6988C5.3432 60.6988 3.86921 60.7432 2.3989 60.6841C0.998614 60.6286 -0.00369975 59.9665 0.0257801 58.4353C0.0515749 57.0076 1.02072 56.3381 2.33994 56.3159C5.34688 56.2641 8.35751 56.2567 11.3644 56.3085C12.6947 56.3307 13.6307 57.052 13.6381 58.4649C13.6454 59.9813 12.6505 60.6508 11.2428 60.6952C9.77254 60.7432 8.29486 60.7062 6.82087 60.7062C6.82087 60.7062 6.82087 60.6989 6.82087 60.6952L6.81719 60.6988Z" fill="white"/>
    <path d="M78.4899 94.0127C59.2617 93.9905 43.3021 77.7867 43.3463 58.3317C43.3868 38.873 59.4496 22.8762 79.0095 23.0094C97.8507 23.1388 114.065 38.2146 114.087 58.4833C114.109 78.7705 97.7291 94.046 78.4899 94.0127ZM103.702 60.7358V60.7284C102.475 60.7284 101.241 60.8209 100.025 60.7062C98.3593 60.5472 97.497 61.102 97.4417 62.8773C97.3054 67.0198 96.5389 71.0662 95.3855 75.0349C95.1165 75.9595 95.555 76.2443 96.292 76.4736C97.9871 77.0062 99.6895 77.5278 101.355 78.1454C102.232 78.4709 102.73 78.1491 103.227 77.4945C106.65 72.9932 108.769 67.9667 109.451 62.3262C109.587 61.1907 109.263 60.7062 108.121 60.7284C106.65 60.758 105.176 60.7358 103.706 60.7358H103.702ZM53.8485 60.7432C52.3155 60.7432 50.7826 60.7432 49.2496 60.7432C48.3431 60.7432 47.8972 61.1168 48.0078 62.1043C48.66 67.8077 50.7826 72.9007 54.217 77.4723C54.836 78.2971 55.4809 78.4191 56.439 78.0345C57.913 77.4427 59.4349 76.9286 60.9752 76.5476C62.1139 76.2665 62.2907 75.745 61.9959 74.702C60.8315 70.6075 60.1903 66.4206 59.9139 62.1783C59.8476 61.1796 59.4312 60.7247 58.4436 60.7358C56.9107 60.7506 55.3777 60.7395 53.8448 60.7395L53.8485 60.7432ZM103.717 56.2715C105.007 56.2715 106.297 56.2123 107.583 56.2863C109.064 56.3714 109.661 55.9793 109.422 54.2964C108.685 49.122 106.754 44.4875 103.802 40.2119C102.984 39.0283 102.243 38.8064 100.931 39.4019C99.4906 40.0565 97.9134 40.419 96.3915 40.885C95.7503 41.0811 95.216 41.2956 95.4629 42.1463C96.6789 46.2999 97.2464 50.5645 97.5781 54.866C97.6665 55.9978 98.3077 56.2937 99.3063 56.2752C100.777 56.2493 102.251 56.2678 103.725 56.2752L103.717 56.2715ZM53.8153 56.2604C55.3482 56.2604 56.8775 56.2604 58.4105 56.2604C59.2396 56.2604 59.8292 56.0237 59.8955 55.0398C60.1719 50.8012 60.8131 46.6143 61.9259 42.5125C62.2023 41.4916 61.7454 41.0663 60.8131 40.8037C59.3391 40.3931 57.8577 39.9641 56.4464 39.3834C55.1972 38.8656 54.4381 39.143 53.6716 40.2452C50.6315 44.6133 48.6748 49.3772 48.0336 54.6848C47.8935 55.8462 48.3026 56.2826 49.4044 56.2678C50.8747 56.2493 52.345 56.2641 53.8153 56.2604ZM76.4926 67.5192C76.4926 65.7956 76.4705 64.0683 76.5 62.3447C76.5184 61.2906 76.1241 60.7284 75.0039 60.7358C71.8717 60.7543 68.7431 60.7469 65.6109 60.7358C64.7265 60.7358 64.2659 60.9873 64.347 62.034C64.6491 65.9768 65.2313 69.8604 66.2963 73.6737C66.569 74.6465 67.0407 75.1717 68.1093 75.0644C70.5488 74.8203 72.9587 74.3099 75.4277 74.2951C76.3342 74.2877 76.4963 73.6257 76.4963 72.8822C76.4963 71.0958 76.4963 69.3093 76.4963 67.5229L76.4926 67.5192ZM81.0067 67.5044C81.0067 67.5044 81.0104 67.5044 81.0141 67.5044C81.0141 69.2871 81.0141 71.0699 81.0141 72.8526C81.0141 73.6959 81.2757 74.3062 82.2486 74.3136C84.5848 74.3284 86.8769 74.7501 89.18 75.0533C90.1749 75.1828 90.8272 74.8832 91.122 73.855C92.2127 70.0638 92.9129 66.2061 93.0824 62.256C93.1303 61.1279 92.5739 60.7284 91.5236 60.7321C88.583 60.7506 85.6461 60.7654 82.7055 60.7247C81.4158 60.7062 80.9699 61.3054 81.003 62.526C81.0473 64.183 81.0141 65.8437 81.0141 67.5044H81.0067ZM76.4963 49.6102C76.4963 48.0124 76.4521 46.4109 76.5111 44.813C76.5553 43.5777 76.1094 43.0192 74.8233 43.0266C72.616 43.034 70.4198 42.7936 68.2493 42.3941C67.0444 42.1722 66.4695 42.6234 66.1563 43.8107C65.1982 47.4502 64.6602 51.1451 64.3506 54.8919C64.2548 56.0422 64.7523 56.2789 65.7104 56.2752C68.7726 56.2604 71.8385 56.2456 74.9007 56.2752C76.091 56.2863 76.5405 55.7426 76.5111 54.5923C76.4705 52.9316 76.5 51.2709 76.5037 49.6102H76.4963ZM86.8916 56.2641C88.4246 56.2641 89.9575 56.2493 91.4905 56.2678C92.526 56.2826 93.1229 55.9127 93.0787 54.7698C92.9276 50.938 92.2533 47.1987 91.2252 43.5148C90.9635 42.5753 90.3813 42.224 89.438 42.383C87.1385 42.7677 84.8244 43.0155 82.4918 43.0488C81.5189 43.0599 81.0067 43.4482 81.0104 44.4727C81.0215 47.9199 81.0215 51.3634 81.0104 54.8105C81.0104 55.8092 81.4895 56.2715 82.477 56.2641C83.9473 56.253 85.4213 56.2641 86.8916 56.2641ZM76.4963 33.7688C76.4963 32.6629 76.4742 31.5533 76.5037 30.4474C76.5368 29.1861 75.9546 29.0752 75.0334 29.6337C73.0545 30.8358 71.4995 32.4854 70.2871 34.4383C69.657 35.4554 68.3709 36.6094 68.8795 37.6339C69.3843 38.6547 71.0573 38.3884 72.266 38.4476C77.2996 38.688 76.4152 38.6769 76.5 34.5085C76.5037 34.2607 76.5 34.0166 76.5 33.7688H76.4963ZM81.0067 33.7244C81.0067 33.7244 81.0104 33.7244 81.0141 33.7244C81.0141 34.8266 81.0141 35.9325 81.0141 37.0347C81.0141 37.878 81.3052 38.4957 82.2559 38.5031C84.15 38.5179 86.0441 38.5475 87.9087 38.1258C88.5167 37.989 89.0363 37.8114 88.6604 37.0495C87.1791 34.0388 85.3513 31.3166 82.3481 29.6078C81.4452 29.0937 80.9772 29.3193 80.9994 30.4104C81.0215 31.5126 81.003 32.6185 81.003 33.7207L81.0067 33.7244ZM76.4926 83.3014C76.4926 83.3014 76.4853 83.3014 76.4816 83.3014C76.4816 82.1289 76.4816 80.9601 76.4816 79.7876C76.4816 79.0442 76.1905 78.63 75.3613 78.7224C73.471 78.9332 71.5769 79.1145 69.6865 79.3105C69.1337 79.3697 68.64 79.5509 68.9679 80.2315C70.4124 83.2274 72.347 85.8165 75.2876 87.492C76.1757 87.9987 76.5074 87.5253 76.4926 86.6302C76.4779 85.5206 76.4889 84.411 76.4889 83.3014H76.4926ZM81.003 83.2274C81.003 84.2741 81.0436 85.3209 80.992 86.3639C80.922 87.8951 81.6074 87.8655 82.6465 87.2405C84.6401 86.0384 86.0772 84.3 87.3265 82.3767C89.1174 79.6138 89.0989 79.3697 85.8746 79.1108C80.0928 78.6521 81.1246 77.5758 81.003 83.2274ZM89.4637 29.6707C90.8972 31.7382 92.1132 33.8502 93.1856 36.0509C93.4435 36.5798 93.8378 36.994 94.4864 36.8202C95.7835 36.4688 97.0732 36.0879 98.3519 35.681C98.9857 35.4813 99.1184 35.0929 98.5546 34.638C95.8424 32.441 92.9571 30.551 89.4637 29.6707ZM68.0393 29.6448C64.6012 30.5731 61.679 32.3929 58.9853 34.6195C58.2704 35.2113 58.7163 35.559 59.328 35.7513C60.4925 36.1212 61.6717 36.4466 62.8435 36.7943C63.5694 37.0088 64.0079 36.676 64.3027 36.0435C65.3345 33.8169 66.6685 31.7715 68.0356 29.6448H68.0393ZM68.3857 87.6806C67.1586 85.7795 66.16 84.3814 65.3198 82.8945C63.8089 80.2241 63.8495 80.1982 60.9715 81.1229C60.5035 81.2708 60.0392 81.4225 59.5749 81.5778C58.9816 81.7775 58.6795 82.1474 59.2727 82.6171C61.9038 84.718 64.7191 86.497 68.3857 87.6769V87.6806ZM89.1358 87.5807C91.9548 86.9187 93.9889 85.5798 95.9972 84.2482C96.9221 83.6343 98.5841 83.0905 98.3593 82.0512C98.1787 81.2116 96.4173 81.0674 95.3007 80.79C94.5711 80.6087 93.6462 80.1205 93.1561 81.0896C92.0616 83.2533 90.7461 85.2765 89.1321 87.5807H89.1358Z" fill="white"/>
  </g>
  <defs>
    <clipPath id="clip0_443_139">
      <rect width="137" height="117" fill="white"/>
    </clipPath>
  </defs>
</svg>
