<svg width="137" height="100" viewBox="0 0 137 100" fill="none" xmlns="http://www.w3.org/2000/svg">
  <g clip-path="url(#clip0_443_147)">
    <path d="M22.7639 0.0202637C24.2229 0.225718 25.554 0.817911 26.1975 2.31652C26.901 3.95613 26.5733 5.491 25.3062 6.75192C22.2603 9.77735 19.5542 13.0848 17.2638 16.7265C9.67712 28.7839 6.80713 41.9532 8.11421 56.1094C9.43329 70.4026 14.9894 82.7057 25.0264 92.9381C26.937 94.8879 27.0529 97.2003 25.4381 98.8157C23.7193 100.536 21.5208 100.387 19.4543 98.3162C9.5532 88.402 3.61736 76.4292 1.17108 62.6235C-1.59099 47.0452 0.535521 32.188 7.5546 18.0439C10.5885 11.9326 14.5857 6.51827 19.3943 1.70419C20.3257 0.769569 21.3609 0.133062 22.7639 0.0202637Z" fill="white"/>
    <path d="M136.992 50.1752C136.632 68.6258 130.72 84.8165 117.738 98.1388C116.618 99.2869 115.391 100.201 113.708 99.867C112.265 99.581 111.106 98.8035 110.643 97.2968C110.167 95.7458 110.535 94.3681 111.678 93.2361C114.732 90.2147 117.43 86.9032 119.72 83.2615C127.299 71.2041 130.177 58.0308 128.87 43.8706C127.547 29.5814 121.995 17.2702 111.958 7.03779C110.039 5.07993 109.919 2.77965 111.534 1.16421C113.189 -0.495542 115.443 -0.398858 117.386 1.51872C125.856 9.89804 131.472 19.9452 134.546 31.4667C136.181 37.5861 137.076 43.8021 136.992 50.1712V50.1752Z" fill="white"/>
    <path d="M17.9155 52.0485C17.9075 36.4259 22.3684 24.7029 31.5899 14.8612C32.0456 14.3737 32.5293 13.8943 33.0689 13.5157C34.6358 12.4119 36.6823 12.6052 38.0174 13.9266C39.3805 15.2761 39.5763 17.2259 38.3692 18.8655C37.4578 20.1023 36.3666 21.1981 35.3912 22.3865C28.9118 30.3025 25.6061 39.5037 25.5461 49.6636C25.4822 61.0321 29.3994 71.0752 37.0301 79.5552C37.2979 79.8533 37.5857 80.1353 37.8495 80.4375C39.5284 82.3913 39.6043 84.4459 38.0614 86.025C36.5065 87.6203 34.1361 87.6163 32.3494 85.88C29.0677 82.6894 26.3216 79.0638 24.1431 75.0312C19.9221 67.2118 17.6996 58.8768 17.9155 52.0525V52.0485Z" fill="white"/>
    <path d="M119.069 48.2698C119.109 63.4695 114.672 75.2005 105.47 85.0623C105.014 85.5498 104.539 86.0332 104.003 86.4199C102.376 87.6043 100.254 87.4029 98.9028 85.9929C97.5757 84.6031 97.4278 82.6734 98.6749 81.0419C99.8901 79.4506 101.309 78.0084 102.516 76.4131C115.291 59.5255 114.176 35.9748 99.8901 20.3643C99.7102 20.1669 99.5223 19.9775 99.3425 19.7761C97.4238 17.6289 97.3039 15.5502 99.0027 13.9025C100.646 12.3113 102.98 12.4241 104.863 14.3215C110.031 19.5304 113.856 25.6134 116.239 32.5788C118.165 38.2026 119.308 43.9754 119.069 48.2698Z" fill="white"/>
    <path d="M83.4975 49.9456C83.4855 58.6029 77.026 65.0526 68.404 65.0203C59.874 64.9881 53.3826 58.3692 53.4465 49.7603C53.5065 41.671 60.4016 34.8104 68.484 34.7984C76.6503 34.7863 83.5094 41.7073 83.4975 49.9456ZM68.516 57.2412C72.5291 57.2332 75.6749 54.0063 75.643 49.9255C75.615 45.9453 72.4972 42.7829 68.5719 42.7547C64.5347 42.7265 61.353 45.901 61.345 49.9698C61.333 54.0507 64.4908 57.2493 68.516 57.2412Z" fill="white"/>
    <path d="M35.595 49.9578C35.6989 41.2682 38.7008 33.7953 44.3888 27.4061C46.1915 25.3797 48.2621 24.9406 50.0568 26.0847C52.1034 27.386 52.4192 30.0287 50.5685 32.196C48.378 34.7541 46.3954 37.4129 45.2162 40.6035C41.7427 50.0182 43.1976 58.6231 49.4293 66.4304C49.845 66.9541 50.3246 67.4254 50.7204 67.9612C52.1993 69.9433 52.1114 72.1509 50.5245 73.5649C48.9536 74.9628 46.6592 74.8621 44.9484 73.1419C42.3862 70.5677 40.3796 67.5624 38.8127 64.2792C36.6422 59.739 35.6229 54.9249 35.599 49.9618L35.595 49.9578Z" fill="white"/>
    <path d="M101.369 49.8409C101.169 58.6996 98.2832 66.2934 92.4673 72.7149C90.6086 74.7654 88.1783 75.0917 86.4635 73.5488C84.7847 72.0381 84.6928 69.6814 86.5475 67.6389C90.065 63.7675 92.3754 59.3402 93.2228 54.1555C94.4659 46.5536 92.5233 39.8139 87.7946 33.8316C87.2989 33.2031 86.7193 32.6391 86.2397 31.9946C84.7687 30.0206 84.8926 27.7928 86.5115 26.3949C88.1024 25.0212 90.4327 25.1662 92.0876 26.8985C95.3093 30.2784 97.7596 34.174 99.3385 38.5892C100.658 42.2794 101.281 46.1065 101.365 49.8369L101.369 49.8409Z" fill="white"/>
  </g>
  <defs>
    <clipPath id="clip0_443_147">
      <rect width="137" height="100" fill="white"/>
    </clipPath>
  </defs>
</svg>
