<svg width="120" height="120" viewBox="0 0 120 120" fill="none" xmlns="http://www.w3.org/2000/svg">
<g clip-path="url(#clip0_291_1129)">
<path d="M103.109 86.8313C103.219 83.6261 104.652 81.1494 107.931 79.7653C109.171 79.2311 109.557 78.6483 109.557 77.4828C109.502 65.8519 109.502 54.1967 109.557 42.5658C109.557 41.4245 109.226 40.7932 107.986 40.259C104.542 38.7778 102.916 36.1797 103.274 32.8288C103.384 31.7604 103.054 31.2991 102.089 30.8135C90.5991 24.9616 79.1089 19.0854 67.6738 13.185C66.544 12.6022 65.8552 12.8207 64.8632 13.4035C61.6669 15.3218 58.3328 15.3218 55.2191 13.3792C54.0343 12.6508 53.2627 12.7722 52.1606 13.3549C40.9183 19.134 29.676 24.8644 18.4062 30.5949C17.249 31.1777 16.6703 31.7119 16.8356 33.0959C17.2214 36.4711 14.6313 39.7005 11.1043 40.6961C7.35688 41.7402 3.19614 40.3319 1.21221 37.3452C-0.689049 34.48 -0.165513 30.8863 2.45217 28.4824C5.20762 25.9814 9.50613 25.4229 12.8953 27.414C14.3282 28.2639 15.2375 28.1668 16.6152 27.4626C27.6921 21.7321 38.7691 16.0502 49.9011 10.4411C51.3064 9.73697 51.7748 9.05708 51.6646 7.55162C51.3615 3.4723 55.2742 0.0485818 59.9034 1.85095e-05C64.6703 -0.0485448 68.6933 3.39945 68.3902 7.60018C68.28 9.15421 68.831 9.76125 70.2088 10.4654C81.3408 16.0988 92.4453 21.7564 103.495 27.4869C104.9 28.2153 105.809 28.2153 107.215 27.414C111.21 25.1315 116.363 26.2971 118.76 29.8179C121.24 33.4602 119.917 38.0494 115.591 40.0648C114.103 40.7447 113.607 41.4245 113.607 42.8814C113.69 54.2938 113.69 65.6819 113.607 77.0943C113.607 78.5269 114.103 79.2311 115.564 79.911C119.917 81.9264 121.212 86.5156 118.732 90.1579C116.335 93.703 111.182 94.8928 107.187 92.5617C105.616 91.639 104.652 91.8819 103.247 92.6103C92.2524 98.2922 81.2306 103.926 70.1812 109.51C68.8035 110.215 68.2248 110.822 68.3626 112.376C68.6657 116.576 64.6428 120.024 59.8758 119.976C55.1364 119.927 51.2788 116.406 51.6095 112.181C51.7197 110.846 51.2513 110.263 50.0664 109.656C38.7966 103.926 27.5543 98.1951 16.3121 92.3918C15.1273 91.7847 14.3282 91.6876 13.0607 92.4161C8.81726 94.8685 3.52679 93.7273 1.12955 89.9879C-1.24014 86.2971 0.192696 81.805 4.60142 79.8139C6.06181 79.1583 6.36491 78.4055 6.36491 77.1186C6.3098 67.673 6.36491 58.2275 6.36491 48.7576C6.36491 48.0534 6.3098 47.3493 6.44758 46.6451C6.64046 45.7224 7.30177 45.0425 8.40395 45.0425C9.50613 45.0425 10.2225 45.6738 10.3879 46.6208C10.5256 47.3007 10.4705 48.0292 10.4705 48.7333C10.4705 58.106 10.4981 67.4788 10.4705 76.8515C10.4705 78.2841 10.7185 79.1583 12.4269 79.911C15.6508 81.3193 17.1387 83.9175 16.753 87.0741C16.6152 88.2882 17.1112 88.7252 18.1031 89.2352C29.5107 95.0628 40.9183 100.89 52.2983 106.742C53.3454 107.276 54.0618 107.252 55.1089 106.621C58.3603 104.63 61.7495 104.654 64.9734 106.694C65.9378 107.301 66.5991 107.301 67.5635 106.815C79.0262 100.915 90.4889 95.0385 102.007 89.2109C103.302 88.5553 103.495 87.8268 103.081 86.807L103.109 86.8313ZM59.986 11.2424C62.4384 11.2424 64.3121 9.567 64.3121 7.35736C64.3121 5.24486 62.5211 3.64227 60.1514 3.59371C57.6715 3.52086 55.7151 5.14773 55.6875 7.33308C55.66 9.54271 57.5337 11.2424 59.986 11.2424ZM8.45906 29.8422C5.97915 29.8422 4.10544 31.4933 4.10544 33.6787C4.10544 35.7669 5.89649 37.4181 8.23862 37.4909C10.691 37.588 12.6473 35.9126 12.7025 33.7515C12.7576 31.5419 10.939 29.8665 8.4315 29.8422H8.45906ZM115.894 33.7273C115.949 31.5176 114.103 29.8422 111.623 29.8422C109.254 29.8422 107.38 31.3962 107.297 33.4602C107.187 35.6698 109.006 37.4181 111.43 37.4909C113.855 37.5638 115.839 35.9126 115.894 33.7273ZM12.73 86.467C12.7851 84.2574 10.939 82.5334 8.48661 82.5091C6.03426 82.4848 4.10544 84.1603 4.10544 86.3456C4.10544 88.4339 5.86893 90.085 8.21107 90.1579C10.691 90.255 12.6749 88.6281 12.7025 86.467H12.73ZM115.894 86.3942C115.894 84.2089 114.02 82.5091 111.568 82.5091C109.116 82.5091 107.242 84.2088 107.27 86.4185C107.27 88.5067 109.088 90.1093 111.458 90.1821C113.938 90.2307 115.867 88.6038 115.894 86.4185V86.3942ZM64.3121 112.667C64.3397 110.457 62.4935 108.758 60.0136 108.758C57.5612 108.758 55.6875 110.433 55.6875 112.643C55.6875 114.755 57.4786 116.358 59.8483 116.406C62.3282 116.479 64.2845 114.852 64.3121 112.667Z" fill="white"/>
<path d="M21.7403 59.8785C21.7403 54.1723 21.7954 48.4661 21.7127 42.7842C21.7127 41.1573 22.3465 40.2103 23.9171 39.4333C35.2145 33.7514 46.4843 28.0209 57.699 22.2419C59.3522 21.392 60.7024 21.392 62.3557 22.2419C73.5979 28.0209 84.8677 33.7514 96.1375 39.4333C97.7081 40.2346 98.3419 41.2059 98.3419 42.8085C98.2868 54.2937 98.2868 65.7546 98.3419 77.2399C98.3419 78.8667 97.7081 79.8137 96.1375 80.615C84.7851 86.3455 73.4326 92.1245 62.1077 97.9279C60.6197 98.6806 59.3798 98.6806 57.9194 97.9279C46.5945 92.1245 35.2696 86.3455 23.9171 80.615C22.3465 79.8137 21.6852 78.8667 21.7127 77.2399C21.7954 71.4608 21.7403 65.6818 21.7403 59.9028V59.8785ZM26.0388 45.1395C25.9837 45.4309 25.8735 45.7223 25.8735 46.0136C25.8735 56.0177 25.8735 65.9975 25.8184 76.0015C25.8184 77.3856 26.6726 77.8712 27.7747 78.4297C37.8873 83.5531 48.0273 88.6765 58.1123 93.8728C59.5176 94.6013 60.5095 94.6498 61.9424 93.9214C72.0273 88.7251 82.1123 83.5774 92.2799 78.5025C93.8505 77.7255 94.2638 76.8514 94.2638 75.3702C94.2087 65.9975 94.2638 56.6247 94.2087 47.252C94.2087 46.5478 94.5669 45.7223 93.7678 45.0667C93.4923 45.1638 93.2443 45.2123 93.0239 45.3095C83.2145 50.2872 73.4326 55.3135 63.5681 60.2184C62.2179 60.8983 62.1077 61.7724 62.1077 62.9137C62.1077 70.7324 62.1077 78.5268 62.1077 86.3455C62.1077 87.0497 62.1628 87.7781 61.9975 88.4337C61.777 89.3564 61.0606 89.9635 59.9309 89.9149C58.9389 89.8663 58.2776 89.2836 58.0847 88.458C57.9194 87.7781 57.9745 87.0739 57.9745 86.3698C57.9745 78.6482 57.9194 70.9024 58.0021 63.1808C58.0021 61.6025 57.5336 60.6798 55.8804 59.8542C46.7047 55.3135 37.6393 50.6029 28.4912 45.9894C27.7472 45.6251 27.1134 44.9938 26.0388 45.1152V45.1395ZM91.839 41.3516C81.6163 36.1553 71.366 30.9347 61.1157 25.7142C60.3166 25.3014 59.7104 25.3257 58.9114 25.7142C48.6611 30.959 38.4108 36.1553 28.1054 41.4001C28.3809 41.6672 28.4912 41.91 28.7116 42.0072C38.7414 47.1063 48.7713 52.2055 58.7736 57.3289C59.9309 57.9359 60.7575 57.5717 61.6944 57.0861C71.3385 52.1812 80.9825 47.252 90.6266 42.3471C91.0675 42.1286 91.591 41.9586 91.839 41.3273V41.3516Z" fill="white"/>
</g>
<defs>
<clipPath id="clip0_291_1129">
<rect width="120" height="120" fill="white"/>
</clipPath>
</defs>
</svg>
