<svg width="595" height="415" viewBox="0 0 595 415" fill="none" xmlns="http://www.w3.org/2000/svg">
  <path d="M0.666667 409C0.666667 411.946 3.05448 414.333 6 414.333C8.94552 414.333 11.3333 411.946 11.3333 409C11.3333 406.054 8.94552 403.667 6 403.667C3.05448 403.667 0.666667 406.054 0.666667 409ZM243 410C243.552 410 244 409.552 244 409C244 408.448 243.552 408 243 408V410ZM6 410H243V408H6V410Z" fill="white"/>
  <path d="M592.769 1.95685C590.536 0.0359325 587.169 0.2889 585.248 2.52187C583.327 4.75484 583.58 8.12223 585.813 10.0431C588.046 11.9641 591.413 11.7111 593.334 9.47813C595.255 7.24516 595.002 3.87777 592.769 1.95685ZM242.242 407.894C241.882 408.313 241.929 408.944 242.348 409.304C242.767 409.664 243.398 409.617 243.758 409.198L242.242 407.894ZM588.533 5.34785L242.242 407.894L243.758 409.198L590.049 6.65215L588.533 5.34785Z" fill="white"/>
</svg>
