<svg width="546" height="507" viewBox="0 0 546 507" fill="none" xmlns="http://www.w3.org/2000/svg">
<g style="mix-blend-mode:color-dodge">
<g opacity="0.85">
<path d="M126.308 412.214C126.308 410.337 127.829 408.814 129.708 408.814C131.587 408.814 133.108 410.335 133.108 412.214C133.108 414.092 131.587 415.613 129.708 415.613C127.829 415.613 126.308 414.092 126.308 412.214Z" fill="#FAFAFA"/>
<path d="M136.5 412.214C136.5 408.469 133.453 405.423 129.708 405.423C125.963 405.423 122.917 408.469 122.917 412.214C122.917 415.958 125.963 419.004 129.708 419.004C133.453 419.004 136.5 415.958 136.5 412.214ZM135.569 412.214C135.569 415.446 132.939 418.076 129.706 418.076C126.473 418.076 123.843 415.446 123.843 412.214C123.843 408.981 126.473 406.351 129.706 406.351C132.939 406.351 135.569 408.981 135.569 412.214Z" fill="#FAFAFA"/>
<path d="M464.576 71.0728C464.576 69.1961 466.098 67.6731 467.977 67.6731C469.855 67.6731 471.377 69.1943 471.377 71.0728C471.377 72.9514 469.855 74.4726 467.977 74.4726C466.098 74.4726 464.576 72.9514 464.576 71.0728Z" fill="#FAFAFA"/>
<path d="M474.766 71.0728C474.766 67.3287 471.719 64.2825 467.975 64.2825C464.23 64.2825 461.183 67.3287 461.183 71.0728C461.183 74.817 464.23 77.8632 467.975 77.8632C471.719 77.8632 474.766 74.817 474.766 71.0728ZM473.838 71.0728C473.838 74.305 471.207 76.9331 467.977 76.9331C464.746 76.9331 462.115 74.3032 462.115 71.0728C462.115 67.8425 464.746 65.2107 467.977 65.2107C471.207 65.2107 473.838 67.8407 473.838 71.0728Z" fill="#FAFAFA"/>
<path d="M511.09 461.107C511.09 459.23 512.612 457.707 514.491 457.707C516.37 457.707 517.891 459.228 517.891 461.107C517.891 462.985 516.37 464.507 514.491 464.507C512.612 464.507 511.09 462.985 511.09 461.107Z" fill="#FAFAFA"/>
<path d="M521.28 461.105C521.28 457.361 518.234 454.315 514.489 454.315C510.744 454.315 507.697 457.361 507.697 461.105C507.697 464.849 510.744 467.895 514.489 467.895C518.234 467.895 521.28 464.849 521.28 461.105ZM520.352 461.105C520.352 464.337 517.722 466.967 514.491 466.967C511.26 466.967 508.629 464.337 508.629 461.105C508.629 457.873 511.26 455.245 514.491 455.245C517.722 455.245 520.352 457.875 520.352 461.105Z" fill="#FAFAFA"/>
<path d="M162.536 103.271C162.536 101.394 164.058 99.8714 165.937 99.8714C167.815 99.8714 169.337 101.393 169.337 103.271C169.337 105.15 167.815 106.671 165.937 106.671C164.058 106.671 162.536 105.15 162.536 103.271Z" fill="#FAFAFA"/>
<path d="M172.728 103.271C172.728 99.527 169.681 96.4808 165.937 96.4808C162.192 96.4808 159.145 99.527 159.145 103.271C159.145 107.015 162.192 110.061 165.937 110.061C169.681 110.061 172.728 107.015 172.728 103.271ZM171.798 103.271C171.798 106.503 169.167 109.133 165.935 109.133C162.702 109.133 160.072 106.503 160.072 103.271C160.072 100.039 162.702 97.4091 165.935 97.4091C169.167 97.4091 171.798 100.039 171.798 103.271Z" fill="#FAFAFA"/>
<path d="M43.9279 311.07C43.9279 309.193 45.4494 307.67 47.3282 307.67C49.207 307.67 50.7285 309.191 50.7285 311.07C50.7285 312.948 49.207 314.469 47.3282 314.469C45.4494 314.469 43.9279 312.948 43.9279 311.07Z" fill="#FAFAFA"/>
<path d="M428.212 127.646C428.212 125.769 429.733 124.246 431.612 124.246C433.491 124.246 435.012 125.767 435.012 127.646C435.012 129.525 433.491 131.046 431.612 131.046C429.733 131.046 428.212 129.525 428.212 127.646Z" fill="#FAFAFA"/>
<path d="M421.413 430.857C421.413 428.98 422.934 427.457 424.813 427.457C426.692 427.457 428.213 428.978 428.213 430.857C428.213 432.736 426.692 434.257 424.813 434.257C422.934 434.257 421.413 432.736 421.413 430.857Z" fill="#FAFAFA"/>
<path d="M240.012 351.314C240.012 349.438 241.534 347.914 243.413 347.914C245.292 347.914 246.813 349.436 246.813 351.314C246.813 353.193 245.292 354.714 243.413 354.714C241.534 354.714 240.012 353.193 240.012 351.314Z" fill="#FAFAFA"/>
<path d="M297.439 72.7727C297.439 71.8334 298.199 71.0728 299.139 71.0728C300.078 71.0728 300.839 71.8334 300.839 72.7727C300.839 73.712 300.078 74.4726 299.139 74.4726C298.199 74.4726 297.439 73.712 297.439 72.7727Z" fill="#FAFAFA"/>
<path d="M134.335 277.199C134.335 276.26 135.096 275.499 136.035 275.499C136.975 275.499 137.735 276.26 137.735 277.199C137.735 278.138 136.975 278.899 136.035 278.899C135.096 278.899 134.335 278.138 134.335 277.199Z" fill="#FAFAFA"/>
<path d="M542.6 11.5566C542.6 10.6174 543.36 9.85675 544.3 9.85675C545.239 9.85675 546 10.6174 546 11.5566C546 12.4959 545.239 13.2565 544.3 13.2565C543.36 13.2565 542.6 12.4959 542.6 11.5566Z" fill="#FAFAFA"/>
<path d="M525.863 176.919C525.863 175.979 526.624 175.219 527.564 175.219C528.503 175.219 529.264 175.979 529.264 176.919C529.264 177.858 528.503 178.619 527.564 178.619C526.624 178.619 525.863 177.858 525.863 176.919Z" fill="#FAFAFA"/>
<path d="M455.469 314.467C455.469 313.528 456.23 312.768 457.169 312.768C458.109 312.768 458.87 313.528 458.87 314.467C458.87 315.407 458.109 316.167 457.169 316.167C456.23 316.167 455.469 315.407 455.469 314.467Z" fill="#FAFAFA"/>
<path d="M340.676 497.274C340.676 496.335 341.437 495.574 342.376 495.574C343.315 495.574 344.076 496.335 344.076 497.274C344.076 498.213 343.315 498.974 342.376 498.974C341.437 498.974 340.676 498.213 340.676 497.274Z" fill="#FAFAFA"/>
<path d="M52.4268 22.4447C52.4268 21.5055 53.1876 20.7448 54.127 20.7448C55.0664 20.7448 55.8271 21.5055 55.8271 22.4447C55.8271 23.384 55.0664 24.1446 54.127 24.1446C53.1876 24.1446 52.4268 23.384 52.4268 22.4447Z" fill="#FAFAFA"/>
<path d="M109.087 119.366C109.087 121.242 107.565 122.766 105.687 122.766C103.808 122.766 102.286 121.244 102.286 119.366C102.286 117.487 103.808 115.966 105.687 115.966C107.565 115.966 109.087 117.487 109.087 119.366Z" fill="#FAFAFA"/>
<path d="M112.478 119.366C112.478 115.622 109.431 112.575 105.687 112.575C101.942 112.575 98.8951 115.622 98.8951 119.366C98.8951 123.11 101.942 126.156 105.687 126.156C109.431 126.156 112.478 123.11 112.478 119.366ZM111.55 119.366C111.55 122.598 108.919 125.228 105.687 125.228C102.454 125.228 99.8235 122.598 99.8235 119.366C99.8235 116.134 102.454 113.504 105.687 113.504C108.919 113.504 111.55 116.134 111.55 119.366Z" fill="#FAFAFA"/>
<path d="M276.203 118.231C276.203 120.108 274.681 121.631 272.802 121.631C270.923 121.631 269.402 120.11 269.402 118.231C269.402 116.353 270.923 114.831 272.802 114.831C274.681 114.831 276.203 116.353 276.203 118.231Z" fill="#FAFAFA"/>
<path d="M279.594 118.231C279.594 114.487 276.547 111.441 272.802 111.441C269.058 111.441 266.011 114.487 266.011 118.231C266.011 121.975 269.058 125.022 272.802 125.022C276.547 125.022 279.594 121.975 279.594 118.231ZM278.665 118.231C278.665 121.463 276.035 124.092 272.802 124.092C269.57 124.092 266.939 121.462 266.939 118.231C266.939 115.001 269.57 112.369 272.802 112.369C276.035 112.369 278.665 114.999 278.665 118.231Z" fill="#FAFAFA"/>
<path d="M225.617 283.842C225.617 285.719 224.096 287.242 222.217 287.242C220.338 287.242 218.817 285.72 218.817 283.842C218.817 281.963 220.338 280.442 222.217 280.442C224.096 280.442 225.617 281.963 225.617 283.842Z" fill="#FAFAFA"/>
<path d="M229.01 283.842C229.01 280.098 225.964 277.052 222.219 277.052C218.474 277.052 215.427 280.098 215.427 283.842C215.427 287.586 218.474 290.632 222.219 290.632C225.964 290.632 229.01 287.586 229.01 283.842ZM228.08 283.842C228.08 287.074 225.45 289.704 222.219 289.704C218.988 289.704 216.356 287.074 216.356 283.842C216.356 280.61 218.986 277.98 222.219 277.98C225.452 277.98 228.08 280.61 228.08 283.842Z" fill="#FAFAFA"/>
<path d="M511.562 219.261C511.562 221.138 510.041 222.661 508.162 222.661C506.283 222.661 504.761 221.14 504.761 219.261C504.761 217.383 506.283 215.861 508.162 215.861C510.041 215.861 511.562 217.383 511.562 219.261Z" fill="#FAFAFA"/>
<path d="M514.955 219.261C514.955 215.517 511.908 212.471 508.164 212.471C504.419 212.471 501.372 215.517 501.372 219.261C501.372 223.005 504.419 226.051 508.164 226.051C511.908 226.051 514.955 223.005 514.955 219.261ZM514.025 219.261C514.025 222.493 511.394 225.123 508.164 225.123C504.933 225.123 502.301 222.493 502.301 219.261C502.301 216.029 504.931 213.399 508.164 213.399C511.396 213.399 514.025 216.029 514.025 219.261Z" fill="#FAFAFA"/>
<path d="M477.702 248.238C477.702 250.115 476.181 251.638 474.302 251.638C472.423 251.638 470.901 250.117 470.901 248.238C470.901 246.36 472.423 244.839 474.302 244.839C476.181 244.839 477.702 246.36 477.702 248.238Z" fill="#FAFAFA"/>
<path d="M481.095 248.238C481.095 244.494 478.049 241.448 474.304 241.448C470.559 241.448 467.512 244.494 467.512 248.238C467.512 251.982 470.559 255.029 474.304 255.029C478.049 255.029 481.095 251.982 481.095 248.238ZM480.165 248.238C480.165 251.47 477.535 254.1 474.302 254.1C471.069 254.1 468.441 251.47 468.441 248.238C468.441 245.006 471.071 242.376 474.302 242.376C477.533 242.376 480.165 245.006 480.165 248.238Z" fill="#FAFAFA"/>
<path d="M393.221 377.142C393.221 379.019 391.699 380.542 389.82 380.542C387.942 380.542 386.42 379.021 386.42 377.142C386.42 375.264 387.942 373.742 389.82 373.742C391.699 373.742 393.221 375.264 393.221 377.142Z" fill="#FAFAFA"/>
<path d="M396.614 377.142C396.614 373.398 393.567 370.352 389.822 370.352C386.078 370.352 383.031 373.398 383.031 377.142C383.031 380.886 386.078 383.932 389.822 383.932C393.567 383.932 396.614 380.886 396.614 377.142ZM395.684 377.142C395.684 380.374 393.053 383.002 389.822 383.002C386.591 383.002 383.959 380.372 383.959 377.142C383.959 373.912 386.59 371.28 389.822 371.28C393.055 371.28 395.684 373.91 395.684 377.142Z" fill="#FAFAFA"/>
<path d="M284.473 470.36C284.473 472.236 282.952 473.759 281.073 473.759C279.194 473.759 277.672 472.238 277.672 470.36C277.672 468.481 279.194 466.96 281.073 466.96C282.952 466.96 284.473 468.481 284.473 470.36Z" fill="#FAFAFA"/>
<path d="M287.866 470.36C287.866 466.615 284.82 463.569 281.075 463.569C277.33 463.569 274.283 466.615 274.283 470.36C274.283 474.104 277.33 477.15 281.075 477.15C284.82 477.15 287.866 474.104 287.866 470.36ZM286.936 470.36C286.936 473.592 284.306 476.222 281.075 476.222C277.844 476.222 275.212 473.592 275.212 470.36C275.212 467.127 277.842 464.497 281.075 464.497C284.307 464.497 286.936 467.127 286.936 470.36Z" fill="#FAFAFA"/>
<path d="M203.029 339.389C203.029 341.266 201.507 342.789 199.628 342.789C197.75 342.789 196.228 341.268 196.228 339.389C196.228 337.511 197.75 335.99 199.628 335.99C201.507 335.99 203.029 337.511 203.029 339.389Z" fill="#FAFAFA"/>
<path d="M206.422 339.391C206.422 335.647 203.375 332.601 199.63 332.601C195.886 332.601 192.839 335.647 192.839 339.391C192.839 343.135 195.886 346.181 199.63 346.181C203.375 346.181 206.422 343.135 206.422 339.391ZM205.492 339.391C205.492 342.623 202.861 345.251 199.629 345.251C196.396 345.251 193.767 342.621 193.767 339.391C193.767 336.161 196.398 333.529 199.629 333.529C202.859 333.529 205.492 336.159 205.492 339.391Z" fill="#FAFAFA"/>
<path d="M463.969 198.111C463.969 199.988 462.447 201.511 460.568 201.511C458.69 201.511 457.168 199.99 457.168 198.111C457.168 196.233 458.69 194.711 460.568 194.711C462.447 194.711 463.969 196.233 463.969 198.111Z" fill="#FAFAFA"/>
<path d="M467.36 198.111C467.36 194.367 464.313 191.321 460.568 191.321C456.824 191.321 453.777 194.367 453.777 198.111C453.777 201.855 456.824 204.901 460.568 204.901C464.313 204.901 467.36 201.855 467.36 198.111ZM466.431 198.111C466.431 201.343 463.801 203.973 460.568 203.973C457.336 203.973 454.707 201.343 454.707 198.111C454.707 194.879 457.338 192.251 460.568 192.251C463.799 192.251 466.431 194.881 466.431 198.111Z" fill="#FAFAFA"/>
<path d="M355.935 244.84C355.935 246.717 354.414 248.24 352.535 248.24C350.656 248.24 349.134 246.719 349.134 244.84C349.134 242.962 350.656 241.441 352.535 241.441C354.414 241.441 355.935 242.962 355.935 244.84Z" fill="#FAFAFA"/>
<path d="M494.773 229.199C493.038 228.48 492.214 226.491 492.932 224.757C493.651 223.022 495.64 222.198 497.375 222.917C499.11 223.635 499.934 225.624 499.215 227.359C498.497 229.093 496.508 229.917 494.773 229.199Z" fill="#FAFAFA"/>
<path d="M488.521 239.835C488.521 241.711 486.999 243.234 485.12 243.234C483.241 243.234 481.72 241.713 481.72 239.835C481.72 237.956 483.241 236.435 485.12 236.435C486.999 236.435 488.521 237.956 488.521 239.835Z" fill="#FAFAFA"/>
<path d="M485.12 208.686C485.12 210.563 483.599 212.086 481.72 212.086C479.841 212.086 478.319 210.565 478.319 208.686C478.319 206.808 479.841 205.286 481.72 205.286C483.599 205.286 485.12 206.808 485.12 208.686Z" fill="#FAFAFA"/>
<path d="M57.5259 160.343C57.5259 162.22 56.0044 163.743 54.1256 163.743C52.2467 163.743 50.7252 162.222 50.7252 160.343C50.7252 158.465 52.2467 156.944 54.1256 156.944C56.0044 156.944 57.5259 158.465 57.5259 160.343Z" fill="#FAFAFA"/>
<path d="M98.0698 94.0682C98.0698 95.9449 96.5483 97.468 94.6695 97.468C92.7907 97.468 91.2692 95.9467 91.2692 94.0682C91.2692 92.1897 92.7907 90.6685 94.6695 90.6685C96.5483 90.6685 98.0698 92.1897 98.0698 94.0682Z" fill="#FAFAFA"/>
<path d="M189.061 151.903C189.061 153.78 187.54 155.303 185.661 155.303C183.782 155.303 182.26 153.781 182.26 151.903C182.26 150.024 183.782 148.503 185.661 148.503C187.54 148.503 189.061 150.024 189.061 151.903Z" fill="#FAFAFA"/>
<path d="M441.809 190.183C441.809 192.059 440.288 193.582 438.409 193.582C436.53 193.582 435.008 192.061 435.008 190.183C435.008 188.304 436.53 186.783 438.409 186.783C440.288 186.783 441.809 188.304 441.809 190.183Z" fill="#FAFAFA"/>
<path d="M367.641 361.423C367.641 363.3 366.12 364.823 364.241 364.823C362.362 364.823 360.84 363.302 360.84 361.423C360.84 359.545 362.362 358.023 364.241 358.023C366.12 358.023 367.641 359.545 367.641 361.423Z" fill="#FAFAFA"/>
<path d="M328.985 277.199C328.985 279.076 327.463 280.599 325.585 280.599C323.706 280.599 322.184 279.077 322.184 277.199C322.184 275.32 323.706 273.799 325.585 273.799C327.463 273.799 328.985 275.32 328.985 277.199Z" fill="#FAFAFA"/>
<path d="M344.199 304.959C342.371 304.528 341.24 302.697 341.671 300.869C342.102 299.042 343.934 297.91 345.761 298.341C347.589 298.773 348.721 300.604 348.29 302.431C347.858 304.258 346.027 305.39 344.199 304.959Z" fill="#FAFAFA"/>
<path d="M275.742 503.6C275.742 505.477 274.221 507 272.342 507C270.463 507 268.942 505.479 268.942 503.6C268.942 501.722 270.463 500.2 272.342 500.2C274.221 500.2 275.742 501.722 275.742 503.6Z" fill="#FAFAFA"/>
<path d="M328.985 351.314C328.985 353.191 327.463 354.714 325.585 354.714C323.706 354.714 322.184 353.193 322.184 351.314C322.184 349.436 323.706 347.914 325.585 347.914C327.463 347.914 328.985 349.436 328.985 351.314Z" fill="#FAFAFA"/>
<path d="M314.15 246.555C312.323 246.124 311.191 244.293 311.622 242.465C312.053 240.638 313.885 239.506 315.713 239.937C317.54 240.369 318.672 242.2 318.241 244.027C317.809 245.855 315.978 246.986 314.15 246.555Z" fill="#FAFAFA"/>
<path d="M246.813 273.799C246.813 275.676 245.292 277.199 243.413 277.199C241.534 277.199 240.013 275.678 240.013 273.799C240.013 271.921 241.534 270.399 243.413 270.399C245.292 270.399 246.813 271.921 246.813 273.799Z" fill="#FAFAFA"/>
<path d="M117.205 193.582C117.205 195.459 115.683 196.982 113.804 196.982C111.925 196.982 110.404 195.461 110.404 193.582C110.404 191.704 111.925 190.183 113.804 190.183C115.683 190.183 117.205 191.704 117.205 193.582Z" fill="#FAFAFA"/>
<path d="M169.335 220.959C169.335 222.836 167.813 224.359 165.935 224.359C164.056 224.359 162.534 222.838 162.534 220.959C162.534 219.081 164.056 217.559 165.935 217.559C167.813 217.559 169.335 219.081 169.335 220.959Z" fill="#FAFAFA"/>
<path d="M508.164 219.725H282.841L232.98 169.872H138.176L114.134 193.91L113.476 193.253L137.791 168.944H233.365L283.226 218.797H508.164V219.725Z" fill="#FAFAFA"/>
<path d="M496.075 227.451H299.077L249.593 177.978H162.338L104.701 120.351L106.672 118.38L163.491 175.189H250.748L300.231 224.665H496.075V227.451Z" fill="#FAFAFA"/>
<path d="M481.722 209.15H255.644L207.293 160.808H54.1272V159.879H207.678L256.029 208.22H481.722V209.15Z" fill="#FAFAFA"/>
<path d="M223.204 284.827L221.233 282.857L269.613 234.485H328.184L337.248 243.548H352.537V246.336H336.095L327.029 237.271H270.768L223.204 284.827Z" fill="#FAFAFA"/>
<path d="M199.557 221.425H165.937V220.495H199.174L222.026 197.647H460.568V198.575H222.411L199.557 221.425Z" fill="#FAFAFA"/>
<path d="M438.411 190.647H272.815L248.388 166.224V141.985L272.474 117.903L273.132 118.561L249.316 142.37V165.839L273.2 189.718H438.411V190.647Z" fill="#FAFAFA"/>
<path d="M185.661 152.369H152.322L94.3417 94.396L94.9993 93.7404L152.707 151.439H185.661V152.369Z" fill="#FAFAFA"/>
<path d="M243.741 274.129L243.085 273.471L273.791 242.77H315.855V243.699H274.176L243.741 274.129Z" fill="#FAFAFA"/>
<path d="M199.958 339.719L199.301 339.061L276.011 262.366H356.784L379.784 239.371H485.12V240.299H380.167L357.169 263.294H276.394L199.958 339.719Z" fill="#FAFAFA"/>
<path d="M363.014 362.407L336.823 336.222V294.99L384.974 246.846H474.302V249.632H386.128L339.61 296.143V335.067L364.985 360.436L363.014 362.407Z" fill="#FAFAFA"/>
<path d="M389.493 377.47L344.506 332.49V301.638H345.436V332.105L390.15 376.814L389.493 377.47Z" fill="#FAFAFA"/>
<path d="M281.538 470.36H280.61V379.026L325.12 334.524V277.199H326.05V334.907L281.538 379.411V470.36Z" fill="#FAFAFA"/>
<path d="M272.807 503.6H271.879V404.355L325.256 350.986L325.914 351.642L272.807 404.74V503.6Z" fill="#FAFAFA"/>
</g>
<g opacity="0.23">
<path d="M432.419 419.623C430.542 419.623 429.018 418.101 429.018 416.223C429.018 414.344 430.54 412.823 432.419 412.823C434.297 412.823 435.819 414.344 435.819 416.223C435.819 418.101 434.297 419.623 432.419 419.623Z" fill="#FAFAFA"/>
<path d="M439.212 416.223C439.212 412.479 436.165 409.433 432.42 409.433C428.676 409.433 425.629 412.479 425.629 416.223C425.629 419.967 428.676 423.013 432.42 423.013C436.165 423.013 439.212 419.967 439.212 416.223ZM438.282 416.223C438.282 419.455 435.651 422.085 432.419 422.085C429.186 422.085 426.556 419.455 426.556 416.223C426.556 412.991 429.186 410.363 432.419 410.363C435.651 410.363 438.282 412.993 438.282 416.223Z" fill="#FAFAFA"/>
<path d="M91.2213 81.4103C89.3443 81.4103 87.8209 79.889 87.8209 78.0105C87.8209 76.132 89.3424 74.6107 91.2213 74.6107C93.1001 74.6107 94.6216 76.132 94.6216 78.0105C94.6216 79.889 93.1001 81.4103 91.2213 81.4103Z" fill="#FAFAFA"/>
<path d="M98.0127 78.0123C98.0127 74.2682 94.9661 71.222 91.2213 71.222C87.4765 71.222 84.4298 74.2682 84.4298 78.0123C84.4298 81.7565 87.4765 84.8027 91.2213 84.8027C94.9661 84.8027 98.0127 81.7565 98.0127 78.0123ZM97.0843 78.0123C97.0843 81.2445 94.454 83.8744 91.2231 83.8744C87.9922 83.8744 85.36 81.2445 85.36 78.0123C85.36 74.7802 87.9904 72.1521 91.2231 72.1521C94.4558 72.1521 97.0843 74.782 97.0843 78.0123Z" fill="#FAFAFA"/>
<path d="M481.32 34.9038C479.443 34.9038 477.92 33.3826 477.92 31.504C477.92 29.6255 479.441 28.1043 481.32 28.1043C483.199 28.1043 484.72 29.6255 484.72 31.504C484.72 33.3826 483.199 34.9038 481.32 34.9038Z" fill="#FAFAFA"/>
<path d="M488.111 31.5059C488.111 27.7617 485.065 24.7155 481.32 24.7155C477.575 24.7155 474.528 27.7617 474.528 31.5059C474.528 35.25 477.575 38.2962 481.32 38.2962C485.065 38.2962 488.111 35.25 488.111 31.5059ZM487.181 31.5059C487.181 34.738 484.551 37.368 481.32 37.368C478.089 37.368 475.457 34.738 475.457 31.5059C475.457 28.2737 478.087 25.6438 481.32 25.6438C484.553 25.6438 487.181 28.2737 487.181 31.5059Z" fill="#FAFAFA"/>
<path d="M123.425 383.4C121.548 383.4 120.025 381.879 120.025 380C120.025 378.122 121.546 376.601 123.425 376.601C125.304 376.601 126.825 378.122 126.825 380C126.825 381.879 125.304 383.4 123.425 383.4Z" fill="#FAFAFA"/>
<path d="M130.216 380.002C130.216 376.258 127.17 373.212 123.425 373.212C119.68 373.212 116.633 376.258 116.633 380.002C116.633 383.746 119.68 386.793 123.425 386.793C127.17 386.793 130.216 383.746 130.216 380.002ZM129.288 380.002C129.288 383.234 126.658 385.863 123.425 385.863C120.192 385.863 117.562 383.233 117.562 380.002C117.562 376.772 120.192 374.14 123.425 374.14C126.658 374.14 129.288 376.77 129.288 380.002Z" fill="#FAFAFA"/>
<path d="M331.258 501.989C329.381 501.989 327.858 500.467 327.858 498.589C327.858 496.71 329.379 495.189 331.258 495.189C333.137 495.189 334.658 496.71 334.658 498.589C334.658 500.467 333.137 501.989 331.258 501.989Z" fill="#FAFAFA"/>
<path d="M147.804 117.769C145.927 117.769 144.403 116.248 144.403 114.369C144.403 112.491 145.925 110.969 147.804 110.969C149.683 110.969 151.204 112.491 151.204 114.369C151.204 116.248 149.683 117.769 147.804 117.769Z" fill="#FAFAFA"/>
<path d="M451.065 124.567C449.188 124.567 447.665 123.045 447.665 121.167C447.665 119.288 449.186 117.767 451.065 117.767C452.944 117.767 454.465 119.288 454.465 121.167C454.465 123.045 452.944 124.567 451.065 124.567Z" fill="#FAFAFA"/>
<path d="M370.74 305.857C368.912 305.426 367.78 303.595 368.211 301.767C368.643 299.94 370.474 298.808 372.302 299.239C374.13 299.671 375.262 301.502 374.83 303.329C374.399 305.156 372.567 306.288 370.74 305.857Z" fill="#FAFAFA"/>
<path d="M63.3068 319.807C61.9789 318.479 61.9789 316.326 63.3068 314.999C64.6347 313.671 66.7877 313.671 68.1156 314.999C69.4435 316.326 69.4435 318.479 68.1156 319.807C66.7877 321.134 64.6347 321.134 63.3068 319.807Z" fill="#FAFAFA"/>
<path d="M92.9214 248.52C91.982 248.52 91.2213 247.759 91.2213 246.82C91.2213 245.881 91.982 245.12 92.9214 245.12C93.8608 245.12 94.6216 245.881 94.6216 246.82C94.6216 247.759 93.8608 248.52 92.9214 248.52Z" fill="#FAFAFA"/>
<path d="M1.70023 375.376C0.761253 375.376 6.62804e-05 374.615 6.62804e-05 373.676C6.62804e-05 372.737 0.761253 371.976 1.70023 371.976C2.6392 371.976 3.40039 372.737 3.40039 373.676C3.40039 374.615 2.6392 375.376 1.70023 375.376Z" fill="#FAFAFA"/>
<path d="M297.381 411.598C296.442 411.598 295.681 410.838 295.681 409.898C295.681 408.959 296.442 408.199 297.381 408.199C298.321 408.199 299.082 408.959 299.082 409.898C299.082 410.838 298.321 411.598 297.381 411.598Z" fill="#FAFAFA"/>
<path d="M31.6953 3.39977C30.7559 3.39977 29.9952 2.63915 29.9952 1.69988C29.9952 0.76062 30.7559 0 31.6953 0C32.6348 0 33.3955 0.76062 33.3955 1.69988C33.3955 2.63915 32.6348 3.39977 31.6953 3.39977Z" fill="#FAFAFA"/>
<path d="M197.085 20.1334C196.146 20.1334 195.384 19.3723 195.384 18.4335C195.384 17.4947 196.146 16.7336 197.085 16.7336C198.023 16.7336 198.785 17.4947 198.785 18.4335C198.785 19.3723 198.023 20.1334 197.085 20.1334Z" fill="#FAFAFA"/>
<path d="M334.656 90.5156C333.717 90.5156 332.956 89.755 332.956 88.8157C332.956 87.8764 333.717 87.1158 334.656 87.1158C335.596 87.1158 336.356 87.8764 336.356 88.8157C336.356 89.755 335.596 90.5156 334.656 90.5156Z" fill="#FAFAFA"/>
<path d="M517.493 205.29C516.554 205.29 515.793 204.529 515.793 203.59C515.793 202.651 516.554 201.89 517.493 201.89C518.433 201.89 519.193 202.651 519.193 203.59C519.193 204.529 518.433 205.29 517.493 205.29Z" fill="#FAFAFA"/>
<path d="M42.585 493.491C41.6456 493.491 40.8848 492.731 40.8848 491.791C40.8848 490.852 41.6456 490.091 42.585 490.091C43.5244 490.091 44.2852 490.852 44.2852 491.791C44.2852 492.731 43.5244 493.491 42.585 493.491Z" fill="#FAFAFA"/>
<path d="M139.522 436.841C141.399 436.841 142.922 438.362 142.922 440.24C142.922 442.119 141.401 443.64 139.522 443.64C137.643 443.64 136.122 442.119 136.122 440.24C136.122 438.362 137.643 436.841 139.522 436.841Z" fill="#FAFAFA"/>
<path d="M146.315 440.24C146.315 436.496 143.269 433.45 139.524 433.45C135.779 433.45 132.733 436.496 132.733 440.24C132.733 443.985 135.779 447.031 139.524 447.031C143.269 447.031 146.315 443.985 146.315 440.24ZM145.385 440.24C145.385 443.473 142.755 446.103 139.522 446.103C136.289 446.103 133.659 443.473 133.659 440.24C133.659 437.008 136.289 434.38 139.522 434.38C142.755 434.38 145.385 437.01 145.385 440.24Z" fill="#FAFAFA"/>
<path d="M138.387 269.753C140.264 269.753 141.788 271.274 141.788 273.153C141.788 275.031 140.266 276.552 138.387 276.552C136.508 276.552 134.987 275.031 134.987 273.153C134.987 271.274 136.508 269.753 138.387 269.753Z" fill="#FAFAFA"/>
<path d="M145.179 273.153C145.179 269.409 142.132 266.362 138.387 266.362C134.642 266.362 131.596 269.409 131.596 273.153C131.596 276.897 134.642 279.943 138.387 279.943C142.132 279.943 145.179 276.897 145.179 273.153ZM144.25 273.153C144.25 276.385 141.62 279.013 138.387 279.013C135.155 279.013 132.524 276.383 132.524 273.153C132.524 269.922 135.155 267.292 138.387 267.292C141.62 267.292 144.25 269.922 144.25 273.153Z" fill="#FAFAFA"/>
<path d="M304.025 320.33C305.902 320.33 307.426 321.851 307.426 323.729C307.426 325.608 305.904 327.129 304.025 327.129C302.147 327.129 300.625 325.608 300.625 323.729C300.625 321.851 302.147 320.33 304.025 320.33Z" fill="#FAFAFA"/>
<path d="M310.817 323.729C310.817 319.985 307.77 316.939 304.025 316.939C300.281 316.939 297.234 319.985 297.234 323.729C297.234 327.473 300.281 330.52 304.025 330.52C307.77 330.52 310.817 327.473 310.817 323.729ZM309.889 323.729C309.889 326.961 307.258 329.59 304.025 329.59C300.793 329.59 298.164 326.96 298.164 323.729C298.164 320.499 300.795 317.867 304.025 317.867C307.256 317.867 309.889 320.497 309.889 323.729Z" fill="#FAFAFA"/>
<path d="M239.434 34.4323C241.311 34.4323 242.834 35.9536 242.834 37.8321C242.834 39.7106 241.313 41.2319 239.434 41.2319C237.555 41.2319 236.034 39.7106 236.034 37.8321C236.034 35.9536 237.555 34.4323 239.434 34.4323Z" fill="#FAFAFA"/>
<path d="M246.226 37.8321C246.226 34.0879 243.179 31.0418 239.434 31.0418C235.689 31.0418 232.643 34.0879 232.643 37.8321C232.643 41.5762 235.689 44.6224 239.434 44.6224C243.179 44.6224 246.226 41.5762 246.226 37.8321ZM245.295 37.8321C245.295 41.0643 242.665 43.6924 239.432 43.6924C236.2 43.6924 233.569 41.0624 233.569 37.8321C233.569 34.6018 236.2 31.97 239.432 31.97C242.665 31.97 245.295 34.5999 245.295 37.8321Z" fill="#FAFAFA"/>
<path d="M266.011 74.0893C264.683 72.7616 264.683 70.609 266.011 69.2813C267.339 67.9536 269.492 67.9536 270.82 69.2813C272.148 70.609 272.148 72.7616 270.82 74.0893C269.492 75.417 267.339 75.417 266.011 74.0893Z" fill="#FAFAFA"/>
<path d="M275.208 71.6861C275.208 67.9419 272.161 64.8958 268.416 64.8958C264.671 64.8958 261.625 67.9419 261.625 71.6861C261.625 75.4303 264.671 78.4764 268.416 78.4764C272.161 78.4764 275.208 75.4303 275.208 71.6861ZM274.279 71.6861C274.279 74.9183 271.649 77.5464 268.418 77.5464C265.187 77.5464 262.555 74.9164 262.555 71.6861C262.555 68.4558 265.185 65.824 268.418 65.824C271.651 65.824 274.279 68.4539 274.279 71.6861Z" fill="#FAFAFA"/>
<path d="M397.341 152.754C399.218 152.754 400.742 154.275 400.742 156.154C400.742 158.032 399.22 159.553 397.341 159.553C395.463 159.553 393.941 158.032 393.941 156.154C393.941 154.275 395.463 152.754 397.341 152.754Z" fill="#FAFAFA"/>
<path d="M404.133 156.154C404.133 152.409 401.086 149.363 397.341 149.363C393.597 149.363 390.55 152.409 390.55 156.154C390.55 159.898 393.597 162.944 397.341 162.944C401.086 162.944 404.133 159.898 404.133 156.154ZM403.203 156.154C403.203 159.386 400.572 162.016 397.34 162.016C394.107 162.016 391.478 159.386 391.478 156.154C391.478 152.921 394.109 150.291 397.34 150.291C400.57 150.291 403.203 152.921 403.203 156.154Z" fill="#FAFAFA"/>
<path d="M490.574 261.484C492.451 261.484 493.975 263.005 493.975 264.884C493.975 266.762 492.453 268.283 490.574 268.283C488.695 268.283 487.174 266.762 487.174 264.884C487.174 263.005 488.695 261.484 490.574 261.484Z" fill="#FAFAFA"/>
<path d="M497.366 264.882C497.366 261.138 494.319 258.091 490.574 258.091C486.829 258.091 483.783 261.138 483.783 264.882C483.783 268.626 486.829 271.672 490.574 271.672C494.319 271.672 497.366 268.626 497.366 264.882ZM496.436 264.882C496.436 268.114 493.805 270.744 490.574 270.744C487.343 270.744 484.713 268.114 484.713 264.882C484.713 261.65 487.343 259.02 490.574 259.02C493.805 259.02 496.436 261.65 496.436 264.882Z" fill="#FAFAFA"/>
<path d="M359.582 342.914C361.459 342.914 362.982 344.436 362.982 346.314C362.982 348.193 361.461 349.714 359.582 349.714C357.703 349.714 356.182 348.193 356.182 346.314C356.182 344.436 357.703 342.914 359.582 342.914Z" fill="#FAFAFA"/>
<path d="M366.374 346.312C366.374 342.568 363.327 339.522 359.582 339.522C355.837 339.522 352.791 342.568 352.791 346.312C352.791 350.056 355.837 353.103 359.582 353.103C363.327 353.103 366.374 350.056 366.374 346.312ZM365.445 346.312C365.445 349.544 362.815 352.174 359.584 352.174C356.353 352.174 353.721 349.544 353.721 346.312C353.721 343.08 356.351 340.45 359.584 340.45C362.817 340.45 365.445 343.08 365.445 346.312Z" fill="#FAFAFA"/>
<path d="M218.28 82.018C220.157 82.018 221.681 83.5393 221.681 85.4178C221.681 87.2963 220.159 88.8176 218.28 88.8176C216.401 88.8176 214.88 87.2963 214.88 85.4178C214.88 83.5393 216.401 82.018 218.28 82.018Z" fill="#FAFAFA"/>
<path d="M225.072 85.4178C225.072 81.6736 222.025 78.6275 218.28 78.6275C214.536 78.6275 211.489 81.6736 211.489 85.4178C211.489 89.1619 214.536 92.2081 218.28 92.2081C222.025 92.2081 225.072 89.1619 225.072 85.4178ZM224.143 85.4178C224.143 88.65 221.513 91.2799 218.28 91.2799C215.048 91.2799 212.419 88.65 212.419 85.4178C212.419 82.1856 215.049 79.5557 218.28 79.5557C221.511 79.5557 224.143 82.1856 224.143 85.4178Z" fill="#FAFAFA"/>
<path d="M265.018 196.831C263.14 196.831 261.617 195.309 261.617 193.431C261.617 191.554 263.14 190.032 265.018 190.032C266.896 190.032 268.418 191.554 268.418 193.431C268.418 195.309 266.896 196.831 265.018 196.831Z" fill="#FAFAFA"/>
<path d="M246.233 46.5175C248.11 46.5175 249.633 48.0388 249.633 49.9173C249.633 51.7958 248.112 53.317 246.233 53.317C244.354 53.317 242.833 51.7958 242.833 49.9173C242.833 48.0388 244.354 46.5175 246.233 46.5175Z" fill="#FAFAFA"/>
<path d="M260.011 57.4701C261.888 57.4701 263.411 58.9913 263.411 60.8698C263.411 62.7484 261.89 64.2696 260.011 64.2696C258.132 64.2696 256.61 62.7484 256.61 60.8698C256.61 58.9913 258.132 57.4701 260.011 57.4701Z" fill="#FAFAFA"/>
<path d="M228.857 60.8698C230.734 60.8698 232.258 62.3911 232.258 64.2696C232.258 66.1481 230.736 67.6694 228.857 67.6694C226.979 67.6694 225.457 66.1481 225.457 64.2696C225.457 62.3911 226.979 60.8698 228.857 60.8698Z" fill="#FAFAFA"/>
<path d="M180.506 488.393C182.383 488.393 183.907 489.915 183.907 491.793C183.907 493.672 182.385 495.193 180.506 495.193C178.628 495.193 177.106 493.672 177.106 491.793C177.106 489.915 178.628 488.393 180.506 488.393Z" fill="#FAFAFA"/>
<path d="M114.22 447.856C116.097 447.856 117.621 449.377 117.621 451.256C117.621 453.134 116.099 454.655 114.22 454.655C112.341 454.655 110.82 453.134 110.82 451.256C110.82 449.377 112.341 447.856 114.22 447.856Z" fill="#FAFAFA"/>
<path d="M172.064 356.88C173.941 356.88 175.465 358.401 175.465 360.28C175.465 362.158 173.943 363.679 172.064 363.679C170.186 363.679 168.664 362.158 168.664 360.28C168.664 358.401 170.186 356.88 172.064 356.88Z" fill="#FAFAFA"/>
<path d="M210.351 104.174C212.228 104.174 213.751 105.695 213.751 107.573C213.751 109.452 212.229 110.973 210.351 110.973C208.472 110.973 206.95 109.452 206.95 107.573C206.95 105.695 208.472 104.174 210.351 104.174Z" fill="#FAFAFA"/>
<path d="M381.62 178.329C383.497 178.329 385.02 179.851 385.02 181.729C385.02 183.608 383.499 185.129 381.62 185.129C379.741 185.129 378.219 183.608 378.219 181.729C378.219 179.851 379.741 178.329 381.62 178.329Z" fill="#FAFAFA"/>
<path d="M297.381 216.979C299.258 216.979 300.782 218.5 300.782 220.379C300.782 222.258 299.26 223.779 297.381 223.779C295.503 223.779 293.981 222.258 293.981 220.379C293.981 218.5 295.503 216.979 297.381 216.979Z" fill="#FAFAFA"/>
<path d="M321.05 204.318C319.223 203.886 318.091 202.055 318.522 200.228C318.953 198.4 320.785 197.269 322.612 197.7C324.44 198.131 325.572 199.962 325.141 201.79C324.709 203.617 322.878 204.749 321.05 204.318Z" fill="#FAFAFA"/>
<path d="M523.82 270.213C525.697 270.213 527.221 271.735 527.221 273.613C527.221 275.492 525.699 277.013 523.82 277.013C521.942 277.013 520.42 275.492 520.42 273.613C520.42 271.735 521.942 270.213 523.82 270.213Z" fill="#FAFAFA"/>
<path d="M371.509 216.979C373.386 216.979 374.909 218.5 374.909 220.379C374.909 222.258 373.388 223.779 371.509 223.779C369.63 223.779 368.109 222.258 368.109 220.379C368.109 218.5 369.63 216.979 371.509 216.979Z" fill="#FAFAFA"/>
<path d="M263.411 227.639C265.288 227.639 266.812 229.16 266.812 231.039C266.812 232.917 265.29 234.438 263.411 234.438C261.532 234.438 260.011 232.917 260.011 231.039C260.011 229.16 261.532 227.639 263.411 227.639Z" fill="#FAFAFA"/>
<path d="M293.981 299.137C295.858 299.137 297.381 300.658 297.381 302.537C297.381 304.415 295.86 305.937 293.981 305.937C292.102 305.937 290.581 304.415 290.581 302.537C290.581 300.658 292.102 299.137 293.981 299.137Z" fill="#FAFAFA"/>
<path d="M213.751 428.724C215.628 428.724 217.151 430.246 217.151 432.124C217.151 434.003 215.63 435.524 213.751 435.524C211.872 435.524 210.351 434.003 210.351 432.124C210.351 430.246 211.872 428.724 213.751 428.724Z" fill="#FAFAFA"/>
<path d="M241.132 376.603C243.009 376.603 244.533 378.124 244.533 380.002C244.533 381.881 243.011 383.402 241.132 383.402C239.254 383.402 237.732 381.881 237.732 380.002C237.732 378.124 239.254 376.603 241.132 376.603Z" fill="#FAFAFA"/>
<path d="M213.422 432.45L189.109 408.142V312.583L238.968 262.731V37.8321H239.898V263.116L190.037 312.968V407.757L214.079 431.794L213.422 432.45Z" fill="#FAFAFA"/>
<path d="M140.508 441.226L138.537 439.255L195.355 382.446V295.203L244.839 245.728V49.9173H247.627V246.883L198.144 296.358V383.601L140.508 441.226Z" fill="#FAFAFA"/>
<path d="M180.971 491.793H180.043V338.266L228.393 289.923V64.2678H229.322V290.308L180.971 338.651V491.793Z" fill="#FAFAFA"/>
<path d="M303.04 324.715L254.66 276.341V217.78L263.726 208.717V193.431H266.513V209.87L257.447 218.935V275.188L305.011 322.744L303.04 324.715Z" fill="#FAFAFA"/>
<path d="M241.599 380.002H240.668V346.769L217.817 323.921V85.4178H218.745V323.536L241.599 346.384V380.002Z" fill="#FAFAFA"/>
<path d="M186.388 297.563H162.146L138.06 273.481L138.717 272.823L162.531 296.634H186.003L209.887 272.753V107.572H210.815V273.138L186.388 297.563Z" fill="#FAFAFA"/>
<path d="M114.548 451.583L113.893 450.928L171.601 393.227V360.28H172.531V393.612L114.548 451.583Z" fill="#FAFAFA"/>
<path d="M293.653 302.865L262.947 272.164V230.107H263.876V271.779L294.311 302.209L293.653 302.865Z" fill="#FAFAFA"/>
<path d="M359.255 346.642L282.546 269.946V189.184L259.547 166.189V60.8698H260.475V165.804L283.475 188.799V269.561L359.912 345.984L359.255 346.642Z" fill="#FAFAFA"/>
<path d="M356.414 209.143H315.175L267.024 160.999V71.6861H269.811V159.846L316.328 206.356H355.259L380.635 180.985L382.605 182.956L356.414 209.143Z" fill="#FAFAFA"/>
<path d="M352.682 201.461H321.825V200.533H352.297L397.011 155.824L397.669 156.481L352.682 201.461Z" fill="#FAFAFA"/>
<path d="M490.574 265.348H399.226L354.714 220.843H297.382V219.915H355.099L399.611 264.418H490.574V265.348Z" fill="#FAFAFA"/>
<path d="M523.82 274.075H424.559L371.179 220.707L371.837 220.049L424.944 273.147H523.82V274.075Z" fill="#FAFAFA"/>
</g>
</g>
</svg>
