<svg width="31" height="31" viewBox="0 0 31 31" fill="none" xmlns="http://www.w3.org/2000/svg">
  <g clip-path="url(#clip0_169_2300)">
    <path d="M22.6587 30.9654C20.3102 30.9179 18.5452 30.3406 16.831 29.5716C13.6146 28.1279 10.7221 26.1873 8.20922 23.7225C4.85576 20.4316 2.13898 16.701 0.635116 12.1886C0.15156 10.7376 -0.141798 9.25682 0.0701613 7.71805C0.216034 6.65839 0.68992 5.75494 1.43298 4.9932C2.13656 4.27253 2.84658 3.55911 3.56144 2.84972C5.00969 1.41241 6.66345 1.32866 8.1649 2.71686C9.52369 3.9738 10.8446 5.27664 12.0761 6.66161C13.1157 7.83159 13.0931 9.38887 12.0728 10.5838C11.4531 11.3101 10.764 11.9696 10.0733 12.625C9.82027 12.8658 9.80012 13.0615 9.96131 13.3562C10.6995 14.7097 11.6384 15.9111 12.6942 17.028C14.1304 18.5474 15.6826 19.9179 17.537 20.922C17.8658 21.0999 18.0585 21.0814 18.3252 20.8084C18.9998 20.1176 19.6526 19.4017 20.4021 18.7874C21.5489 17.8469 23.0617 17.8187 24.1609 18.8107C25.6656 20.1683 27.105 21.5992 28.4485 23.117C29.3834 24.1734 29.3834 25.7364 28.4654 26.8612C27.5821 27.9427 26.5755 28.9194 25.5383 29.8502C24.6147 30.6788 23.467 31.0129 22.6603 30.967L22.6587 30.9654ZM1.89881 8.65371C1.88108 9.91307 2.18814 10.9824 2.56289 12.034C3.83384 15.5979 5.95021 18.6303 8.51064 21.3729C10.8615 23.8908 13.5904 25.9111 16.6763 27.4426C18.3679 28.2825 20.1168 28.9645 22.026 29.1014C22.9416 29.1666 23.8047 28.9685 24.4865 28.3163C25.2618 27.5747 26.017 26.8097 26.748 26.0254C27.4693 25.2516 27.4411 24.6856 26.6964 23.9375C25.56 22.7957 24.4188 21.6588 23.2785 20.521C22.5306 19.7754 21.972 19.777 21.2137 20.529C20.5085 21.2288 19.8114 21.9366 19.1021 22.6323C18.5557 23.1677 18.0198 23.2491 17.3396 22.9117C16.9431 22.7152 16.5441 22.5179 16.1645 22.2917C14.032 21.0202 12.2179 19.3776 10.6069 17.5022C9.59784 16.3274 8.6815 15.089 8.05448 13.6605C7.64104 12.7192 7.72244 12.2772 8.46309 11.5775C9.19568 10.8866 9.93794 10.2054 10.6012 9.44685C11.1227 8.85099 11.113 8.30827 10.5561 7.73657C9.38507 6.53519 8.2068 5.34025 7.01323 4.16141C6.25001 3.40693 5.63025 3.42947 4.85495 4.19362C4.24325 4.79673 3.6509 5.41997 3.02792 6.01099C2.23005 6.7687 1.81499 7.66974 1.89881 8.65291V8.65371Z" fill="black"/>
    <path d="M17.3163 -1.23952e-05C18.1472 0.117549 19.0442 0.349451 19.9186 0.655433C23.642 1.95666 26.5482 4.30306 28.675 7.60686C29.8509 9.43309 30.5947 11.4389 30.9816 13.5751C31.0783 14.1114 30.7793 14.5889 30.3062 14.7008C29.8033 14.82 29.3109 14.5398 29.1763 13.9866C28.9418 13.0227 28.7355 12.0525 28.3696 11.1248C27.2445 8.27278 25.4231 5.97469 22.8989 4.22979C21.2073 3.06061 19.3537 2.28036 17.3324 1.89949C17.201 1.87453 17.0689 1.84474 16.9407 1.80609C16.4644 1.66195 16.1638 1.21023 16.2452 0.766553C16.3339 0.283424 16.7078 -0.00967498 17.3163 -1.23952e-05Z" fill="black"/>
    <path d="M17.006 3.44615C18.0521 3.62571 19.0917 3.93894 20.0524 4.46394C22.8449 5.98982 24.6228 8.29516 25.3264 11.4089C25.3562 11.5394 25.3836 11.6714 25.3989 11.8043C25.4521 12.26 25.1628 12.694 24.7268 12.8229C24.29 12.9517 23.808 12.7424 23.638 12.2971C23.5002 11.9363 23.4421 11.5466 23.3261 11.177C22.4049 8.23799 20.4505 6.34492 17.5057 5.46402C17.1986 5.37222 16.8722 5.3384 16.5716 5.2297C16.1396 5.07349 15.9067 4.61532 16.0018 4.195C16.1009 3.75696 16.5313 3.4236 17.0052 3.44534L17.006 3.44615Z" fill="black"/>
  </g>
  <defs>
    <clipPath id="clip0_169_2300">
      <rect width="31" height="31" fill="white"/>
    </clipPath>
  </defs>
</svg>
