<svg width="33" height="33" viewBox="0 0 33 33" fill="none" xmlns="http://www.w3.org/2000/svg">
<path d="M0.012221 16.427C0.012221 13.978 0.0359536 11.5289 0.000355227 9.09024C0.000355227 8.39199 0.273276 7.98555 0.949644 7.65206C5.81475 5.21341 10.668 2.75391 15.4975 0.273567C16.2095 -0.091189 16.7909 -0.091189 17.5029 0.273567C22.3442 2.75391 27.1975 5.21341 32.0507 7.65206C32.7271 7.99597 33 8.41284 33 9.10066C32.9763 14.0301 32.9763 18.9491 33 23.8785C33 24.5767 32.7271 24.9832 32.0507 25.3271C27.1619 27.7866 22.273 30.2669 17.3961 32.7577C16.7553 33.0808 16.2213 33.0808 15.5924 32.7577C10.7155 30.2669 5.83848 27.7866 0.949644 25.3271C0.273276 24.9832 -0.0115109 24.5767 0.000355227 23.8785C0.0359536 21.3982 0.012221 18.9178 0.012221 16.4375V16.427ZM1.86333 10.1011C1.8396 10.2262 1.79214 10.3513 1.79214 10.4763C1.79214 14.77 1.79214 19.0533 1.76841 23.347C1.76841 23.941 2.13625 24.1495 2.6109 24.3892C6.96576 26.5881 11.3325 28.7871 15.6755 31.0173C16.2807 31.3299 16.7078 31.3508 17.3249 31.0381C21.6679 28.8079 26.0109 26.5985 30.3895 24.4204C31.0658 24.0869 31.2438 23.7117 31.2438 23.076C31.2201 19.0533 31.2438 15.0306 31.2201 11.0078C31.2201 10.7056 31.3743 10.3513 31.0302 10.0699C30.9116 10.1116 30.8048 10.1324 30.7098 10.1741C26.4855 12.3105 22.273 14.4678 18.025 16.5729C17.4435 16.8648 17.3961 17.2399 17.3961 17.7297C17.3961 21.0855 17.3961 24.4308 17.3961 27.7866C17.3961 28.0888 17.4198 28.4015 17.3486 28.6828C17.2537 29.0789 16.9452 29.3394 16.4586 29.3186C16.0315 29.2977 15.7467 29.0476 15.6636 28.6933C15.5924 28.4015 15.6162 28.0992 15.6162 27.797C15.6162 24.4829 15.5924 21.1585 15.628 17.8444C15.628 17.167 15.4263 16.771 14.7143 16.4166C10.7629 14.4678 6.85897 12.446 2.91942 10.4659C2.59903 10.3096 2.32611 10.0386 1.86333 10.0907V10.1011ZM30.1996 8.47537C25.7973 6.24514 21.3831 4.0045 16.9689 1.76386C16.6248 1.58669 16.3637 1.59711 16.0196 1.76386C11.6054 4.01492 7.19122 6.24514 2.75329 8.49621C2.87195 8.61085 2.91942 8.71506 3.01435 8.75675C7.33361 10.9453 11.6529 13.1338 15.9603 15.3328C16.4586 15.5933 16.8146 15.437 17.2181 15.2286C21.3712 13.1234 25.5244 11.0078 29.6775 8.90265C29.8673 8.80886 30.0928 8.73591 30.1996 8.46494V8.47537Z" fill="black"/>
</svg>
