<svg width="34" height="23" viewBox="0 0 34 23" fill="none" xmlns="http://www.w3.org/2000/svg">
  <g clip-path="url(#clip0_169_2298)">
    <path d="M17.0031 22.9992C12.8217 22.9992 8.64121 23.0009 4.4598 22.9966C4.03389 22.9966 3.60443 22.9807 3.18293 22.9245C1.41299 22.6918 0.00623197 21.0961 0.00446468 19.315C-0.000837186 14.1062 -0.000837186 8.89743 0.00446468 3.68864C0.00623197 1.76444 1.55438 0.167814 3.48514 0.0457397C4.08779 0.00797577 4.69043 7.16924e-05 5.29308 7.16924e-05C13.3608 7.16924e-05 21.4284 -0.000806539 29.4961 0.00358462C29.9512 0.00358462 30.4116 0.0150016 30.8605 0.0826254C32.649 0.353121 33.9956 1.92252 33.9965 3.72816C34.0009 8.87811 34.0009 14.0289 33.9965 19.1789C33.9947 21.2664 32.5252 22.8121 30.4257 22.95C29.9856 22.979 29.5438 22.9966 29.1029 22.9974C25.069 23.0009 21.0352 22.9992 17.0014 22.9992H17.0031ZM30.2976 20.8563C29.0198 19.762 27.8296 18.7415 26.6366 17.7219C24.5724 15.9575 22.5056 14.1976 20.4467 12.427C20.2408 12.2505 20.0879 12.2321 19.875 12.4042C19.5206 12.6896 19.153 12.9601 18.7801 13.2201C17.703 13.971 16.4438 14 15.3437 13.2877C14.9495 13.033 14.5652 12.7573 14.2064 12.4569C13.936 12.2303 13.7584 12.2619 13.4968 12.4876C10.8503 14.7667 8.19055 17.0316 5.53608 19.3018C4.95288 19.8007 4.37497 20.3048 3.73698 20.8563H30.2993H30.2976ZM3.91017 2.14559C4.08425 2.28347 4.17438 2.35812 4.26717 2.4275C8.19674 5.36606 12.1254 8.30375 16.0559 11.2406C16.8432 11.829 17.1595 11.829 17.9425 11.2449C21.8729 8.30814 25.8025 5.37046 29.7303 2.43102C29.8301 2.35637 29.9627 2.30719 30.0086 2.14559H3.91017ZM2.0881 19.4494C2.27455 19.315 2.3744 19.2535 2.46188 19.1789C5.59794 16.4985 8.73134 13.8155 11.8727 11.1413C12.1228 10.9279 12.0273 10.8322 11.8267 10.6855C11.0571 10.1199 10.2945 9.54645 9.52927 8.97472C7.17613 7.21562 4.82386 5.45564 2.46983 3.6983C2.3797 3.63068 2.29487 3.49807 2.17205 3.54725C2.03773 3.59994 2.10489 3.75275 2.08898 3.86253C2.08103 3.91962 2.08722 3.97934 2.08722 4.03818C2.08722 8.99843 2.08722 13.9587 2.08722 18.9189V19.4494H2.0881ZM31.8784 19.4511C31.8952 19.2535 31.9111 19.1552 31.9111 19.0577C31.912 14.0114 31.9129 8.96593 31.9093 3.91962C31.9093 3.79491 31.9694 3.62453 31.8378 3.55515C31.699 3.48314 31.6054 3.64385 31.5064 3.71762C28.4119 6.02737 25.3227 8.34415 22.2237 10.6477C21.9533 10.8489 21.9162 10.9446 22.1972 11.1826C24.2146 12.8881 26.2151 14.613 28.2219 16.3299C29.4139 17.3495 30.6077 18.3665 31.8784 19.4511Z" fill="black"/>
  </g>
  <defs>
    <clipPath id="clip0_169_2298">
      <rect width="34" height="23" fill="white"/>
    </clipPath>
  </defs>
</svg>
