<svg width="36" height="37" viewBox="0 0 36 37" fill="none" xmlns="http://www.w3.org/2000/svg">
<g clip-path="url(#clip0_169_2199)">
<path d="M16.7351 0.0237645C21.1134 0.0237645 25.4926 0.0622061 29.871 0.00358273C31.5093 -0.0185212 33.3291 1.29906 33.3628 3.54501C33.3749 4.37727 33.3815 5.21049 33.3581 6.04275C33.3356 6.85483 32.7016 7.33919 32.0433 7.07779C31.6739 6.93171 31.4757 6.64821 31.4317 6.24457C31.3419 5.42961 31.4008 4.61273 31.3915 3.7968C31.3765 2.48979 30.9099 2.00158 29.6344 2.00158C20.9862 2.00158 12.3381 2.00158 3.68991 2.00158C2.46955 2.00158 1.95336 2.53208 1.95336 3.78143C1.95242 8.63371 1.95336 13.486 1.95336 18.3383C1.95336 19.6434 2.4948 20.1998 3.78342 20.2008C9.11277 20.2037 14.4421 20.2017 19.7705 20.2027C20.8142 20.2027 21.1003 20.4977 21.1003 21.5703C21.1003 22.6755 21.1003 23.7806 21.1003 24.8849C21.1003 25.9266 20.7468 26.2957 19.7172 26.2966C16.3984 26.2986 13.0796 26.2938 9.75989 26.2918C8.8182 26.2918 8.60032 26.5033 8.59471 27.4605C8.5891 28.4993 8.51241 28.3706 9.45597 28.3715C12.8533 28.3754 16.2497 28.3735 19.6471 28.3735C19.8182 28.3735 19.9912 28.3667 20.1614 28.3821C20.6758 28.4292 21.0779 28.8645 21.0769 29.3604C21.076 29.8352 20.6945 30.2725 20.2091 30.3407C20.0558 30.3628 19.8977 30.357 19.7425 30.357C15.8158 30.357 11.8892 30.358 7.96255 30.357C6.95167 30.357 6.66458 30.0562 6.66271 29.0058C6.66271 28.4129 6.6571 27.8209 6.66645 27.2279C6.69357 25.4288 7.84379 24.2602 9.58408 24.2583C10.3322 24.2583 11.0803 24.2458 11.8275 24.2631C12.1754 24.2717 12.3035 24.1353 12.2848 23.7835C12.2651 23.4001 12.267 23.0147 12.2848 22.6312C12.2997 22.2987 12.1707 22.1738 11.8481 22.1805C11.1317 22.1949 10.4145 22.1844 9.69817 22.1844C7.67266 22.1844 5.64622 22.1575 3.62164 22.1911C1.51197 22.2257 -0.0253934 20.4679 0.00172564 18.4671C0.0681204 13.536 0.0699907 8.602 -0.000144635 3.67091C-0.0272636 1.73922 1.55405 -0.0338978 3.55244 -0.000261427C7.94572 0.0746996 12.3409 0.0228035 16.7351 0.0228035V0.0237645ZM16.6098 24.2516C16.952 24.2516 17.2952 24.2516 17.6375 24.2516C19.2487 24.2516 19.2431 24.2516 19.1234 22.5755C19.1028 22.2872 18.9916 22.1834 18.7204 22.1844C17.3504 22.1901 15.9795 22.1921 14.6086 22.1824C14.3009 22.1805 14.1943 22.3112 14.2055 22.6149C14.2205 23.0147 14.2242 23.4155 14.2046 23.8152C14.1878 24.1574 14.3318 24.2631 14.6469 24.2554C15.3006 24.24 15.9552 24.2506 16.6088 24.2516H16.6098Z" fill="black"/>
<path d="M22.7632 28.5814C22.7632 27.0927 22.7866 25.6041 22.7576 24.1164C22.7136 21.8118 24.5624 20.0714 26.587 20.1925C27.6109 20.254 28.6415 20.1992 29.6692 20.204C31.7096 20.2136 33.3293 21.7801 33.3536 23.8675C33.391 27.0197 33.3892 30.1729 33.3536 33.3251C33.3302 35.4144 31.7096 36.9905 29.6767 36.9962C28.5863 36.9991 27.4968 37.0001 26.4065 36.9962C24.4081 36.9886 22.8071 35.3932 22.7697 33.3337C22.7417 31.7499 22.7641 30.1652 22.7641 28.5804H22.7613L22.7632 28.5814ZM24.7438 28.6064C24.7438 30.1431 24.7373 31.6807 24.7457 33.2174C24.7522 34.3207 25.4227 35.0059 26.5028 35.0165C27.5305 35.0271 28.5592 35.0252 29.5869 35.0165C30.7006 35.0079 31.3805 34.3409 31.3842 33.204C31.3964 30.1306 31.3973 27.0562 31.3842 23.9819C31.3795 22.8613 30.7081 22.1953 29.6215 22.1857C28.5938 22.1761 27.5651 22.178 26.5374 22.1857C25.3993 22.1934 24.7494 22.8661 24.7447 24.0424C24.7382 25.5637 24.7429 27.0841 24.7438 28.6054V28.6064Z" fill="black"/>
<path d="M28.0738 8.18808C30.9363 8.21788 33.4237 9.22216 35.5175 11.2413C35.6194 11.3393 35.7214 11.4412 35.8046 11.5556C36.0804 11.9342 36.0599 12.4599 35.7672 12.7963C35.4464 13.1653 34.9452 13.2595 34.5431 12.9693C34.1756 12.704 33.8576 12.3667 33.4995 12.0851C30.0133 9.34325 25.2347 9.5691 22.0094 12.6214C21.7205 12.8943 21.4315 13.1874 20.9976 13.1307C20.6207 13.0807 20.3168 12.8847 20.1868 12.4964C20.0466 12.0784 20.1485 11.7103 20.4515 11.3989C21.7691 10.0458 23.3317 9.12221 25.1188 8.59749C26.081 8.31494 27.0629 8.15637 28.0729 8.18904L28.0738 8.18808Z" fill="black"/>
<path d="M28.0709 11.8977C29.9468 11.9554 31.6198 12.5848 33.0028 13.9428C33.5275 14.4579 33.5733 15.0028 33.1525 15.4555C32.7634 15.8745 32.1799 15.8812 31.6974 15.4026C29.6878 13.4104 26.398 13.4325 24.4201 15.4151C23.9516 15.8841 23.341 15.8831 22.9623 15.4747C22.5433 15.024 22.5891 14.4714 23.1109 13.9572C24.4912 12.5973 26.1604 11.9592 28.0709 11.8977Z" fill="black"/>
<path d="M28.0663 15.637C28.9771 15.6879 29.8122 15.9897 30.4957 16.6595C30.924 17.0785 30.9727 17.6724 30.6323 18.0742C30.2676 18.5047 29.7598 18.5383 29.2567 18.1655C28.3169 17.4687 27.811 17.4706 26.8599 18.1731C26.3643 18.5393 25.8416 18.4989 25.4853 18.0655C25.1533 17.6628 25.2104 17.0641 25.6396 16.6509C26.3138 16.0002 27.1311 15.6937 28.0663 15.6379V15.637Z" fill="black"/>
<path d="M27.9625 31.2683C28.3618 31.2904 28.6582 31.2452 28.949 31.3279C29.3998 31.4557 29.7205 31.8603 29.713 32.2947C29.7046 32.7752 29.3829 33.1625 28.8911 33.25C28.3524 33.3451 27.8082 33.3442 27.2686 33.2548C26.7645 33.1712 26.4335 32.8021 26.4148 32.3312C26.3961 31.8517 26.7318 31.4134 27.234 31.3192C27.5061 31.2674 27.7895 31.2789 27.9634 31.2693L27.9625 31.2683Z" fill="black"/>
<path d="M28.0766 27.6144C28.3104 27.6144 28.5451 27.5981 28.7779 27.6173C29.3119 27.6625 29.699 28.069 29.7121 28.5774C29.7262 29.1002 29.3287 29.549 28.7742 29.5807C28.2926 29.6086 27.8073 29.6105 27.3257 29.5778C26.7954 29.5423 26.4148 29.105 26.4158 28.5976C26.4158 28.0902 26.8001 27.6683 27.3285 27.6183C27.5753 27.5952 27.8269 27.6144 28.0756 27.6144C28.0756 27.6144 28.0756 27.6135 28.0756 27.6125L28.0766 27.6144Z" fill="black"/>
</g>
<defs>
<clipPath id="clip0_169_2199">
<rect width="36" height="37" fill="white"/>
</clipPath>
</defs>
</svg>
