<svg width="37" height="15" viewBox="0 0 37 15" fill="none" xmlns="http://www.w3.org/2000/svg">
  <g clip-path="url(#clip0_169_2296)">
    <path d="M0.00774856 7.50879C-0.0527985 5.85658 0.314328 4.30102 1.30038 2.9171C2.59013 1.10861 4.50265 0.32812 6.73135 0.064344C9.20898 -0.229242 11.3646 0.570216 13.4079 1.75088C15.1195 2.74004 16.6707 3.92794 18.0873 5.26489C18.4025 5.56209 18.5793 5.54944 18.8888 5.26127C20.5226 3.74275 22.3006 2.39135 24.315 1.33806C25.8748 0.522339 27.5249 -0.0485738 29.3375 0.00382002C31.1107 0.0553105 32.7993 0.429294 34.2408 1.47717C35.9323 2.70662 36.7281 4.40039 36.9299 6.34167C37.0894 7.87735 37.0087 9.41123 36.36 10.8701C35.3441 13.1538 33.4662 14.3787 30.9309 14.8448C28.2044 15.3462 25.8085 14.563 23.5442 13.2405C21.8383 12.2432 20.2852 11.058 18.8677 9.72198C18.5678 9.43923 18.3987 9.44736 18.1007 9.72469C16.4669 11.2441 14.6909 12.5964 12.6784 13.6524C11.1061 14.4772 9.44155 15.0535 7.61169 14.9975C5.85486 14.9433 4.17877 14.5765 2.75255 13.5377C0.944786 12.2197 0.18074 10.404 0.0106318 8.3218C-0.0114727 8.0526 0.00774856 7.77979 0.00774856 7.50969V7.50879ZM29.1559 2.63164C28.46 2.5666 27.7143 2.74366 26.9992 3.02008C24.5226 3.97491 22.5245 5.56751 20.6178 7.28024C20.365 7.50698 20.5342 7.64158 20.7014 7.79424C22.2006 9.1619 23.8133 10.3923 25.6288 11.3733C26.9627 12.0942 28.3755 12.5223 29.941 12.3516C31.7084 12.1583 33.1356 11.5052 33.8237 9.8358C34.2332 8.84212 34.3004 7.80599 34.2005 6.76805C34.0669 5.37238 33.6046 4.11132 32.2351 3.32812C31.3183 2.80418 30.3101 2.61177 29.1559 2.63074V2.63164ZM7.71068 2.64971C7.47041 2.64971 7.22726 2.62713 6.99084 2.65332C5.2023 2.85477 3.76263 3.53679 3.12256 5.24321C2.60647 6.619 2.61608 8.02369 3.00146 9.42116C3.22731 10.2378 3.6521 10.9722 4.41711 11.4591C6.16048 12.5675 8.05089 12.6732 9.96245 11.9731C12.4564 11.0598 14.44 9.432 16.3497 7.72378C16.5996 7.50066 16.4477 7.36606 16.2757 7.20888C14.7764 5.84122 13.1686 4.60183 11.3464 3.63164C10.2229 3.03363 9.04656 2.56299 7.70972 2.64881L7.71068 2.64971Z" fill="black"/>
  </g>
  <defs>
    <clipPath id="clip0_169_2296">
      <rect width="37" height="15" fill="white"/>
    </clipPath>
  </defs>
</svg>
