<svg width="84" height="91" viewBox="0 0 84 91" fill="none" xmlns="http://www.w3.org/2000/svg">
<rect x="1.95972" y="2.70972" width="80.0806" height="86.0806" rx="17.0403" fill="#FE5000" stroke="#FE5000" stroke-width="3.91943"/>
<path d="M60 66.75H24C23.15 66.75 22.437 66.462 21.861 65.886C21.285 65.31 20.998 64.598 21 63.75V56.7C21 55.7 21.213 54.775 21.639 53.925C22.065 53.075 22.677 52.375 23.475 51.825C26.025 49.925 28.963 48.437 32.289 47.361C35.615 46.285 38.852 45.748 42 45.75C45.15 45.75 48.388 46.287 51.714 47.361C55.04 48.435 57.977 49.923 60.525 51.825C61.325 52.375 61.938 53.075 62.364 53.925C62.79 54.775 63.002 55.7 63 56.7V63.75C63 64.6 62.712 65.313 62.136 65.889C61.56 66.465 60.848 66.752 60 66.75ZM27 60.75H57V56.7C54.9 55.15 52.525 53.937 49.875 53.061C47.225 52.185 44.6 51.748 42 51.75C39.4 51.75 36.775 52.175 34.125 53.025C31.475 53.875 29.1 55.075 27 56.625V60.75ZM42 42.75C38.7 42.75 35.875 41.575 33.525 39.225C31.175 36.875 30 34.05 30 30.75C30 27.45 31.175 24.625 33.525 22.275C35.875 19.925 38.7 18.75 42 18.75C45.3 18.75 48.125 19.925 50.475 22.275C52.825 24.625 54 27.45 54 30.75C54 34.05 52.825 36.875 50.475 39.225C48.125 41.575 45.3 42.75 42 42.75ZM42 36.75C43.65 36.75 45.063 36.162 46.239 34.986C47.415 33.81 48.002 32.398 48 30.75C48 29.1 47.412 27.687 46.236 26.511C45.06 25.335 43.648 24.748 42 24.75C40.35 24.75 38.937 25.338 37.761 26.514C36.585 27.69 35.998 29.102 36 30.75C36 32.4 36.588 33.813 37.764 34.989C38.94 36.165 40.352 36.752 42 36.75ZM21 18.75H15V24.75C15 25.6 14.712 26.313 14.136 26.889C13.56 27.465 12.848 27.752 12 27.75C11.15 27.75 10.437 27.462 9.86101 26.886C9.28501 26.31 8.99801 25.598 9.00001 24.75V18.75C9.00001 17.1 9.58801 15.687 10.764 14.511C11.94 13.335 13.352 12.748 15 12.75H21C21.85 12.75 22.563 13.038 23.139 13.614C23.715 14.19 24.002 14.902 24 15.75C24 16.6 23.712 17.313 23.136 17.889C22.56 18.465 21.848 18.752 21 18.75ZM15 78.75C13.35 78.75 11.937 78.162 10.761 76.986C9.58501 75.81 8.99801 74.398 9.00001 72.75V66.75C9.00001 65.9 9.28801 65.187 9.86401 64.611C10.44 64.035 11.152 63.748 12 63.75C12.85 63.75 13.563 64.038 14.139 64.614C14.715 65.19 15.002 65.902 15 66.75V72.75H21C21.85 72.75 22.563 73.038 23.139 73.614C23.715 74.19 24.002 74.902 24 75.75C24 76.6 23.712 77.313 23.136 77.889C22.56 78.465 21.848 78.752 21 78.75H15ZM69 78.75H63C62.15 78.75 61.437 78.462 60.861 77.886C60.285 77.31 59.998 76.598 60 75.75C60 74.9 60.288 74.187 60.864 73.611C61.44 73.035 62.152 72.748 63 72.75H69V66.75C69 65.9 69.288 65.187 69.864 64.611C70.44 64.035 71.152 63.748 72 63.75C72.85 63.75 73.563 64.038 74.139 64.614C74.715 65.19 75.002 65.902 75 66.75V72.75C75 74.4 74.412 75.813 73.236 76.989C72.06 78.165 70.648 78.752 69 78.75ZM63 18.75C62.15 18.75 61.437 18.462 60.861 17.886C60.285 17.31 59.998 16.598 60 15.75C60 14.9 60.288 14.187 60.864 13.611C61.44 13.035 62.152 12.748 63 12.75H69C70.65 12.75 72.063 13.338 73.239 14.514C74.415 15.69 75.002 17.102 75 18.75V24.75C75 25.6 74.712 26.313 74.136 26.889C73.56 27.465 72.848 27.752 72 27.75C71.15 27.75 70.437 27.462 69.861 26.886C69.285 26.31 68.998 25.598 69 24.75V18.75H63Z" fill="white"/>
</svg>
