<svg width="84" height="90" viewBox="0 0 84 90" fill="none" xmlns="http://www.w3.org/2000/svg">
<rect x="1.95972" y="1.95972" width="80.0806" height="86.0806" rx="17.0403" fill="#FE5000" stroke="#FE5000" stroke-width="3.91943"/>
<path d="M66 55.5C62.25 55.5 58.65 54.9 55.29 53.79C54.7625 53.622 54.1993 53.6002 53.6605 53.727C53.1216 53.8538 52.6272 54.1244 52.23 54.51L45.63 61.11C37.1136 56.7787 30.1913 49.8564 25.86 41.34L32.46 34.71C32.8573 34.333 33.1389 33.8506 33.2718 33.3192C33.4046 32.7878 33.3832 32.2296 33.21 31.71C32.072 28.2542 31.4946 24.6384 31.5 21C31.5 19.35 30.15 18 28.5 18H18C16.35 18 15 19.35 15 21C15 49.17 37.83 72 66 72C67.65 72 69 70.65 69 69V58.5C69 56.85 67.65 55.5 66 55.5ZM63 45H69C69 37.8392 66.1554 30.9716 61.0919 25.9081C56.0284 20.8446 49.1608 18 42 18V24C53.61 24 63 33.39 63 45ZM51 45H57C57 36.72 50.28 30 42 30V36C46.98 36 51 40.02 51 45Z" fill="white"/>
</svg>
