<svg width="567" height="218" viewBox="0 0 567 218" fill="none" xmlns="http://www.w3.org/2000/svg">
<g clip-path="url(#clip0_291_1165)">
<path d="M107.283 148.54L156.016 83.6726H144.912L99.6231 144.878H74.6628V83.6726H65.8545V218H74.6628V152.954H99.4252L148.356 218H159.856L107.303 148.54H107.283Z" fill="#1D1D1B"/>
<path d="M267.872 83.6924L229.888 169.483L186.539 83.6924H176.167L225.097 179.44L207.817 218H217.793L277.868 83.6726H267.872V83.6924Z" fill="#1D1D1B"/>
<path d="M346.93 140.484H313.557V91.9468H381.49V83.6924H304.729V218.02H346.95C375.908 218.02 391.071 203.055 391.071 179.262C391.071 155.468 375.532 140.484 346.95 140.484H346.93ZM346.93 209.963H313.557V148.54H346.93C369.752 148.54 381.847 160.635 381.847 179.242C381.847 197.849 370.148 209.944 346.93 209.944V209.963Z" fill="#1D1D1B"/>
<path d="M499.462 91.7489V83.6924H421.751V218.02H499.462V209.983H430.559V152.974H487.962V144.918H430.559V91.7687H499.462V91.7489Z" fill="#1D1D1B"/>
<path d="M564.268 46.3C562.447 42.9349 560.072 40.4407 557.162 38.7186C554.253 37.0162 551.382 35.789 548.532 35.0565C545.682 34.3241 542.891 33.9678 540.1 33.9678L566.426 3.54325V0.0197754H519.692V4.69135H553.144C555.856 4.69135 557.974 4.61217 559.439 4.45381V4.69135L555.836 8.43256L532.994 35.1159L534.379 38.6196H539.981C545.9 38.6196 550.987 40.3418 555.302 43.8058C559.617 47.2699 561.774 52.0207 561.774 58.0779C561.774 64.1351 559.736 68.7077 555.658 72.4687C551.58 76.2495 546.83 78.13 541.387 78.13C537.17 78.13 533.113 77.1601 529.193 75.2004C525.274 73.2803 522.048 70.8653 519.474 67.9753L515.733 71.7165C519.079 75.2004 522.978 77.9717 527.451 79.9907C531.905 82.0098 536.497 83.0193 541.129 83.0193C548.196 83.0193 554.292 80.5846 559.379 75.7348C564.466 70.8851 567 64.9863 567 58.0779C567 53.5845 566.089 49.6651 564.268 46.3198V46.3Z" fill="#1D1D1B"/>
<path d="M27.4543 109.821C32.5018 107.505 34.8969 103.309 34.8969 98.1821C34.8969 89.1953 29.4931 83.7715 16.6864 83.7715H0V138.049H18.2303C31.0172 138.049 36.4606 132.625 36.4606 122.846C36.4606 116.71 33.5905 112.058 27.4543 109.802V109.821ZM5.44336 88.74H16.7062C25.7718 88.74 29.3348 92.303 29.3348 98.2019C29.3348 104.101 25.7718 107.684 16.7062 107.684H5.42356V88.7598L5.44336 88.74ZM18.2303 133.1H5.42356V112.632H18.2105C27.296 112.632 30.8589 116.195 30.8589 122.866C30.8589 129.537 27.296 133.08 18.2105 133.08L18.2303 133.1Z" fill="#1D1D1B"/>
<path d="M31.9871 0L12.9255 35.69L9.36254 43.3704V0H0.0395508V54.2773H12.4504L31.5319 18.6269L34.9364 11.3226V54.2773H44.2396V0H31.9871Z" fill="#1D1D1B"/>
<path d="M90.0033 0V22.2493H64.3898V0H55.1064V54.2773H64.3898V30.4642H90.0033V54.2773H99.2867V0H90.0033Z" fill="#1D1D1B"/>
<path d="M105.898 0V8.23463H122.565V54.2773H131.868V8.23463H148.535V0H105.878H105.898Z" fill="#1D1D1B"/>
<path d="M190.023 8.23463V0H155.126V54.2773H190.023V46.0625H164.429V30.4642H185.371V22.2295H164.429V8.21484H190.023V8.23463Z" fill="#1D1D1B"/>
<path d="M217.18 0H198.574V54.2773H207.857V35.8286H217.16C231.056 35.8286 238.102 28.7816 238.102 17.9143C238.102 6.37392 231.729 0 217.16 0H217.18ZM217.18 27.6137H207.877V8.23463H217.18C224.86 8.23463 228.364 11.7185 228.364 17.9143C228.364 24.1101 224.543 27.6137 217.18 27.6137Z" fill="#1D1D1B"/>
<path d="M279.967 0V22.2493H254.373V0H245.07V54.2773H254.373V30.4642H279.967V54.2773H289.27V0H279.967Z" fill="#1D1D1B"/>
<path d="M335.054 8.23463V0H300.157V54.2773H335.054V46.0625H309.46V30.4642H330.382V22.2295H309.46V8.21484H335.054V8.23463Z" fill="#1D1D1B"/>
<path d="M339.289 0V8.23463H355.976V54.2773H365.259V8.23463H381.926V0H339.27H339.289Z" fill="#1D1D1B"/>
</g>
<defs>
<clipPath id="clip0_291_1165">
<rect width="567" height="218" fill="white"/>
</clipPath>
</defs>
</svg>
