<svg width="560" height="456" viewBox="0 0 560 456" fill="none" xmlns="http://www.w3.org/2000/svg">
<g style="mix-blend-mode:color-dodge">
<g opacity="0.85">
<path d="M430.148 85.2094C430.148 86.8964 428.588 88.2656 426.663 88.2656C424.737 88.2656 423.177 86.8981 423.177 85.2094C423.177 83.5206 424.737 82.1531 426.663 82.1531C428.588 82.1531 430.148 83.5206 430.148 85.2094Z" fill="#FAFAFA" fill-opacity="0.2"/>
<path d="M419.702 85.2094C419.702 88.5752 422.824 91.3136 426.663 91.3136C430.501 91.3136 433.623 88.5752 433.623 85.2094C433.623 81.8435 430.501 79.1051 426.663 79.1051C422.824 79.1051 419.702 81.8435 419.702 85.2094ZM420.655 85.2094C420.655 82.3038 423.351 79.9395 426.664 79.9395C429.978 79.9395 432.674 82.3038 432.674 85.2094C432.674 88.115 429.978 90.4792 426.664 90.4792C423.351 90.4792 420.655 88.115 420.655 85.2094Z" fill="#FAFAFA" fill-opacity="0.2"/>
<path d="M83.452 391.882C83.452 393.569 81.8926 394.938 79.967 394.938C78.0413 394.938 76.4819 393.571 76.4819 391.882C76.4819 390.193 78.0413 388.826 79.967 388.826C81.8926 388.826 83.452 390.193 83.452 391.882Z" fill="#FAFAFA" fill-opacity="0.2"/>
<path d="M73.0083 391.882C73.0083 395.248 76.1309 397.986 79.9689 397.986C83.807 397.986 86.9296 395.248 86.9296 391.882C86.9296 388.516 83.807 385.778 79.9689 385.778C76.1309 385.778 73.0083 388.516 73.0083 391.882ZM73.9598 391.882C73.9598 388.976 76.6557 386.614 79.9671 386.614C83.2784 386.614 85.9743 388.978 85.9743 391.882C85.9743 394.786 83.2784 397.152 79.9671 397.152C76.6557 397.152 73.9598 394.787 73.9598 391.882Z" fill="#FAFAFA" fill-opacity="0.2"/>
<path d="M35.7792 41.2562C35.7792 42.9433 34.2198 44.3124 32.2941 44.3124C30.3685 44.3124 28.8091 42.9449 28.8091 41.2562C28.8091 39.5675 30.3685 38.1999 32.2941 38.1999C34.2198 38.1999 35.7792 39.5675 35.7792 41.2562Z" fill="#FAFAFA" fill-opacity="0.2"/>
<path d="M25.3354 41.2578C25.3354 44.6237 28.458 47.3621 32.2961 47.3621C36.1342 47.3621 39.2567 44.6237 39.2567 41.2578C39.2567 37.892 36.1342 35.1536 32.2961 35.1536C28.458 35.1536 25.3354 37.892 25.3354 41.2578ZM26.2869 41.2578C26.2869 38.3522 28.9828 35.988 32.2942 35.988C35.6056 35.988 38.3015 38.3522 38.3015 41.2578C38.3015 44.1634 35.6056 46.526 32.2942 46.526C28.9828 46.526 26.2869 44.1618 26.2869 41.2578Z" fill="#FAFAFA" fill-opacity="0.2"/>
<path d="M393.017 362.937C393.017 364.624 391.457 365.993 389.532 365.993C387.606 365.993 386.047 364.626 386.047 362.937C386.047 361.248 387.606 359.881 389.532 359.881C391.457 359.881 393.017 361.248 393.017 362.937Z" fill="#FAFAFA" fill-opacity="0.2"/>
<path d="M382.571 362.937C382.571 366.303 385.694 369.041 389.532 369.041C393.37 369.041 396.492 366.303 396.492 362.937C396.492 359.571 393.37 356.833 389.532 356.833C385.694 356.833 382.571 359.571 382.571 362.937ZM383.524 362.937C383.524 360.031 386.22 357.667 389.534 357.667C392.847 357.667 395.543 360.031 395.543 362.937C395.543 365.842 392.847 368.207 389.534 368.207C386.22 368.207 383.524 365.842 383.524 362.937Z" fill="#FAFAFA" fill-opacity="0.2"/>
<path d="M514.58 176.134C514.58 177.821 513.02 179.19 511.095 179.19C509.169 179.19 507.61 177.823 507.61 176.134C507.61 174.445 509.169 173.078 511.095 173.078C513.02 173.078 514.58 174.445 514.58 176.134Z" fill="#FAFAFA" fill-opacity="0.2"/>
<path d="M120.723 341.025C120.723 342.712 119.163 344.081 117.238 344.081C115.312 344.081 113.753 342.713 113.753 341.025C113.753 339.336 115.312 337.968 117.238 337.968C119.163 337.968 120.723 339.336 120.723 341.025Z" fill="#FAFAFA" fill-opacity="0.2"/>
<path d="M127.691 68.4496C127.691 70.1367 126.132 71.5059 124.206 71.5059C122.28 71.5059 120.721 70.1383 120.721 68.4496C120.721 66.7609 122.28 65.3933 124.206 65.3933C126.132 65.3933 127.691 66.7609 127.691 68.4496Z" fill="#FAFAFA" fill-opacity="0.2"/>
<path d="M313.61 139.956C313.61 141.643 312.051 143.012 310.125 143.012C308.2 143.012 306.64 141.644 306.64 139.956C306.64 138.267 308.2 136.899 310.125 136.899C312.051 136.899 313.61 138.267 313.61 139.956Z" fill="#FAFAFA" fill-opacity="0.2"/>
<path d="M254.753 390.354C254.753 391.198 253.974 391.882 253.011 391.882C252.048 391.882 251.268 391.198 251.268 390.354C251.268 389.509 252.048 388.826 253.011 388.826C253.974 388.826 254.753 389.509 254.753 390.354Z" fill="#FAFAFA" fill-opacity="0.2"/>
<path d="M421.92 206.582C421.92 207.427 421.14 208.11 420.178 208.11C419.215 208.11 418.435 207.427 418.435 206.582C418.435 205.738 419.215 205.054 420.178 205.054C421.14 205.054 421.92 205.738 421.92 206.582Z" fill="#FAFAFA" fill-opacity="0.2"/>
<path d="M3.48504 445.385C3.48504 446.229 2.70534 446.913 1.74252 446.913C0.779698 446.913 0 446.229 0 445.385C0 444.54 0.779698 443.856 1.74252 443.856C2.70534 443.856 3.48504 444.54 3.48504 445.385Z" fill="#FAFAFA" fill-opacity="0.2"/>
<path d="M20.6384 296.73C20.6384 297.575 19.8587 298.259 18.8958 298.259C17.933 298.259 17.1533 297.575 17.1533 296.73C17.1533 295.886 17.933 295.202 18.8958 295.202C19.8587 295.202 20.6384 295.886 20.6384 296.73Z" fill="#FAFAFA" fill-opacity="0.2"/>
<path d="M92.7858 173.079C92.7858 173.924 92.0061 174.607 91.0433 174.607C90.0805 174.607 89.3008 173.924 89.3008 173.079C89.3008 172.235 90.0805 171.551 91.0433 171.551C92.0061 171.551 92.7858 172.235 92.7858 173.079Z" fill="#FAFAFA" fill-opacity="0.2"/>
<path d="M210.439 8.74323C210.439 9.5876 209.659 10.2714 208.697 10.2714C207.734 10.2714 206.954 9.5876 206.954 8.74323C206.954 7.89887 207.734 7.21511 208.697 7.21511C209.659 7.21511 210.439 7.89887 210.439 8.74323Z" fill="#FAFAFA" fill-opacity="0.2"/>
<path d="M505.869 435.597C505.869 436.441 505.089 437.125 504.126 437.125C503.163 437.125 502.384 436.441 502.384 435.597C502.384 434.752 503.163 434.068 504.126 434.068C505.089 434.068 505.869 434.752 505.869 435.597Z" fill="#FAFAFA" fill-opacity="0.2"/>
<path d="M447.797 348.468C447.797 346.781 449.357 345.412 451.282 345.412C453.208 345.412 454.767 346.78 454.767 348.468C454.767 350.157 453.208 351.525 451.282 351.525C449.357 351.525 447.797 350.157 447.797 348.468Z" fill="#FAFAFA" fill-opacity="0.2"/>
<path d="M444.322 348.468C444.322 351.834 447.444 354.573 451.282 354.573C455.12 354.573 458.243 351.834 458.243 348.468C458.243 345.103 455.12 342.364 451.282 342.364C447.444 342.364 444.322 345.103 444.322 348.468ZM445.273 348.468C445.273 345.563 447.969 343.199 451.282 343.199C454.596 343.199 457.292 345.563 457.292 348.468C457.292 351.374 454.596 353.738 451.282 353.738C447.969 353.738 445.273 351.374 445.273 348.468Z" fill="#FAFAFA" fill-opacity="0.2"/>
<path d="M276.519 349.488C276.519 347.801 278.078 346.432 280.004 346.432C281.93 346.432 283.489 347.8 283.489 349.488C283.489 351.177 281.93 352.544 280.004 352.544C278.078 352.544 276.519 351.177 276.519 349.488Z" fill="#FAFAFA" fill-opacity="0.2"/>
<path d="M273.043 349.488C273.043 352.854 276.166 355.592 280.004 355.592C283.842 355.592 286.964 352.854 286.964 349.488C286.964 346.122 283.842 343.384 280.004 343.384C276.166 343.384 273.043 346.122 273.043 349.488ZM273.995 349.488C273.995 346.583 276.691 344.22 280.004 344.22C283.317 344.22 286.013 346.584 286.013 349.488C286.013 352.392 283.317 354.758 280.004 354.758C276.691 354.758 273.995 352.394 273.995 349.488Z" fill="#FAFAFA" fill-opacity="0.2"/>
<path d="M328.364 200.611C328.364 198.924 329.923 197.554 331.849 197.554C333.774 197.554 335.334 198.922 335.334 200.611C335.334 202.299 333.774 203.667 331.849 203.667C329.923 203.667 328.364 202.299 328.364 200.611Z" fill="#FAFAFA" fill-opacity="0.2"/>
<path d="M324.886 200.611C324.886 203.976 328.009 206.715 331.847 206.715C335.685 206.715 338.808 203.976 338.808 200.611C338.808 197.245 335.685 194.506 331.847 194.506C328.009 194.506 324.886 197.245 324.886 200.611ZM325.84 200.611C325.84 197.705 328.536 195.341 331.847 195.341C335.158 195.341 337.856 197.705 337.856 200.611C337.856 203.516 335.16 205.88 331.847 205.88C328.534 205.88 325.84 203.516 325.84 200.611Z" fill="#FAFAFA" fill-opacity="0.2"/>
<path d="M35.2959 258.666C35.2959 256.979 36.8553 255.61 38.7809 255.61C40.7066 255.61 42.266 256.978 42.266 258.666C42.266 260.355 40.7066 261.723 38.7809 261.723C36.8553 261.723 35.2959 260.355 35.2959 258.666Z" fill="#FAFAFA" fill-opacity="0.2"/>
<path d="M31.8184 258.666C31.8184 262.032 34.9409 264.771 38.779 264.771C42.6171 264.771 45.7396 262.032 45.7396 258.666C45.7396 255.3 42.6171 252.562 38.779 252.562C34.9409 252.562 31.8184 255.3 31.8184 258.666ZM32.7717 258.666C32.7717 255.761 35.4676 253.396 38.779 253.396C42.0904 253.396 44.7881 255.761 44.7881 258.666C44.7881 261.572 42.0922 263.936 38.779 263.936C35.4658 263.936 32.7717 261.572 32.7717 258.666Z" fill="#FAFAFA" fill-opacity="0.2"/>
<path d="M69.999 232.617C69.999 230.93 71.5584 229.561 73.4841 229.561C75.4097 229.561 76.9691 230.928 76.9691 232.617C76.9691 234.306 75.4097 235.673 73.4841 235.673C71.5584 235.673 69.999 234.306 69.999 232.617Z" fill="#FAFAFA" fill-opacity="0.2"/>
<path d="M66.5215 232.617C66.5215 235.983 69.6441 238.721 73.4821 238.721C77.3202 238.721 80.4428 235.983 80.4428 232.617C80.4428 229.251 77.3202 226.513 73.4821 226.513C69.6441 226.513 66.5215 229.251 66.5215 232.617ZM67.4749 232.617C67.4749 229.711 70.1708 227.347 73.484 227.347C76.7973 227.347 79.4913 229.711 79.4913 232.617C79.4913 235.522 76.7954 237.887 73.484 237.887C70.1727 237.887 67.4749 235.522 67.4749 232.617Z" fill="#FAFAFA" fill-opacity="0.2"/>
<path d="M156.585 116.737C156.585 115.05 158.145 113.681 160.07 113.681C161.996 113.681 163.555 115.048 163.555 116.737C163.555 118.426 161.996 119.793 160.07 119.793C158.145 119.793 156.585 118.426 156.585 116.737Z" fill="#FAFAFA" fill-opacity="0.2"/>
<path d="M153.108 116.737C153.108 120.103 156.23 122.841 160.068 122.841C163.906 122.841 167.029 120.103 167.029 116.737C167.029 113.371 163.906 110.633 160.068 110.633C156.23 110.633 153.108 113.371 153.108 116.737ZM154.061 116.737C154.061 113.832 156.757 111.469 160.068 111.469C163.38 111.469 166.077 113.833 166.077 116.737C166.077 119.641 163.382 122.007 160.068 122.007C156.755 122.007 154.061 119.643 154.061 116.737Z" fill="#FAFAFA" fill-opacity="0.2"/>
<path d="M268.042 32.9384C268.042 31.2514 269.602 29.8822 271.527 29.8822C273.453 29.8822 275.012 31.2497 275.012 32.9384C275.012 34.6272 273.453 35.9947 271.527 35.9947C269.602 35.9947 268.042 34.6272 268.042 32.9384Z" fill="#FAFAFA" fill-opacity="0.2"/>
<path d="M264.565 32.9384C264.565 36.3042 267.687 39.0426 271.525 39.0426C275.363 39.0426 278.486 36.3042 278.486 32.9384C278.486 29.5725 275.363 26.8341 271.525 26.8341C267.687 26.8341 264.565 29.5725 264.565 32.9384ZM265.518 32.9384C265.518 30.0328 268.214 27.6686 271.525 27.6686C274.837 27.6686 277.534 30.0328 277.534 32.9384C277.534 35.844 274.839 38.2082 271.525 38.2082C268.212 38.2082 265.518 35.844 265.518 32.9384Z" fill="#FAFAFA" fill-opacity="0.2"/>
<path d="M351.515 150.676C351.515 148.989 353.075 147.619 355 147.619C356.926 147.619 358.485 148.987 358.485 150.676C358.485 152.364 356.926 153.732 355 153.732C353.075 153.732 351.515 152.364 351.515 150.676Z" fill="#FAFAFA" fill-opacity="0.2"/>
<path d="M348.038 150.674C348.038 154.04 351.16 156.778 354.998 156.778C358.836 156.778 361.959 154.04 361.959 150.674C361.959 147.308 358.836 144.57 354.998 144.57C351.16 144.57 348.038 147.308 348.038 150.674ZM348.991 150.674C348.991 147.768 351.687 145.406 355 145.406C358.313 145.406 361.007 147.77 361.007 150.674C361.007 153.578 358.311 155.944 355 155.944C351.689 155.944 348.991 153.58 348.991 150.674Z" fill="#FAFAFA" fill-opacity="0.2"/>
<path d="M84.0752 277.679C84.0752 275.992 85.6346 274.623 87.5602 274.623C89.4859 274.623 91.0453 275.991 91.0453 277.679C91.0453 279.368 89.4859 280.736 87.5602 280.736C85.6346 280.736 84.0752 279.368 84.0752 277.679Z" fill="#FAFAFA" fill-opacity="0.2"/>
<path d="M80.5996 277.679C80.5996 281.045 83.7222 283.784 87.5603 283.784C91.3983 283.784 94.5209 281.045 94.5209 277.679C94.5209 274.313 91.3983 271.575 87.5603 271.575C83.7222 271.575 80.5996 274.313 80.5996 277.679ZM81.5511 277.679C81.5511 274.774 84.247 272.41 87.5603 272.41C90.8735 272.41 93.5675 274.774 93.5675 277.679C93.5675 280.585 90.8716 282.947 87.5603 282.947C84.2489 282.947 81.5511 280.583 81.5511 277.679Z" fill="#FAFAFA" fill-opacity="0.2"/>
<path d="M194.8 235.672C194.8 233.984 196.359 232.615 198.285 232.615C200.211 232.615 201.77 233.983 201.77 235.672C201.77 237.36 200.211 238.728 198.285 238.728C196.359 238.728 194.8 237.36 194.8 235.672Z" fill="#FAFAFA" fill-opacity="0.2"/>
<path d="M52.5036 249.733C54.2818 250.379 55.1262 252.167 54.3896 253.726C53.6531 255.286 51.6144 256.026 49.8362 255.38C48.058 254.734 47.2136 252.946 47.9501 251.387C48.6867 249.827 50.7253 249.087 52.5036 249.733Z" fill="#FAFAFA" fill-opacity="0.2"/>
<path d="M58.9114 240.171C58.9114 238.484 60.4708 237.115 62.3964 237.115C64.3221 237.115 65.8815 238.483 65.8815 240.171C65.8815 241.86 64.3221 243.228 62.3964 243.228C60.4708 243.228 58.9114 241.86 58.9114 240.171Z" fill="#FAFAFA" fill-opacity="0.2"/>
<path d="M62.3965 268.173C62.3965 266.486 63.9559 265.117 65.8815 265.117C67.8072 265.117 69.3666 266.484 69.3666 268.173C69.3666 269.862 67.8072 271.229 65.8815 271.229C63.9559 271.229 62.3965 269.862 62.3965 268.173Z" fill="#FAFAFA" fill-opacity="0.2"/>
<path d="M500.643 311.631C500.643 309.944 502.202 308.575 504.128 308.575C506.054 308.575 507.613 309.942 507.613 311.631C507.613 313.32 506.054 314.687 504.128 314.687C502.202 314.687 500.643 313.32 500.643 311.631Z" fill="#FAFAFA" fill-opacity="0.2"/>
<path d="M459.089 371.21C459.089 369.523 460.648 368.154 462.574 368.154C464.5 368.154 466.059 369.521 466.059 371.21C466.059 372.899 464.5 374.266 462.574 374.266C460.648 374.266 459.089 372.899 459.089 371.21Z" fill="#FAFAFA" fill-opacity="0.2"/>
<path d="M365.831 319.219C365.831 317.532 367.39 316.162 369.316 316.162C371.242 316.162 372.801 317.53 372.801 319.219C372.801 320.907 371.242 322.275 369.316 322.275C367.39 322.275 365.831 320.907 365.831 319.219Z" fill="#FAFAFA" fill-opacity="0.2"/>
<path d="M106.786 284.807C106.786 283.12 108.346 281.751 110.271 281.751C112.197 281.751 113.756 283.118 113.756 284.807C113.756 286.495 112.197 287.863 110.271 287.863C108.346 287.863 106.786 286.495 106.786 284.807Z" fill="#FAFAFA" fill-opacity="0.2"/>
<path d="M182.802 130.868C182.802 129.181 184.362 127.812 186.287 127.812C188.213 127.812 189.772 129.179 189.772 130.868C189.772 132.557 188.213 133.924 186.287 133.924C184.362 133.924 182.802 132.557 182.802 130.868Z" fill="#FAFAFA" fill-opacity="0.2"/>
<path d="M222.421 206.582C222.421 204.895 223.981 203.526 225.906 203.526C227.832 203.526 229.391 204.894 229.391 206.582C229.391 208.271 227.832 209.639 225.906 209.639C223.981 209.639 222.421 208.271 222.421 206.582Z" fill="#FAFAFA" fill-opacity="0.2"/>
<path d="M206.828 181.627C208.701 182.015 209.861 183.661 209.419 185.304C208.977 186.947 207.1 187.964 205.227 187.576C203.354 187.189 202.193 185.542 202.636 183.9C203.078 182.257 204.955 181.239 206.828 181.627Z" fill="#FAFAFA" fill-opacity="0.2"/>
<path d="M276.991 3.05626C276.991 1.36919 278.55 8.58307e-06 280.476 8.58307e-06C282.401 8.58307e-06 283.961 1.36754 283.961 3.05626C283.961 4.74499 282.401 6.11252 280.476 6.11252C278.55 6.11252 276.991 4.74499 276.991 3.05626Z" fill="#FAFAFA" fill-opacity="0.2"/>
<path d="M222.421 139.956C222.421 138.268 223.981 136.899 225.906 136.899C227.832 136.899 229.391 138.267 229.391 139.956C229.391 141.644 227.832 143.012 225.906 143.012C223.981 143.012 222.421 141.644 222.421 139.956Z" fill="#FAFAFA" fill-opacity="0.2"/>
<path d="M237.625 234.13C239.499 234.518 240.659 236.164 240.217 237.807C239.774 239.449 237.897 240.467 236.024 240.079C234.151 239.691 232.991 238.045 233.433 236.403C233.875 234.76 235.752 233.742 237.625 234.13Z" fill="#FAFAFA" fill-opacity="0.2"/>
<path d="M306.64 209.639C306.64 207.952 308.2 206.582 310.125 206.582C312.051 206.582 313.61 207.95 313.61 209.639C313.61 211.327 312.051 212.695 310.125 212.695C308.2 212.695 306.64 211.327 306.64 209.639Z" fill="#FAFAFA" fill-opacity="0.2"/>
<path d="M439.478 281.751C439.478 280.063 441.037 278.694 442.963 278.694C444.888 278.694 446.448 280.062 446.448 281.751C446.448 283.439 444.888 284.807 442.963 284.807C441.037 284.807 439.478 283.439 439.478 281.751Z" fill="#FAFAFA" fill-opacity="0.2"/>
<path d="M386.048 257.14C386.048 255.453 387.608 254.084 389.533 254.084C391.459 254.084 393.018 255.451 393.018 257.14C393.018 258.829 391.459 260.196 389.533 260.196C387.608 260.196 386.048 258.829 386.048 257.14Z" fill="#FAFAFA" fill-opacity="0.2"/>
<path d="M38.7791 258.249H269.715L320.818 303.065H417.984L442.625 281.456L443.299 282.047L418.378 303.899H320.424L269.32 259.084H38.7791L38.7791 258.249Z" fill="#FAFAFA" fill-opacity="0.2"/>
<path d="M51.1692 251.304H253.075L303.791 295.779H393.22L452.292 347.583L450.272 349.354L392.039 298.285H302.608L251.891 253.809H51.1692V251.304Z" fill="#FAFAFA" fill-opacity="0.2"/>
<path d="M65.8796 267.756H297.59L347.145 311.214H504.126V312.048H346.75L297.195 268.592H65.8796V267.756Z" fill="#FAFAFA" fill-opacity="0.2"/>
<path d="M330.837 199.725L332.857 201.496L283.272 244.981H223.243L213.952 236.834H198.283V234.327H215.134L224.426 242.476H282.088L330.837 199.725Z" fill="#FAFAFA" fill-opacity="0.2"/>
<path d="M355.074 256.721H389.531V257.557H355.466L332.045 278.097H87.5601V277.262H331.651L355.074 256.721Z" fill="#FAFAFA" fill-opacity="0.2"/>
<path d="M110.27 284.39H279.991L305.026 306.345V328.134L280.34 349.783L279.666 349.192L304.074 327.788V306.691L279.596 285.224H110.27V284.39Z" fill="#FAFAFA" fill-opacity="0.2"/>
<path d="M369.316 318.8H403.485L462.91 370.915L462.236 371.505L403.09 319.636H369.316V318.8Z" fill="#FAFAFA" fill-opacity="0.2"/>
<path d="M309.789 209.342L310.461 209.933L278.99 237.532H235.878V236.698H278.596L309.789 209.342Z" fill="#FAFAFA" fill-opacity="0.2"/>
<path d="M354.662 150.379L355.336 150.97L276.715 219.917L193.929 219.917L170.357 240.589H62.3965V239.754H169.965L193.535 219.082L276.322 219.082L354.662 150.379Z" fill="#FAFAFA" fill-opacity="0.2"/>
<path d="M187.545 129.984L214.389 153.523L214.389 190.589L165.037 233.869H73.4841V231.364H163.855L211.532 189.553L211.532 154.561L185.525 131.755L187.545 129.984Z" fill="#FAFAFA" fill-opacity="0.2"/>
<path d="M160.406 116.443L206.514 156.878V184.612H205.561V157.224L159.732 117.032L160.406 116.443Z" fill="#FAFAFA" fill-opacity="0.2"/>
<path d="M271.05 32.9384H272.001V115.043L226.382 155.05V206.582H225.429V154.705L271.05 114.697V32.9384Z" fill="#FAFAFA" fill-opacity="0.2"/>
<path d="M279.998 3.05623H280.95V92.2739L226.243 140.25L225.569 139.661L279.998 91.9279V3.05623Z" fill="#FAFAFA" fill-opacity="0.2"/>
</g>
<g opacity="0.23">
<path d="M116.411 78.5488C118.335 78.5488 119.896 79.9164 119.896 81.6051C119.896 83.2938 118.336 84.6613 116.411 84.6613C114.485 84.6613 112.926 83.2938 112.926 81.6051C112.926 79.9164 114.485 78.5488 116.411 78.5488Z" fill="#FAFAFA" fill-opacity="0.2"/>
<path d="M109.448 81.6051C109.448 84.9709 112.571 87.7094 116.409 87.7094C120.247 87.7094 123.37 84.9709 123.37 81.6051C123.37 78.2392 120.247 75.5008 116.409 75.5008C112.571 75.5008 109.448 78.2392 109.448 81.6051ZM110.402 81.6051C110.402 78.6995 113.098 76.3353 116.411 76.3353C119.724 76.3353 122.42 78.6995 122.42 81.6051C122.42 84.5107 119.724 86.8733 116.411 86.8733C113.098 86.8733 110.402 84.509 110.402 81.6051Z" fill="#FAFAFA" fill-opacity="0.2"/>
<path d="M466.108 382.589C468.032 382.589 469.593 383.956 469.593 385.645C469.593 387.334 468.034 388.701 466.108 388.701C464.182 388.701 462.623 387.334 462.623 385.645C462.623 383.956 464.182 382.589 466.108 382.589Z" fill="#FAFAFA" fill-opacity="0.2"/>
<path d="M459.147 385.643C459.147 389.009 462.27 391.748 466.108 391.748C469.946 391.748 473.069 389.009 473.069 385.643C473.069 382.278 469.946 379.539 466.108 379.539C462.27 379.539 459.147 382.278 459.147 385.643ZM460.099 385.643C460.099 382.738 462.795 380.374 466.106 380.374C469.418 380.374 472.115 382.738 472.115 385.643C472.115 388.549 469.419 390.912 466.106 390.912C462.793 390.912 460.099 388.547 460.099 385.643Z" fill="#FAFAFA" fill-opacity="0.2"/>
<path d="M66.2912 424.396C68.215 424.396 69.7762 425.764 69.7762 427.453C69.7762 429.141 68.2168 430.509 66.2912 430.509C64.3656 430.509 62.8062 429.141 62.8062 427.453C62.8062 425.764 64.3656 424.396 66.2912 424.396Z" fill="#FAFAFA" fill-opacity="0.2"/>
<path d="M59.3306 427.451C59.3306 430.817 62.4531 433.555 66.2912 433.555C70.1293 433.555 73.2519 430.817 73.2519 427.451C73.2519 424.085 70.1293 421.347 66.2912 421.347C62.4531 421.347 59.3306 424.085 59.3306 427.451ZM60.284 427.451C60.284 424.545 62.9799 422.181 66.2912 422.181C69.6026 422.181 72.3004 424.545 72.3004 427.451C72.3004 430.357 69.6045 432.721 66.2912 432.721C62.978 432.721 60.284 430.357 60.284 427.451Z" fill="#FAFAFA" fill-opacity="0.2"/>
<path d="M433.102 111.111C435.026 111.111 436.587 112.479 436.587 114.168C436.587 115.856 435.028 117.224 433.102 117.224C431.176 117.224 429.617 115.856 429.617 114.168C429.617 112.479 431.176 111.111 433.102 111.111Z" fill="#FAFAFA" fill-opacity="0.2"/>
<path d="M426.141 114.166C426.141 117.532 429.264 120.27 433.102 120.27C436.94 120.27 440.063 117.532 440.063 114.166C440.063 110.8 436.94 108.062 433.102 108.062C429.264 108.062 426.141 110.8 426.141 114.166ZM427.093 114.166C427.093 111.26 429.789 108.898 433.102 108.898C436.415 108.898 439.111 111.262 439.111 114.166C439.111 117.07 436.415 119.436 433.102 119.436C429.789 119.436 427.093 117.072 427.093 114.166Z" fill="#FAFAFA" fill-opacity="0.2"/>
<path d="M220.092 4.50489C222.016 4.50489 223.577 5.87242 223.577 7.56115C223.577 9.24987 222.017 10.6174 220.092 10.6174C218.166 10.6174 216.607 9.24987 216.607 7.56115C216.607 5.87242 218.166 4.50489 220.092 4.50489Z" fill="#FAFAFA" fill-opacity="0.2"/>
<path d="M408.116 349.904C410.04 349.904 411.601 351.271 411.601 352.96C411.601 354.649 410.042 356.016 408.116 356.016C406.19 356.016 404.631 354.649 404.631 352.96C404.631 351.271 406.19 349.904 408.116 349.904Z" fill="#FAFAFA" fill-opacity="0.2"/>
<path d="M97.2997 343.793C99.2235 343.793 100.785 345.16 100.785 346.849C100.785 348.538 99.2254 349.905 97.2997 349.905C95.3741 349.905 93.8147 348.538 93.8147 346.849C93.8147 345.16 95.3741 343.793 97.2997 343.793Z" fill="#FAFAFA" fill-opacity="0.2"/>
<path d="M179.626 180.82C181.499 181.208 182.659 182.854 182.217 184.496C181.775 186.139 179.898 187.157 178.025 186.769C176.152 186.381 174.991 184.735 175.434 183.092C175.876 181.45 177.753 180.432 179.626 180.82Z" fill="#FAFAFA" fill-opacity="0.2"/>
<path d="M494.718 168.28C496.079 169.473 496.079 171.408 494.718 172.602C493.357 173.795 491.15 173.795 489.789 172.602C488.428 171.408 488.428 169.473 489.789 168.28C491.15 167.086 493.357 167.086 494.718 168.28Z" fill="#FAFAFA" fill-opacity="0.2"/>
<path d="M464.366 232.364C465.328 232.364 466.108 233.047 466.108 233.892C466.108 234.736 465.328 235.42 464.366 235.42C463.403 235.42 462.623 234.736 462.623 233.892C462.623 233.047 463.403 232.364 464.366 232.364Z" fill="#FAFAFA" fill-opacity="0.2"/>
<path d="M557.859 118.325C558.822 118.325 559.602 119.009 559.602 119.853C559.602 120.697 558.822 121.381 557.859 121.381C556.897 121.381 556.117 120.697 556.117 119.853C556.117 119.009 556.897 118.325 557.859 118.325Z" fill="#FAFAFA" fill-opacity="0.2"/>
<path d="M254.812 85.7624C255.775 85.7624 256.554 86.4461 256.554 87.2905C256.554 88.1349 255.775 88.8186 254.812 88.8186C253.849 88.8186 253.069 88.1349 253.069 87.2905C253.069 86.4461 253.849 85.7624 254.812 85.7624Z" fill="#FAFAFA" fill-opacity="0.2"/>
<path d="M527.117 452.717C528.08 452.717 528.86 453.401 528.86 454.245C528.86 455.09 528.08 455.774 527.117 455.774C526.154 455.774 525.375 455.09 525.375 454.245C525.375 453.401 526.154 452.717 527.117 452.717Z" fill="#FAFAFA" fill-opacity="0.2"/>
<path d="M357.607 437.674C358.57 437.674 359.35 438.359 359.35 439.203C359.35 440.046 358.57 440.731 357.607 440.731C356.645 440.731 355.865 440.046 355.865 439.203C355.865 438.359 356.645 437.674 357.607 437.674Z" fill="#FAFAFA" fill-opacity="0.2"/>
<path d="M216.608 374.404C217.571 374.404 218.351 375.087 218.351 375.932C218.351 376.776 217.571 377.46 216.608 377.46C215.646 377.46 214.866 376.776 214.866 375.932C214.866 375.087 215.646 374.404 216.608 374.404Z" fill="#FAFAFA" fill-opacity="0.2"/>
<path d="M29.2169 271.226C30.1797 271.226 30.9594 271.909 30.9594 272.754C30.9594 273.598 30.1797 274.282 29.2169 274.282C28.2541 274.282 27.4744 273.598 27.4744 272.754C27.4744 271.909 28.2541 271.226 29.2169 271.226Z" fill="#FAFAFA" fill-opacity="0.2"/>
<path d="M515.956 12.1439C516.919 12.1439 517.698 12.8276 517.698 13.672C517.698 14.5164 516.919 15.2001 515.956 15.2001C514.993 15.2001 514.213 14.5164 514.213 13.672C514.213 12.8276 514.993 12.1439 515.956 12.1439Z" fill="#FAFAFA" fill-opacity="0.2"/>
<path d="M416.604 63.0705C414.68 63.0705 413.119 61.703 413.119 60.0143C413.119 58.3255 414.679 56.958 416.604 56.958C418.53 56.958 420.089 58.3255 420.089 60.0143C420.089 61.703 418.53 63.0705 416.604 63.0705Z" fill="#FAFAFA" fill-opacity="0.2"/>
<path d="M409.642 60.0143C409.642 63.3801 412.764 66.1185 416.602 66.1185C420.44 66.1185 423.563 63.3801 423.563 60.0143C423.563 56.6484 420.44 53.91 416.602 53.91C412.764 53.91 409.642 56.6484 409.642 60.0143ZM410.595 60.0143C410.595 57.1087 413.291 54.7445 416.604 54.7445C419.917 54.7445 422.613 57.1087 422.613 60.0143C422.613 62.9199 419.917 65.2824 416.604 65.2824C413.291 65.2824 410.595 62.9182 410.595 60.0143Z" fill="#FAFAFA" fill-opacity="0.2"/>
<path d="M417.767 213.276C415.843 213.276 414.282 211.908 414.282 210.22C414.282 208.531 415.841 207.163 417.767 207.163C419.693 207.163 421.252 208.531 421.252 210.22C421.252 211.908 419.693 213.276 417.767 213.276Z" fill="#FAFAFA" fill-opacity="0.2"/>
<path d="M410.806 210.22C410.806 213.586 413.929 216.324 417.767 216.324C421.605 216.324 424.728 213.586 424.728 210.22C424.728 206.854 421.605 204.115 417.767 204.115C413.929 204.115 410.806 206.854 410.806 210.22ZM411.758 210.22C411.758 207.314 414.454 204.952 417.767 204.952C421.08 204.952 423.776 207.316 423.776 210.22C423.776 213.124 421.08 215.488 417.767 215.488C414.454 215.488 411.758 213.124 411.758 210.22Z" fill="#FAFAFA" fill-opacity="0.2"/>
<path d="M248.002 167.81C246.079 167.81 244.517 166.442 244.517 164.753C244.517 163.065 246.077 161.697 248.002 161.697C249.928 161.697 251.487 163.065 251.487 164.753C251.487 166.442 249.928 167.81 248.002 167.81Z" fill="#FAFAFA" fill-opacity="0.2"/>
<path d="M241.042 164.753C241.042 168.119 244.164 170.858 248.002 170.858C251.84 170.858 254.963 168.119 254.963 164.753C254.963 161.387 251.84 158.649 248.002 158.649C244.164 158.649 241.042 161.387 241.042 164.753ZM241.993 164.753C241.993 161.848 244.689 159.485 248.002 159.485C251.316 159.485 254.01 161.849 254.01 164.753C254.01 167.657 251.314 170.023 248.002 170.023C244.691 170.023 241.993 167.659 241.993 164.753Z" fill="#FAFAFA" fill-opacity="0.2"/>
<path d="M314.203 424.82C312.279 424.82 310.718 423.453 310.718 421.764C310.718 420.075 312.277 418.708 314.203 418.708C316.129 418.708 317.688 420.075 317.688 421.764C317.688 423.453 316.129 424.82 314.203 424.82Z" fill="#FAFAFA" fill-opacity="0.2"/>
<path d="M307.242 421.764C307.242 425.13 310.365 427.868 314.203 427.868C318.041 427.868 321.164 425.13 321.164 421.764C321.164 418.398 318.041 415.66 314.203 415.66C310.365 415.66 307.242 418.398 307.242 421.764ZM308.196 421.764C308.196 418.858 310.892 416.496 314.205 416.496C317.518 416.496 320.214 418.86 320.214 421.764C320.214 424.668 317.518 427.034 314.205 427.034C310.892 427.034 308.196 424.67 308.196 421.764Z" fill="#FAFAFA" fill-opacity="0.2"/>
<path d="M286.964 389.17C288.325 390.364 288.325 392.299 286.964 393.492C285.603 394.686 283.396 394.686 282.035 393.492C280.674 392.299 280.674 390.364 282.035 389.17C283.396 387.977 285.603 387.977 286.964 389.17Z" fill="#FAFAFA" fill-opacity="0.2"/>
<path d="M277.538 391.331C277.538 394.696 280.661 397.435 284.499 397.435C288.337 397.435 291.46 394.696 291.46 391.331C291.46 387.965 288.337 385.226 284.499 385.226C280.661 385.226 277.538 387.965 277.538 391.331ZM278.49 391.331C278.49 388.425 281.186 386.062 284.497 386.062C287.808 386.062 290.506 388.427 290.506 391.331C290.506 394.234 287.81 396.6 284.497 396.6C281.184 396.6 278.49 394.236 278.49 391.331Z" fill="#FAFAFA" fill-opacity="0.2"/>
<path d="M152.362 318.454C150.438 318.454 148.877 317.086 148.877 315.398C148.877 313.709 150.436 312.341 152.362 312.341C154.288 312.341 155.847 313.709 155.847 315.398C155.847 317.086 154.288 318.454 152.362 318.454Z" fill="#FAFAFA" fill-opacity="0.2"/>
<path d="M145.401 315.397C145.401 318.763 148.524 321.502 152.362 321.502C156.2 321.502 159.323 318.763 159.323 315.397C159.323 312.032 156.2 309.293 152.362 309.293C148.524 309.293 145.401 312.032 145.401 315.397ZM146.355 315.397C146.355 312.492 149.051 310.128 152.364 310.128C155.677 310.128 158.371 312.492 158.371 315.397C158.371 318.303 155.675 320.667 152.364 320.667C149.053 320.667 146.355 318.303 146.355 315.397Z" fill="#FAFAFA" fill-opacity="0.2"/>
<path d="M56.8066 220.71C54.8828 220.71 53.3215 219.342 53.3215 217.653C53.3215 215.965 54.8809 214.597 56.8066 214.597C58.7322 214.597 60.2916 215.965 60.2916 217.653C60.2916 219.342 58.7322 220.71 56.8066 220.71Z" fill="#FAFAFA" fill-opacity="0.2"/>
<path d="M49.8459 217.655C49.8459 221.021 52.9685 223.759 56.8066 223.759C60.6447 223.759 63.7672 221.021 63.7672 217.655C63.7672 214.289 60.6447 211.551 56.8066 211.551C52.9685 211.551 49.8459 214.289 49.8459 217.655ZM50.7993 217.655C50.7993 214.749 53.4952 212.385 56.8066 212.385C60.1179 212.385 62.8138 214.749 62.8138 217.655C62.8138 220.561 60.1179 222.925 56.8066 222.925C53.4952 222.925 50.7993 220.561 50.7993 217.655Z" fill="#FAFAFA" fill-opacity="0.2"/>
<path d="M191.062 147.507C189.138 147.507 187.577 146.139 187.577 144.45C187.577 142.762 189.136 141.394 191.062 141.394C192.987 141.394 194.547 142.762 194.547 144.45C194.547 146.139 192.987 147.507 191.062 147.507Z" fill="#FAFAFA" fill-opacity="0.2"/>
<path d="M184.101 144.452C184.101 147.818 187.224 150.556 191.062 150.556C194.9 150.556 198.022 147.818 198.022 144.452C198.022 141.086 194.9 138.348 191.062 138.348C187.224 138.348 184.101 141.086 184.101 144.452ZM185.053 144.452C185.053 141.547 187.748 139.182 191.06 139.182C194.371 139.182 197.069 141.547 197.069 144.452C197.069 147.358 194.373 149.722 191.06 149.722C187.747 149.722 185.053 147.358 185.053 144.452Z" fill="#FAFAFA" fill-opacity="0.2"/>
<path d="M335.883 382.043C333.96 382.043 332.398 380.675 332.398 378.986C332.398 377.298 333.958 375.93 335.883 375.93C337.809 375.93 339.369 377.298 339.369 378.986C339.369 380.675 337.809 382.043 335.883 382.043Z" fill="#FAFAFA" fill-opacity="0.2"/>
<path d="M328.923 378.986C328.923 382.352 332.045 385.091 335.883 385.091C339.722 385.091 342.844 382.352 342.844 378.986C342.844 375.62 339.722 372.882 335.883 372.882C332.045 372.882 328.923 375.62 328.923 378.986ZM329.874 378.986C329.874 376.081 332.57 373.716 335.883 373.716C339.197 373.716 341.891 376.081 341.891 378.986C341.891 381.892 339.195 384.256 335.883 384.256C332.572 384.256 329.874 381.892 329.874 378.986Z" fill="#FAFAFA" fill-opacity="0.2"/>
<path d="M287.982 278.83C289.907 278.83 291.467 280.198 291.467 281.886C291.467 283.574 289.907 284.943 287.982 284.943C286.057 284.943 284.497 283.574 284.497 281.886C284.497 280.198 286.057 278.83 287.982 278.83Z" fill="#FAFAFA" fill-opacity="0.2"/>
<path d="M307.235 413.956C305.311 413.956 303.75 412.589 303.75 410.9C303.75 409.211 305.309 407.844 307.235 407.844C309.16 407.844 310.72 409.211 310.72 410.9C310.72 412.589 309.16 413.956 307.235 413.956Z" fill="#FAFAFA" fill-opacity="0.2"/>
<path d="M293.113 404.11C291.19 404.11 289.628 402.743 289.628 401.054C289.628 399.365 291.188 397.998 293.113 397.998C295.039 397.998 296.599 399.365 296.599 401.054C296.599 402.743 295.039 404.11 293.113 404.11Z" fill="#FAFAFA" fill-opacity="0.2"/>
<path d="M325.043 401.054C323.12 401.054 321.558 399.686 321.558 397.998C321.558 396.309 323.118 394.941 325.043 394.941C326.969 394.941 328.528 396.309 328.528 397.998C328.528 399.686 326.969 401.054 325.043 401.054Z" fill="#FAFAFA" fill-opacity="0.2"/>
<path d="M374.598 16.7266C372.675 16.7266 371.113 15.3591 371.113 13.6703C371.113 11.9816 372.673 10.6141 374.598 10.6141C376.524 10.6141 378.083 11.9816 378.083 13.6703C378.083 15.3591 376.524 16.7266 374.598 16.7266Z" fill="#FAFAFA" fill-opacity="0.2"/>
<path d="M442.536 53.1683C440.612 53.1683 439.051 51.8008 439.051 50.112C439.051 48.4233 440.61 47.0558 442.536 47.0558C444.462 47.0558 446.021 48.4233 446.021 50.112C446.021 51.8008 444.462 53.1683 442.536 53.1683Z" fill="#FAFAFA" fill-opacity="0.2"/>
<path d="M383.251 134.952C381.327 134.952 379.766 133.585 379.766 131.896C379.766 130.207 381.325 128.84 383.251 128.84C385.176 128.84 386.736 130.207 386.736 131.896C386.736 133.585 385.176 134.952 383.251 134.952Z" fill="#FAFAFA" fill-opacity="0.2"/>
<path d="M344.011 362.125C342.087 362.125 340.526 360.758 340.526 359.069C340.526 357.381 342.085 356.013 344.011 356.013C345.937 356.013 347.496 357.381 347.496 359.069C347.496 360.758 345.937 362.125 344.011 362.125Z" fill="#FAFAFA" fill-opacity="0.2"/>
<path d="M168.475 295.462C166.551 295.462 164.99 294.095 164.99 292.406C164.99 290.717 166.549 289.35 168.475 289.35C170.401 289.35 171.96 290.717 171.96 292.406C171.96 294.095 170.401 295.462 168.475 295.462Z" fill="#FAFAFA" fill-opacity="0.2"/>
<path d="M254.812 260.718C252.888 260.718 251.327 259.35 251.327 257.661C251.327 255.973 252.886 254.605 254.812 254.605C256.738 254.605 258.297 255.973 258.297 257.661C258.297 259.35 256.738 260.718 254.812 260.718Z" fill="#FAFAFA" fill-opacity="0.2"/>
<path d="M230.553 272.1C232.427 272.488 233.587 274.134 233.145 275.776C232.703 277.419 230.826 278.437 228.952 278.049C227.079 277.661 225.919 276.015 226.361 274.372C226.803 272.729 228.68 271.712 230.553 272.1Z" fill="#FAFAFA" fill-opacity="0.2"/>
<path d="M22.7321 212.862C20.8084 212.862 19.2471 211.495 19.2471 209.806C19.2471 208.117 20.8065 206.75 22.7321 206.75C24.6578 206.75 26.2172 208.117 26.2172 209.806C26.2172 211.495 24.6578 212.862 22.7321 212.862Z" fill="#FAFAFA" fill-opacity="0.2"/>
<path d="M178.838 260.718C176.914 260.718 175.353 259.35 175.353 257.661C175.353 255.973 176.912 254.605 178.838 254.605C180.763 254.605 182.323 255.973 182.323 257.661C182.323 259.35 180.763 260.718 178.838 260.718Z" fill="#FAFAFA" fill-opacity="0.2"/>
<path d="M289.628 251.135C287.705 251.135 286.143 249.767 286.143 248.079C286.143 246.39 287.703 245.022 289.628 245.022C291.554 245.022 293.113 246.39 293.113 248.079C293.113 249.767 291.554 251.135 289.628 251.135Z" fill="#FAFAFA" fill-opacity="0.2"/>
<path d="M258.297 186.861C256.373 186.861 254.812 185.493 254.812 183.804C254.812 182.116 256.371 180.748 258.297 180.748C260.223 180.748 261.782 182.116 261.782 183.804C261.782 185.493 260.223 186.861 258.297 186.861Z" fill="#FAFAFA" fill-opacity="0.2"/>
<path d="M340.526 70.3668C338.602 70.3668 337.041 68.9993 337.041 67.3105C337.041 65.6218 338.6 64.2543 340.526 64.2543C342.451 64.2543 344.011 65.6218 344.011 67.3105C344.011 68.9993 342.451 70.3668 340.526 70.3668Z" fill="#FAFAFA" fill-opacity="0.2"/>
<path d="M312.462 117.222C310.539 117.222 308.977 115.855 308.977 114.166C308.977 112.477 310.537 111.11 312.462 111.11C314.388 111.11 315.947 112.477 315.947 114.166C315.947 115.855 314.388 117.222 312.462 117.222Z" fill="#FAFAFA" fill-opacity="0.2"/>
<path d="M340.864 67.0175L365.782 88.8699V174.773L314.681 219.589L314.681 421.764H313.727L313.727 219.243L364.831 174.427V89.2159L340.19 67.6069L340.864 67.0175Z" fill="#FAFAFA" fill-opacity="0.2"/>
<path d="M415.594 59.1284L417.614 60.8999L359.38 111.969V190.397L308.664 234.873L308.664 410.9H305.806L305.806 233.835L356.522 189.359V110.931L415.594 59.1284Z" fill="#FAFAFA" fill-opacity="0.2"/>
<path d="M374.123 13.6704H375.074V151.686L325.519 195.144L325.519 397.999H324.568L324.568 194.798L374.123 151.34V13.6704Z" fill="#FAFAFA" fill-opacity="0.2"/>
<path d="M249.012 163.867L298.598 207.354V259.997L289.306 268.145V281.886H286.449V267.108L295.741 258.959V208.39L246.992 165.639L249.012 163.867Z" fill="#FAFAFA" fill-opacity="0.2"/>
<path d="M311.985 114.166H312.938V144.042L336.359 164.581L336.359 378.986H335.408L335.408 164.927L311.985 144.388V114.166Z" fill="#FAFAFA" fill-opacity="0.2"/>
<path d="M368.57 188.276H393.417L418.103 209.925L417.429 210.516L393.022 189.111H368.965L344.487 210.579L344.487 359.071H343.535L343.535 210.233L368.57 188.276Z" fill="#FAFAFA" fill-opacity="0.2"/>
<path d="M442.2 49.8173L442.872 50.4068L383.727 102.277V131.896H382.773V101.931L442.2 49.8173Z" fill="#FAFAFA" fill-opacity="0.2"/>
<path d="M258.633 183.51L290.104 211.109V248.916H289.153V211.455L257.959 184.099L258.633 183.51Z" fill="#FAFAFA" fill-opacity="0.2"/>
<path d="M191.398 144.156L270.017 213.102V285.704L293.589 306.376V401.054H292.638V306.722L269.066 286.05V213.448L190.724 144.747L191.398 144.156Z" fill="#FAFAFA" fill-opacity="0.2"/>
<path d="M194.309 267.762H236.575L285.926 311.042V391.331H283.07V312.078L235.393 270.267H195.493L169.485 293.075L167.465 291.303L194.309 267.762Z" fill="#FAFAFA" fill-opacity="0.2"/>
<path d="M198.134 274.668H229.76V275.502H198.528L152.7 315.694L152.026 315.103L198.134 274.668Z" fill="#FAFAFA" fill-opacity="0.2"/>
<path d="M56.8066 217.236H150.431L196.052 257.244H254.812V258.079H195.657L150.036 218.072H56.8066V217.236Z" fill="#FAFAFA" fill-opacity="0.2"/>
<path d="M22.7322 209.39H124.467L179.176 257.367L178.502 257.958L124.072 210.225H22.7322V209.39Z" fill="#FAFAFA" fill-opacity="0.2"/>
</g>
</g>
</svg>
