<svg width="1006" height="820" viewBox="0 0 1006 820" fill="none" xmlns="http://www.w3.org/2000/svg">
<g style="mix-blend-mode:color-dodge">
<g opacity="0.85">
<path d="M773.279 153.182C773.279 156.214 770.476 158.676 767.014 158.676C763.552 158.676 760.749 156.217 760.749 153.182C760.749 150.146 763.552 147.687 767.014 147.687C770.476 147.687 773.279 150.146 773.279 153.182Z" fill="#FAFAFA"/>
<path d="M754.501 153.181C754.501 159.232 760.114 164.155 767.014 164.155C773.914 164.155 779.527 159.232 779.527 153.181C779.527 147.131 773.914 142.208 767.014 142.208C760.114 142.208 754.501 147.131 754.501 153.181ZM756.215 153.181C756.215 147.958 761.061 143.708 767.018 143.708C772.974 143.708 777.82 147.958 777.82 153.181C777.82 158.405 772.974 162.655 767.018 162.655C761.061 162.655 756.215 158.405 756.215 153.181Z" fill="#FAFAFA"/>
<path d="M150.023 704.488C150.023 707.521 147.219 709.983 143.757 709.983C140.296 709.983 137.492 707.524 137.492 704.488C137.492 701.453 140.296 698.994 143.757 698.994C147.219 698.994 150.023 701.453 150.023 704.488Z" fill="#FAFAFA"/>
<path d="M131.248 704.488C131.248 710.539 136.861 715.462 143.761 715.462C150.661 715.462 156.274 710.539 156.274 704.488C156.274 698.438 150.661 693.515 143.761 693.515C136.861 693.515 131.248 698.438 131.248 704.488ZM132.958 704.488C132.958 699.265 137.805 695.018 143.757 695.018C149.71 695.018 154.557 699.268 154.557 704.488C154.557 709.709 149.71 713.962 143.757 713.962C137.805 713.962 132.958 709.712 132.958 704.488Z" fill="#FAFAFA"/>
<path d="M64.3206 74.1665C64.3206 77.1994 61.5172 79.6608 58.0555 79.6608C54.5937 79.6608 51.7904 77.2024 51.7904 74.1665C51.7904 71.1307 54.5937 68.6723 58.0555 68.6723C61.5172 68.6723 64.3206 71.1307 64.3206 74.1665Z" fill="#FAFAFA"/>
<path d="M45.5457 74.1695C45.5457 80.2204 51.1591 85.1431 58.0589 85.1431C64.9586 85.1431 70.5721 80.2204 70.5721 74.1695C70.5721 68.1187 64.9586 63.1959 58.0589 63.1959C51.1591 63.1959 45.5457 68.1187 45.5457 74.1695ZM47.2562 74.1695C47.2562 68.9461 52.1026 64.6959 58.0555 64.6959C64.0083 64.6959 68.8548 68.9461 68.8548 74.1695C68.8548 79.3929 64.0083 83.6402 58.0555 83.6402C52.1026 83.6402 47.2562 79.39 47.2562 74.1695Z" fill="#FAFAFA"/>
<path d="M706.529 652.454C706.529 655.487 703.725 657.948 700.264 657.948C696.802 657.948 693.998 655.49 693.998 652.454C693.998 649.418 696.802 646.959 700.264 646.959C703.725 646.959 706.529 649.418 706.529 652.454Z" fill="#FAFAFA"/>
<path d="M687.75 652.454C687.75 658.505 693.364 663.427 700.263 663.427C707.163 663.427 712.777 658.505 712.777 652.454C712.777 646.403 707.163 641.48 700.263 641.48C693.364 641.48 687.75 646.403 687.75 652.454ZM689.464 652.454C689.464 647.23 694.311 642.98 700.267 642.98C706.223 642.98 711.069 647.23 711.069 652.454C711.069 657.677 706.223 661.927 700.267 661.927C694.311 661.927 689.464 657.677 689.464 652.454Z" fill="#FAFAFA"/>
<path d="M925.063 316.637C925.063 319.67 922.26 322.131 918.798 322.131C915.336 322.131 912.533 319.673 912.533 316.637C912.533 313.601 915.336 311.143 918.798 311.143C922.26 311.143 925.063 313.601 925.063 316.637Z" fill="#FAFAFA"/>
<path d="M217.024 613.062C217.024 616.095 214.221 618.557 210.759 618.557C207.297 618.557 204.494 616.098 204.494 613.062C204.494 610.027 207.297 607.568 210.759 607.568C214.221 607.568 217.024 610.027 217.024 613.062Z" fill="#FAFAFA"/>
<path d="M229.551 123.052C229.551 126.085 226.748 128.547 223.286 128.547C219.824 128.547 217.021 126.088 217.021 123.052C217.021 120.016 219.824 117.558 223.286 117.558C226.748 117.558 229.551 120.016 229.551 123.052Z" fill="#FAFAFA"/>
<path d="M563.779 251.599C563.779 254.632 560.976 257.093 557.514 257.093C554.052 257.093 551.249 254.635 551.249 251.599C551.249 248.563 554.052 246.105 557.514 246.105C560.976 246.105 563.779 248.563 563.779 251.599Z" fill="#FAFAFA"/>
<path d="M457.972 701.741C457.972 703.259 456.57 704.489 454.839 704.489C453.108 704.489 451.707 703.259 451.707 701.741C451.707 700.223 453.108 698.994 454.839 698.994C456.57 698.994 457.972 700.223 457.972 701.741Z" fill="#FAFAFA"/>
<path d="M758.489 371.374C758.489 372.892 757.087 374.122 755.356 374.122C753.625 374.122 752.224 372.892 752.224 371.374C752.224 369.857 753.625 368.627 755.356 368.627C757.087 368.627 758.489 369.857 758.489 371.374Z" fill="#FAFAFA"/>
<path d="M6.26508 800.671C6.26508 802.189 4.86341 803.418 3.13254 803.418C1.40167 803.418 0 802.189 0 800.671C0 799.153 1.40167 797.924 3.13254 797.924C4.86341 797.924 6.26508 799.153 6.26508 800.671Z" fill="#FAFAFA"/>
<path d="M37.1018 533.434C37.1018 534.952 35.7001 536.181 33.9692 536.181C32.2384 536.181 30.8367 534.952 30.8367 533.434C30.8367 531.916 32.2384 530.687 33.9692 530.687C35.7001 530.687 37.1018 531.916 37.1018 533.434Z" fill="#FAFAFA"/>
<path d="M166.802 311.146C166.802 312.664 165.4 313.893 163.669 313.893C161.938 313.893 160.537 312.664 160.537 311.146C160.537 309.628 161.938 308.399 163.669 308.399C165.4 308.399 166.802 309.628 166.802 311.146Z" fill="#FAFAFA"/>
<path d="M378.308 15.7178C378.308 17.2357 376.906 18.4649 375.175 18.4649C373.444 18.4649 372.043 17.2357 372.043 15.7178C372.043 14.1999 373.444 12.9707 375.175 12.9707C376.906 12.9707 378.308 14.1999 378.308 15.7178Z" fill="#FAFAFA"/>
<path d="M909.404 783.075C909.404 784.593 908.002 785.822 906.271 785.822C904.54 785.822 903.139 784.593 903.139 783.075C903.139 781.557 904.54 780.328 906.271 780.328C908.002 780.328 909.404 781.557 909.404 783.075Z" fill="#FAFAFA"/>
<path d="M805.008 626.444C805.008 623.411 807.812 620.95 811.273 620.95C814.735 620.95 817.539 623.408 817.539 626.444C817.539 629.48 814.735 631.938 811.273 631.938C807.812 631.938 805.008 629.48 805.008 626.444Z" fill="#FAFAFA"/>
<path d="M798.76 626.444C798.76 632.495 804.374 637.417 811.273 637.417C818.173 637.417 823.787 632.495 823.787 626.444C823.787 620.393 818.173 615.47 811.273 615.47C804.374 615.47 798.76 620.393 798.76 626.444ZM800.471 626.444C800.471 621.22 805.317 616.97 811.273 616.97C817.23 616.97 822.076 621.22 822.076 626.444C822.076 631.667 817.23 635.917 811.273 635.917C805.317 635.917 800.471 631.667 800.471 626.444Z" fill="#FAFAFA"/>
<path d="M497.1 628.277C497.1 625.244 499.903 622.783 503.365 622.783C506.827 622.783 509.63 625.241 509.63 628.277C509.63 631.313 506.827 633.771 503.365 633.771C499.903 633.771 497.1 631.313 497.1 628.277Z" fill="#FAFAFA"/>
<path d="M490.852 628.277C490.852 634.328 496.465 639.251 503.365 639.251C510.265 639.251 515.878 634.328 515.878 628.277C515.878 622.226 510.265 617.304 503.365 617.304C496.465 617.304 490.852 622.226 490.852 628.277ZM492.562 628.277C492.562 623.054 497.409 618.807 503.365 618.807C509.321 618.807 514.167 623.057 514.167 628.277C514.167 633.498 509.321 637.751 503.365 637.751C497.409 637.751 492.562 633.501 492.562 628.277Z" fill="#FAFAFA"/>
<path d="M590.302 360.639C590.302 357.606 593.105 355.145 596.567 355.145C600.029 355.145 602.832 357.603 602.832 360.639C602.832 363.675 600.029 366.133 596.567 366.133C593.105 366.133 590.302 363.675 590.302 360.639Z" fill="#FAFAFA"/>
<path d="M584.051 360.639C584.051 366.69 589.664 371.613 596.564 371.613C603.464 371.613 609.077 366.69 609.077 360.639C609.077 354.588 603.464 349.665 596.564 349.665C589.664 349.665 584.051 354.588 584.051 360.639ZM585.765 360.639C585.765 355.416 590.611 351.165 596.564 351.165C602.517 351.165 607.367 355.416 607.367 360.639C607.367 365.862 602.52 370.113 596.564 370.113C590.608 370.113 585.765 365.862 585.765 360.639Z" fill="#FAFAFA"/>
<path d="M63.4517 465.006C63.4517 461.973 66.2551 459.512 69.7168 459.512C73.1785 459.512 75.9819 461.97 75.9819 465.006C75.9819 468.042 73.1785 470.5 69.7168 470.5C66.2551 470.5 63.4517 468.042 63.4517 465.006Z" fill="#FAFAFA"/>
<path d="M57.2002 465.006C57.2002 471.057 62.8137 475.98 69.7134 475.98C76.6132 475.98 82.2266 471.057 82.2266 465.006C82.2266 458.955 76.6132 454.032 69.7134 454.032C62.8137 454.032 57.2002 458.955 57.2002 465.006ZM58.9141 465.006C58.9141 459.783 63.7606 455.532 69.7134 455.532C75.6663 455.532 80.5161 459.783 80.5161 465.006C80.5161 470.229 75.6697 474.48 69.7134 474.48C63.7572 474.48 58.9141 470.229 58.9141 465.006Z" fill="#FAFAFA"/>
<path d="M125.838 418.177C125.838 415.144 128.641 412.683 132.103 412.683C135.565 412.683 138.368 415.141 138.368 418.177C138.368 421.213 135.565 423.671 132.103 423.671C128.641 423.671 125.838 421.213 125.838 418.177Z" fill="#FAFAFA"/>
<path d="M119.586 418.177C119.586 424.228 125.2 429.151 132.1 429.151C138.999 429.151 144.613 424.228 144.613 418.177C144.613 412.126 138.999 407.203 132.1 407.203C125.2 407.203 119.586 412.126 119.586 418.177ZM121.3 418.177C121.3 412.953 126.147 408.703 132.103 408.703C138.059 408.703 142.902 412.953 142.902 418.177C142.902 423.4 138.056 427.65 132.103 427.65C126.15 427.65 121.3 423.4 121.3 418.177Z" fill="#FAFAFA"/>
<path d="M281.494 209.859C281.494 206.826 284.297 204.365 287.759 204.365C291.221 204.365 294.024 206.823 294.024 209.859C294.024 212.895 291.221 215.354 287.759 215.354C284.297 215.354 281.494 212.895 281.494 209.859Z" fill="#FAFAFA"/>
<path d="M275.243 209.859C275.243 215.91 280.856 220.833 287.756 220.833C294.656 220.833 300.269 215.91 300.269 209.859C300.269 203.808 294.656 198.886 287.756 198.886C280.856 198.886 275.243 203.808 275.243 209.859ZM276.957 209.859C276.957 204.636 281.803 200.389 287.756 200.389C293.709 200.389 298.559 204.639 298.559 209.859C298.559 215.08 293.712 219.333 287.756 219.333C281.8 219.333 276.957 215.083 276.957 209.859Z" fill="#FAFAFA"/>
<path d="M481.861 59.2136C481.861 56.1808 484.665 53.7194 488.126 53.7194C491.588 53.7194 494.391 56.1778 494.391 59.2136C494.391 62.2495 491.588 64.7079 488.126 64.7079C484.665 64.7079 481.861 62.2495 481.861 59.2136Z" fill="#FAFAFA"/>
<path d="M475.61 59.2135C475.61 65.2644 481.223 70.1871 488.123 70.1871C495.023 70.1871 500.636 65.2644 500.636 59.2135C500.636 53.1627 495.023 48.2399 488.123 48.2399C481.223 48.2399 475.61 53.1627 475.61 59.2135ZM477.324 59.2135C477.324 53.9901 482.17 49.7399 488.123 49.7399C494.076 49.7399 498.926 53.9901 498.926 59.2135C498.926 64.4369 494.079 68.6871 488.123 68.6871C482.167 68.6871 477.324 64.4369 477.324 59.2135Z" fill="#FAFAFA"/>
<path d="M631.921 270.871C631.921 267.838 634.725 265.376 638.186 265.376C641.648 265.376 644.451 267.835 644.451 270.871C644.451 273.906 641.648 276.365 638.186 276.365C634.725 276.365 631.921 273.906 631.921 270.871Z" fill="#FAFAFA"/>
<path d="M625.67 270.868C625.67 276.918 631.283 281.841 638.183 281.841C645.083 281.841 650.696 276.918 650.696 270.868C650.696 264.817 645.083 259.894 638.183 259.894C631.283 259.894 625.67 264.817 625.67 270.868ZM627.383 270.868C627.383 265.644 632.23 261.397 638.186 261.397C644.142 261.397 648.985 265.647 648.985 270.868C648.985 276.088 644.139 280.341 638.186 280.341C632.233 280.341 627.383 276.091 627.383 270.868Z" fill="#FAFAFA"/>
<path d="M151.143 499.186C151.143 496.153 153.946 493.692 157.408 493.692C160.869 493.692 163.673 496.15 163.673 499.186C163.673 502.222 160.869 504.68 157.408 504.68C153.946 504.68 151.143 502.222 151.143 499.186Z" fill="#FAFAFA"/>
<path d="M144.894 499.186C144.894 505.237 150.508 510.16 157.408 510.16C164.307 510.16 169.921 505.237 169.921 499.186C169.921 493.135 164.307 488.212 157.408 488.212C150.508 488.212 144.894 493.135 144.894 499.186ZM146.605 499.186C146.605 493.963 151.451 489.712 157.408 489.712C163.364 489.712 168.207 493.963 168.207 499.186C168.207 504.409 163.36 508.657 157.408 508.657C151.455 508.657 146.605 504.406 146.605 499.186Z" fill="#FAFAFA"/>
<path d="M350.193 423.668C350.193 420.635 352.996 418.174 356.458 418.174C359.92 418.174 362.723 420.632 362.723 423.668C362.723 426.704 359.92 429.162 356.458 429.162C352.996 429.162 350.193 426.704 350.193 423.668Z" fill="#FAFAFA"/>
<path d="M94.386 448.946C97.5827 450.108 99.1008 453.322 97.7766 456.125C96.4525 458.928 92.7877 460.26 89.5909 459.098C86.3942 457.937 84.8762 454.723 86.2003 451.92C87.5244 449.116 91.1893 447.785 94.386 448.946Z" fill="#FAFAFA"/>
<path d="M105.906 431.758C105.906 428.725 108.709 426.264 112.171 426.264C115.632 426.264 118.436 428.722 118.436 431.758C118.436 434.794 115.632 437.252 112.171 437.252C108.709 437.252 105.906 434.794 105.906 431.758Z" fill="#FAFAFA"/>
<path d="M112.171 482.096C112.171 479.063 114.974 476.602 118.436 476.602C121.898 476.602 124.701 479.06 124.701 482.096C124.701 485.132 121.898 487.59 118.436 487.59C114.974 487.59 112.171 485.132 112.171 482.096Z" fill="#FAFAFA"/>
<path d="M900.01 560.221C900.01 557.188 902.813 554.727 906.275 554.727C909.736 554.727 912.54 557.185 912.54 560.221C912.54 563.257 909.736 565.715 906.275 565.715C902.813 565.715 900.01 563.257 900.01 560.221Z" fill="#FAFAFA"/>
<path d="M825.307 667.326C825.307 664.294 828.11 661.832 831.572 661.832C835.034 661.832 837.837 664.291 837.837 667.326C837.837 670.362 835.034 672.821 831.572 672.821C828.11 672.821 825.307 670.362 825.307 667.326Z" fill="#FAFAFA"/>
<path d="M657.657 573.861C657.657 570.829 660.46 568.367 663.922 568.367C667.384 568.367 670.187 570.826 670.187 573.861C670.187 576.897 667.384 579.356 663.922 579.356C660.46 579.356 657.657 576.897 657.657 573.861Z" fill="#FAFAFA"/>
<path d="M191.971 511.999C191.971 508.966 194.774 506.505 198.236 506.505C201.698 506.505 204.501 508.963 204.501 511.999C204.501 515.035 201.698 517.493 198.236 517.493C194.774 517.493 191.971 515.035 191.971 511.999Z" fill="#FAFAFA"/>
<path d="M328.625 235.262C328.625 232.229 331.428 229.768 334.89 229.768C338.352 229.768 341.155 232.226 341.155 235.262C341.155 238.298 338.352 240.756 334.89 240.756C331.428 240.756 328.625 238.298 328.625 235.262Z" fill="#FAFAFA"/>
<path d="M399.849 371.374C399.849 368.342 402.652 365.88 406.114 365.88C409.575 365.88 412.379 368.339 412.379 371.374C412.379 374.41 409.575 376.869 406.114 376.869C402.652 376.869 399.849 374.41 399.849 371.374Z" fill="#FAFAFA"/>
<path d="M371.816 326.512C375.184 327.209 377.269 330.169 376.474 333.122C375.679 336.075 372.305 337.904 368.938 337.207C365.57 336.51 363.484 333.551 364.279 330.598C365.074 327.644 368.448 325.815 371.816 326.512Z" fill="#FAFAFA"/>
<path d="M497.948 5.49428C497.948 2.46142 500.752 2.76566e-05 504.213 2.76566e-05C507.675 2.76566e-05 510.478 2.45844 510.478 5.49428C510.478 8.53011 507.675 10.9885 504.213 10.9885C500.752 10.9885 497.948 8.53011 497.948 5.49428Z" fill="#FAFAFA"/>
<path d="M399.849 251.599C399.849 248.566 402.652 246.105 406.114 246.105C409.575 246.105 412.379 248.563 412.379 251.599C412.379 254.635 409.575 257.093 406.114 257.093C402.652 257.093 399.849 254.635 399.849 251.599Z" fill="#FAFAFA"/>
<path d="M427.181 420.897C430.548 421.594 432.634 424.553 431.839 427.507C431.044 430.46 427.67 432.289 424.302 431.592C420.935 430.895 418.849 427.936 419.644 424.982C420.439 422.029 423.813 420.2 427.181 420.897Z" fill="#FAFAFA"/>
<path d="M551.249 376.869C551.249 373.836 554.052 371.374 557.514 371.374C560.976 371.374 563.779 373.833 563.779 376.869C563.779 379.905 560.976 382.363 557.514 382.363C554.052 382.363 551.249 379.905 551.249 376.869Z" fill="#FAFAFA"/>
<path d="M790.052 506.505C790.052 503.472 792.855 501.01 796.317 501.01C799.778 501.01 802.582 503.469 802.582 506.505C802.582 509.541 799.778 511.999 796.317 511.999C792.855 511.999 790.052 509.541 790.052 506.505Z" fill="#FAFAFA"/>
<path d="M694.002 462.262C694.002 459.229 696.805 456.768 700.267 456.768C703.729 456.768 706.532 459.226 706.532 462.262C706.532 465.298 703.729 467.756 700.267 467.756C696.805 467.756 694.002 465.298 694.002 462.262Z" fill="#FAFAFA"/>
<path d="M69.7134 464.256H484.868L576.737 544.822H751.412L795.709 505.975L796.921 507.037L752.122 546.322H576.027L484.159 465.756H69.7134V464.256Z" fill="#FAFAFA"/>
<path d="M91.9874 451.77H454.955L546.128 531.723H706.895L813.089 624.852L809.458 628.036L704.771 536.229H544L452.827 456.274H91.9874V451.77Z" fill="#FAFAFA"/>
<path d="M118.432 481.346H534.979L624.064 559.471H906.271V560.971H623.355L534.269 482.849H118.432V481.346Z" fill="#FAFAFA"/>
<path d="M594.748 359.047L598.38 362.231L509.24 440.404H401.325L384.624 425.757H356.455V421.251H386.748L403.453 435.901H507.112L594.748 359.047Z" fill="#FAFAFA"/>
<path d="M638.319 461.509L700.263 461.509V463.012L639.025 463.012L596.92 499.936H157.408V498.436H596.211L638.319 461.509Z" fill="#FAFAFA"/>
<path d="M198.232 511.249H503.341L548.347 550.718V589.889L503.969 628.807L502.757 627.744L546.637 589.267V551.34L502.632 512.749H198.232V511.249Z" fill="#FAFAFA"/>
<path d="M663.922 573.108H725.347L832.176 666.797L830.965 667.856L724.638 574.611H663.922V573.108Z" fill="#FAFAFA"/>
<path d="M556.91 376.336L558.118 377.398L501.542 427.014H424.04V425.513H500.833L556.91 376.336Z" fill="#FAFAFA"/>
<path d="M637.579 270.338L638.79 271.4L497.453 395.346H348.628L306.252 432.508H112.171V431.008H305.546L347.919 393.846H496.747L637.579 270.338Z" fill="#FAFAFA"/>
<path d="M337.15 233.673L385.408 275.99V342.623L296.689 420.427H132.103V415.924H294.564L380.273 340.76V277.856L333.519 236.857L337.15 233.673Z" fill="#FAFAFA"/>
<path d="M288.363 209.329L371.252 282.02V331.879H369.538V282.642L287.152 210.389L288.363 209.329Z" fill="#FAFAFA"/>
<path d="M487.268 59.2135H488.978L488.978 206.814L406.969 278.734V371.374H405.255V278.115L487.268 206.192L487.268 59.2135Z" fill="#FAFAFA"/>
<path d="M503.355 5.49425H505.065L505.065 165.881L406.718 252.129L405.506 251.069L503.355 165.259L503.355 5.49425Z" fill="#FAFAFA"/>
</g>
<g opacity="0.23">
<path d="M209.273 141.208C212.731 141.208 215.538 143.666 215.538 146.702C215.538 149.738 212.734 152.196 209.273 152.196C205.811 152.196 203.008 149.738 203.008 146.702C203.008 143.666 205.811 141.208 209.273 141.208Z" fill="#FAFAFA"/>
<path d="M196.756 146.702C196.756 152.753 202.369 157.676 209.269 157.676C216.169 157.676 221.782 152.753 221.782 146.702C221.782 140.651 216.169 135.728 209.269 135.728C202.369 135.728 196.756 140.651 196.756 146.702ZM198.47 146.702C198.47 141.479 203.316 137.228 209.273 137.228C215.229 137.228 220.075 141.479 220.075 146.702C220.075 151.925 215.229 156.173 209.273 156.173C203.316 156.173 198.47 151.922 198.47 146.702Z" fill="#FAFAFA"/>
<path d="M837.925 687.782C841.384 687.782 844.191 690.241 844.191 693.277C844.191 696.313 841.387 698.771 837.925 698.771C834.464 698.771 831.66 696.313 831.66 693.277C831.66 690.241 834.464 687.782 837.925 687.782Z" fill="#FAFAFA"/>
<path d="M825.412 693.274C825.412 699.325 831.026 704.247 837.925 704.247C844.825 704.247 850.439 699.325 850.439 693.274C850.439 687.223 844.825 682.3 837.925 682.3C831.026 682.3 825.412 687.223 825.412 693.274ZM827.123 693.274C827.123 688.05 831.969 683.8 837.922 683.8C843.875 683.8 848.725 688.05 848.725 693.274C848.725 698.497 843.878 702.744 837.922 702.744C831.966 702.744 827.123 698.494 827.123 693.274Z" fill="#FAFAFA"/>
<path d="M119.172 762.94C122.631 762.94 125.437 765.399 125.437 768.434C125.437 771.47 122.634 773.929 119.172 773.929C115.71 773.929 112.907 771.47 112.907 768.434C112.907 765.399 115.71 762.94 119.172 762.94Z" fill="#FAFAFA"/>
<path d="M106.659 768.431C106.659 774.482 112.272 779.405 119.172 779.405C126.072 779.405 131.685 774.482 131.685 768.431C131.685 762.381 126.072 757.458 119.172 757.458C112.272 757.458 106.659 762.381 106.659 768.431ZM108.373 768.431C108.373 763.208 113.219 758.958 119.172 758.958C125.125 758.958 129.975 763.208 129.975 768.431C129.975 773.655 125.128 777.905 119.172 777.905C113.216 777.905 108.373 773.655 108.373 768.431Z" fill="#FAFAFA"/>
<path d="M778.591 199.746C782.049 199.746 784.856 202.204 784.856 205.24C784.856 208.276 782.052 210.734 778.591 210.734C775.129 210.734 772.325 208.276 772.325 205.24C772.325 202.204 775.129 199.746 778.591 199.746Z" fill="#FAFAFA"/>
<path d="M766.077 205.237C766.077 211.288 771.691 216.211 778.59 216.211C785.49 216.211 791.104 211.288 791.104 205.237C791.104 199.186 785.49 194.263 778.59 194.263C771.691 194.263 766.077 199.186 766.077 205.237ZM767.788 205.237C767.788 200.014 772.634 195.766 778.59 195.766C784.547 195.766 789.393 200.017 789.393 205.237C789.393 210.457 784.547 214.711 778.59 214.711C772.634 214.711 767.788 210.46 767.788 205.237Z" fill="#FAFAFA"/>
<path d="M395.66 8.09848C399.119 8.09848 401.925 10.5569 401.925 13.5927C401.925 16.6286 399.122 19.087 395.66 19.087C392.199 19.087 389.395 16.6286 389.395 13.5927C389.395 10.5569 392.199 8.09848 395.66 8.09848Z" fill="#FAFAFA"/>
<path d="M733.673 629.024C737.131 629.024 739.938 631.483 739.938 634.518C739.938 637.554 737.134 640.013 733.673 640.013C730.211 640.013 727.408 637.554 727.408 634.518C727.408 631.483 730.211 629.024 733.673 629.024Z" fill="#FAFAFA"/>
<path d="M174.916 618.039C178.375 618.039 181.182 620.497 181.182 623.533C181.182 626.569 178.378 629.027 174.916 629.027C171.455 629.027 168.651 626.569 168.651 623.533C168.651 620.497 171.455 618.039 174.916 618.039Z" fill="#FAFAFA"/>
<path d="M322.915 325.061C326.282 325.758 328.368 328.717 327.573 331.67C326.778 334.624 323.404 336.453 320.037 335.756C316.669 335.059 314.583 332.1 315.378 329.146C316.173 326.193 319.547 324.364 322.915 325.061Z" fill="#FAFAFA"/>
<path d="M889.357 302.517C891.804 304.663 891.804 308.142 889.357 310.287C886.911 312.433 882.944 312.433 880.497 310.287C878.051 308.142 878.051 304.663 880.497 302.517C882.944 300.372 886.911 300.372 889.357 302.517Z" fill="#FAFAFA"/>
<path d="M834.793 417.721C836.524 417.721 837.925 418.951 837.925 420.469C837.925 421.986 836.524 423.216 834.793 423.216C833.062 423.216 831.66 421.986 831.66 420.469C831.66 418.951 833.062 417.721 834.793 417.721Z" fill="#FAFAFA"/>
<path d="M1002.87 212.714C1004.6 212.714 1006 213.943 1006 215.461C1006 216.978 1004.6 218.208 1002.87 218.208C1001.14 218.208 999.735 216.978 999.735 215.461C999.735 213.943 1001.14 212.714 1002.87 212.714Z" fill="#FAFAFA"/>
<path d="M458.077 154.176C459.808 154.176 461.21 155.405 461.21 156.923C461.21 158.441 459.808 159.67 458.077 159.67C456.346 159.67 454.945 158.441 454.945 156.923C454.945 155.405 456.346 154.176 458.077 154.176Z" fill="#FAFAFA"/>
<path d="M947.602 813.853C949.333 813.853 950.734 815.082 950.734 816.6C950.734 818.118 949.333 819.347 947.602 819.347C945.871 819.347 944.469 818.118 944.469 816.6C944.469 815.082 945.871 813.853 947.602 813.853Z" fill="#FAFAFA"/>
<path d="M642.873 786.81C644.603 786.81 646.006 788.04 646.006 789.557C646.006 791.074 644.603 792.304 642.873 792.304C641.143 792.304 639.741 791.074 639.741 789.557C639.741 788.04 641.143 786.81 642.873 786.81Z" fill="#FAFAFA"/>
<path d="M389.399 673.068C391.13 673.068 392.531 674.297 392.531 675.815C392.531 677.333 391.13 678.562 389.399 678.562C387.668 678.562 386.266 677.333 386.266 675.815C386.266 674.297 387.668 673.068 389.399 673.068Z" fill="#FAFAFA"/>
<path d="M52.5234 487.584C54.2543 487.584 55.656 488.814 55.656 490.331C55.656 491.849 54.2543 493.079 52.5234 493.079C50.7926 493.079 49.3909 491.849 49.3909 490.331C49.3909 488.814 50.7926 487.584 52.5234 487.584Z" fill="#FAFAFA"/>
<path d="M927.537 21.8312C929.268 21.8312 930.67 23.0604 930.67 24.5783C930.67 26.0962 929.268 27.3254 927.537 27.3254C925.806 27.3254 924.405 26.0962 924.405 24.5783C924.405 23.0604 925.806 21.8312 927.537 21.8312Z" fill="#FAFAFA"/>
<path d="M748.931 113.382C745.473 113.382 742.666 110.924 742.666 107.888C742.666 104.852 745.47 102.394 748.931 102.394C752.393 102.394 755.197 104.852 755.197 107.888C755.197 110.924 752.393 113.382 748.931 113.382Z" fill="#FAFAFA"/>
<path d="M736.415 107.888C736.415 113.939 742.028 118.862 748.928 118.862C755.828 118.862 761.441 113.939 761.441 107.888C761.441 101.837 755.828 96.9144 748.928 96.9144C742.028 96.9144 736.415 101.837 736.415 107.888ZM738.129 107.888C738.129 102.665 742.975 98.4145 748.931 98.4145C754.888 98.4145 759.734 102.665 759.734 107.888C759.734 113.112 754.888 117.359 748.931 117.359C742.975 117.359 738.129 113.109 738.129 107.888Z" fill="#FAFAFA"/>
<path d="M751.022 383.408C747.564 383.408 744.757 380.949 744.757 377.913C744.757 374.878 747.56 372.419 751.022 372.419C754.484 372.419 757.287 374.878 757.287 377.913C757.287 380.949 754.484 383.408 751.022 383.408Z" fill="#FAFAFA"/>
<path d="M738.509 377.913C738.509 383.964 744.122 388.887 751.022 388.887C757.922 388.887 763.535 383.964 763.535 377.913C763.535 371.862 757.922 366.94 751.022 366.94C744.122 366.94 738.509 371.862 738.509 377.913ZM740.219 377.913C740.219 372.69 745.066 368.443 751.022 368.443C756.978 368.443 761.825 372.693 761.825 377.913C761.825 383.134 756.978 387.384 751.022 387.384C745.066 387.384 740.219 383.134 740.219 377.913Z" fill="#FAFAFA"/>
<path d="M445.835 301.672C442.377 301.672 439.57 299.214 439.57 296.178C439.57 293.142 442.374 290.684 445.835 290.684C449.297 290.684 452.1 293.142 452.1 296.178C452.1 299.214 449.297 301.672 445.835 301.672Z" fill="#FAFAFA"/>
<path d="M433.322 296.178C433.322 302.229 438.936 307.152 445.835 307.152C452.735 307.152 458.349 302.229 458.349 296.178C458.349 290.127 452.735 285.204 445.835 285.204C438.936 285.204 433.322 290.127 433.322 296.178ZM435.033 296.178C435.033 290.955 439.879 286.708 445.835 286.708C451.792 286.708 456.635 290.958 456.635 296.178C456.635 301.399 451.788 305.652 445.835 305.652C439.882 305.652 435.033 301.402 435.033 296.178Z" fill="#FAFAFA"/>
<path d="M564.845 763.702C561.386 763.702 558.58 761.244 558.58 758.208C558.58 755.172 561.383 752.714 564.845 752.714C568.306 752.714 571.11 755.172 571.11 758.208C571.11 761.244 568.306 763.702 564.845 763.702Z" fill="#FAFAFA"/>
<path d="M552.331 758.208C552.331 764.259 557.945 769.181 564.845 769.181C571.744 769.181 577.358 764.259 577.358 758.208C577.358 752.157 571.744 747.234 564.845 747.234C557.945 747.234 552.331 752.157 552.331 758.208ZM554.045 758.208C554.045 752.984 558.892 748.737 564.848 748.737C570.804 748.737 575.651 752.987 575.651 758.208C575.651 763.428 570.804 767.681 564.848 767.681C558.892 767.681 554.045 763.431 554.045 758.208Z" fill="#FAFAFA"/>
<path d="M515.877 699.614C518.323 701.759 518.323 705.238 515.877 707.384C513.43 709.529 509.463 709.529 507.016 707.384C504.57 705.238 504.57 701.759 507.017 699.614C509.463 697.468 513.43 697.468 515.877 699.614Z" fill="#FAFAFA"/>
<path d="M498.932 703.497C498.932 709.548 504.546 714.471 511.446 714.471C518.345 714.471 523.959 709.548 523.959 703.497C523.959 697.447 518.345 692.524 511.446 692.524C504.546 692.524 498.932 697.447 498.932 703.497ZM500.643 703.497C500.643 698.274 505.489 694.027 511.442 694.027C517.395 694.027 522.245 698.277 522.245 703.497C522.245 708.718 517.398 712.971 511.442 712.971C505.486 712.971 500.643 708.721 500.643 703.497Z" fill="#FAFAFA"/>
<path d="M273.902 572.486C270.444 572.486 267.637 570.028 267.637 566.992C267.637 563.956 270.44 561.498 273.902 561.498C277.364 561.498 280.167 563.956 280.167 566.992C280.167 570.028 277.364 572.486 273.902 572.486Z" fill="#FAFAFA"/>
<path d="M261.389 566.992C261.389 573.043 267.002 577.966 273.902 577.966C280.802 577.966 286.415 573.043 286.415 566.992C286.415 560.941 280.802 556.018 273.902 556.018C267.002 556.018 261.389 560.941 261.389 566.992ZM263.103 566.992C263.103 561.769 267.949 557.518 273.905 557.518C279.862 557.518 284.705 561.769 284.705 566.992C284.705 572.215 279.858 576.466 273.905 576.466C267.953 576.466 263.103 572.215 263.103 566.992Z" fill="#FAFAFA"/>
<path d="M102.121 396.771C98.663 396.771 95.8563 394.313 95.8563 391.277C95.8563 388.241 98.6597 385.783 102.121 385.783C105.583 385.783 108.386 388.241 108.386 391.277C108.386 394.313 105.583 396.771 102.121 396.771Z" fill="#FAFAFA"/>
<path d="M89.6082 391.28C89.6082 397.331 95.2217 402.254 102.121 402.254C109.021 402.254 114.635 397.331 114.635 391.28C114.635 385.229 109.021 380.306 102.121 380.306C95.2217 380.306 89.6082 385.229 89.6082 391.28ZM91.3221 391.28C91.3221 386.057 96.1686 381.806 102.121 381.806C108.074 381.806 112.921 386.057 112.921 391.28C112.921 396.503 108.074 400.754 102.121 400.754C96.1686 400.754 91.3221 396.503 91.3221 391.28Z" fill="#FAFAFA"/>
<path d="M343.473 265.174C340.015 265.174 337.208 262.715 337.208 259.68C337.208 256.644 340.011 254.185 343.473 254.185C346.935 254.185 349.738 256.644 349.738 259.68C349.738 262.715 346.935 265.174 343.473 265.174Z" fill="#FAFAFA"/>
<path d="M330.96 259.683C330.96 265.733 336.573 270.656 343.473 270.656C350.373 270.656 355.986 265.733 355.986 259.683C355.986 253.632 350.373 248.709 343.473 248.709C336.573 248.709 330.96 253.632 330.96 259.683ZM332.67 259.683C332.67 254.459 337.517 250.209 343.469 250.209C349.422 250.209 354.272 254.459 354.272 259.683C354.272 264.906 349.426 269.156 343.469 269.156C337.513 269.156 332.67 264.906 332.67 259.683Z" fill="#FAFAFA"/>
<path d="M603.82 686.8C600.362 686.8 597.555 684.342 597.555 681.306C597.555 678.27 600.358 675.812 603.82 675.812C607.282 675.812 610.085 678.27 610.085 681.306C610.085 684.342 607.282 686.8 603.82 686.8Z" fill="#FAFAFA"/>
<path d="M591.307 681.306C591.307 687.357 596.92 692.28 603.82 692.28C610.72 692.28 616.333 687.357 616.333 681.306C616.333 675.255 610.72 670.332 603.82 670.332C596.92 670.332 591.307 675.255 591.307 681.306ZM593.017 681.306C593.017 676.083 597.864 671.832 603.82 671.832C609.776 671.832 614.619 676.083 614.619 681.306C614.619 686.529 609.773 690.78 603.82 690.78C597.867 690.78 593.017 686.529 593.017 681.306Z" fill="#FAFAFA"/>
<path d="M517.707 501.254C521.167 501.254 523.972 503.714 523.972 506.749C523.972 509.783 521.167 512.243 517.707 512.243C514.247 512.243 511.442 509.783 511.442 506.749C511.442 503.714 514.247 501.254 517.707 501.254Z" fill="#FAFAFA"/>
<path d="M552.318 744.172C548.86 744.172 546.053 741.713 546.053 738.677C546.053 735.641 548.856 733.183 552.318 733.183C555.78 733.183 558.583 735.641 558.583 738.677C558.583 741.713 555.78 744.172 552.318 744.172Z" fill="#FAFAFA"/>
<path d="M526.932 726.471C523.473 726.471 520.667 724.013 520.667 720.977C520.667 717.941 523.47 715.483 526.932 715.483C530.394 715.483 533.197 717.941 533.197 720.977C533.197 724.013 530.394 726.471 526.932 726.471Z" fill="#FAFAFA"/>
<path d="M584.332 720.977C580.874 720.977 578.067 718.519 578.067 715.483C578.067 712.447 580.871 709.989 584.332 709.989C587.794 709.989 590.597 712.447 590.597 715.483C590.597 718.519 587.794 720.977 584.332 720.977Z" fill="#FAFAFA"/>
<path d="M673.418 30.0695C669.96 30.0695 667.153 27.6111 667.153 24.5753C667.153 21.5394 669.956 19.081 673.418 19.081C676.88 19.081 679.683 21.5394 679.683 24.5753C679.683 27.6111 676.88 30.0695 673.418 30.0695Z" fill="#FAFAFA"/>
<path d="M795.55 95.5811C792.091 95.5811 789.285 93.1226 789.285 90.0868C789.285 87.051 792.088 84.5926 795.55 84.5926C799.011 84.5926 801.815 87.051 801.815 90.0868C801.815 93.1226 799.011 95.5811 795.55 95.5811Z" fill="#FAFAFA"/>
<path d="M688.972 242.605C685.514 242.605 682.707 240.146 682.707 237.11C682.707 234.074 685.51 231.616 688.972 231.616C692.434 231.616 695.237 234.074 695.237 237.11C695.237 240.146 692.434 242.605 688.972 242.605Z" fill="#FAFAFA"/>
<path d="M618.43 650.995C614.972 650.995 612.165 648.537 612.165 645.501C612.165 642.465 614.969 640.007 618.43 640.007C621.892 640.007 624.696 642.465 624.696 645.501C624.696 648.537 621.892 650.995 618.43 650.995Z" fill="#FAFAFA"/>
<path d="M302.869 531.154C299.41 531.154 296.604 528.696 296.604 525.66C296.604 522.624 299.407 520.166 302.869 520.166C306.33 520.166 309.134 522.624 309.134 525.66C309.134 528.696 306.33 531.154 302.869 531.154Z" fill="#FAFAFA"/>
<path d="M458.077 468.694C454.619 468.694 451.812 466.235 451.812 463.199C451.812 460.164 454.615 457.705 458.077 457.705C461.539 457.705 464.342 460.164 464.342 463.199C464.342 466.235 461.539 468.694 458.077 468.694Z" fill="#FAFAFA"/>
<path d="M414.468 489.156C417.835 489.853 419.921 492.812 419.126 495.765C418.331 498.718 414.957 500.547 411.589 499.85C408.222 499.153 406.136 496.194 406.931 493.241C407.726 490.288 411.1 488.459 414.468 489.156Z" fill="#FAFAFA"/>
<path d="M40.8655 382.664C37.4071 382.664 34.6004 380.205 34.6004 377.169C34.6004 374.133 37.4037 371.675 40.8655 371.675C44.3272 371.675 47.1305 374.133 47.1305 377.169C47.1305 380.205 44.3272 382.664 40.8655 382.664Z" fill="#FAFAFA"/>
<path d="M321.498 468.694C318.039 468.694 315.233 466.235 315.233 463.199C315.233 460.164 318.036 457.705 321.498 457.705C324.959 457.705 327.763 460.164 327.763 463.199C327.763 466.235 324.959 468.694 321.498 468.694Z" fill="#FAFAFA"/>
<path d="M520.667 451.467C517.208 451.467 514.402 449.008 514.402 445.973C514.402 442.937 517.205 440.478 520.667 440.478C524.128 440.478 526.932 442.937 526.932 445.973C526.932 449.008 524.128 451.467 520.667 451.467Z" fill="#FAFAFA"/>
<path d="M464.342 335.921C460.884 335.921 458.077 333.462 458.077 330.427C458.077 327.391 460.88 324.932 464.342 324.932C467.804 324.932 470.607 327.391 470.607 330.427C470.607 333.462 467.804 335.921 464.342 335.921Z" fill="#FAFAFA"/>
<path d="M612.165 126.499C608.707 126.499 605.9 124.04 605.9 121.005C605.9 117.969 608.704 115.51 612.165 115.51C615.627 115.51 618.43 117.969 618.43 121.005C618.43 124.04 615.627 126.499 612.165 126.499Z" fill="#FAFAFA"/>
<path d="M561.716 210.731C558.257 210.731 555.45 208.273 555.45 205.237C555.45 202.201 558.254 199.743 561.716 199.743C565.177 199.743 567.981 202.201 567.981 205.237C567.981 208.273 565.177 210.731 561.716 210.731Z" fill="#FAFAFA"/>
<path d="M612.773 120.478L657.569 159.762V314.191L565.703 394.756L565.703 758.208H563.99L563.99 394.134L655.858 313.569V160.384L611.561 121.537L612.773 120.478Z" fill="#FAFAFA"/>
<path d="M747.116 106.296L750.747 109.48L646.06 201.287V342.278L554.887 422.234L554.887 738.677H549.749L549.749 420.367L640.922 340.412V199.421L747.116 106.296Z" fill="#FAFAFA"/>
<path d="M672.563 24.5753H674.273V272.686L585.188 350.811L585.188 715.486H583.477L583.477 350.189L672.563 272.064V24.5753Z" fill="#FAFAFA"/>
<path d="M447.651 294.586L536.791 372.761V467.399L520.086 482.045V506.749H514.951V480.182L531.656 465.533V374.625L444.02 297.77L447.651 294.586Z" fill="#FAFAFA"/>
<path d="M560.857 205.237H562.571V258.944L604.675 295.868L604.675 681.306H602.965L602.965 296.491L560.857 259.567V205.237Z" fill="#FAFAFA"/>
<path d="M662.581 338.465H707.248L751.626 377.384L750.415 378.446L706.539 339.965H663.291L619.286 378.559V645.504H617.575V377.937L662.581 338.465Z" fill="#FAFAFA"/>
<path d="M794.946 89.557L796.154 90.6166L689.827 183.864V237.11H688.113V183.242L794.946 89.557Z" fill="#FAFAFA"/>
<path d="M464.946 329.897L521.522 379.512V447.479H519.811V380.134L463.735 330.956L464.946 329.897Z" fill="#FAFAFA"/>
<path d="M344.077 259.15L485.411 383.095L485.411 513.612L527.787 550.774V720.977H526.077V551.396L483.701 514.234L483.701 383.717L342.865 260.212L344.077 259.15Z" fill="#FAFAFA"/>
<path d="M349.31 481.358H425.292L514.011 559.161V703.497H508.876V561.025L423.168 485.861H351.438L304.684 526.863L301.053 523.678L349.31 481.358Z" fill="#FAFAFA"/>
<path d="M356.186 493.772H413.04V495.272H356.896L274.51 567.525L273.298 566.462L356.186 493.772Z" fill="#FAFAFA"/>
<path d="M102.121 390.527H270.43L352.443 462.449L458.077 462.449V463.949L351.734 463.949L269.721 392.03H102.121V390.527Z" fill="#FAFAFA"/>
<path d="M40.8655 376.422H223.754L322.105 462.67L320.893 463.732L223.045 377.922H40.8655V376.422Z" fill="#FAFAFA"/>
</g>
</g>
</svg>
